<svg width="24" height="29" viewBox="0 0 24 29" fill="none" xmlns="http://www.w3.org/2000/svg">
<path d="M22.4851 11.9034C22.4851 19.9833 12 26.9089 12 26.9089C12 26.9089 1.51498 19.9833 1.51498 11.9034C1.51498 9.14823 2.61965 6.50589 4.58599 4.55768C6.55232 2.60947 9.21924 1.51498 12 1.51498C14.7809 1.51498 17.4478 2.60947 19.4141 4.55768C21.3804 6.50589 22.4851 9.14823 22.4851 11.9034Z" stroke="#8B8888" stroke-width="3" stroke-linecap="round" stroke-linejoin="round"/>
<path d="M12 15.3662C13.9303 15.3662 15.4951 13.8159 15.4951 11.9034C15.4951 9.99095 13.9303 8.4406 12 8.4406C10.0698 8.4406 8.50503 9.99095 8.50503 11.9034C8.50503 13.8159 10.0698 15.3662 12 15.3662Z" stroke="#8B8888" stroke-width="3" stroke-linecap="round" stroke-linejoin="round"/>
</svg>
