<svg width="25" height="24" viewBox="0 0 25 24" fill="none" xmlns="http://www.w3.org/2000/svg">
<path d="M20.9281 6.31579V10.0926C20.9281 10.0926 18.3251 10.1053 18.312 10.0926V6.31579H14.388C14.388 6.31579 14.4011 3.80211 14.388 3.78947H18.312V0H20.9281V3.78947H24.8521V6.31579H20.9281ZM17.004 11.3684V7.57895H13.08V3.78947H2.61601C1.1772 3.78947 0 4.92632 0 6.31579V21.4737C0 22.8632 1.1772 24 2.61601 24H18.312C19.7509 24 20.9281 22.8632 20.9281 21.4737V11.3684H17.004ZM2.61601 21.4737L6.54002 16.4211L9.15602 20.2105L13.08 15.1579L18.312 21.4737H2.61601Z" fill="#AC9D9D"/>
</svg>
