<svg width="80" height="80" viewBox="0 0 80 80" fill="none" xmlns="http://www.w3.org/2000/svg">
<path d="M67.5 8.75H12.5C9.73858 8.75 7.5 10.9886 7.5 13.75V71.25C7.5 74.0114 9.73858 76.25 12.5 76.25H67.5C70.2614 76.25 72.5 74.0114 72.5 71.25V13.75C72.5 10.9886 70.2614 8.75 67.5 8.75Z" fill="#292F79"/>
<path d="M60.225 69.7875L71.0375 58.9625C71.9719 58.0271 72.4977 56.7597 72.5 55.4375V23.75H7.5V66.175C7.5 67.5011 8.02678 68.7729 8.96447 69.7105C9.90215 70.6482 11.1739 71.175 12.5 71.175L56.675 71.25C57.3339 71.2522 57.9867 71.1241 58.596 70.8731C59.2052 70.6221 59.7588 70.2532 60.225 69.7875Z" fill="#F3F3F8"/>
<path d="M70 57.5H63.75C62.4239 57.5 61.1521 58.0268 60.2145 58.9645C59.2768 59.9021 58.75 61.1739 58.75 62.5V68.75C58.75 69.413 58.4866 70.0489 58.0178 70.5178C57.5489 70.9866 56.913 71.25 56.25 71.25H56.6625C57.3214 71.2522 57.9742 71.1241 58.5835 70.8731C59.1927 70.6221 59.7463 70.2532 60.2125 69.7875L71.025 58.9625C71.964 58.0291 72.4944 56.7614 72.5 55.4375V55C72.5 55.663 72.2366 56.2989 71.7678 56.7678C71.2989 57.2366 70.663 57.5 70 57.5Z" fill="#A4C0D8"/>
<path d="M36.875 11.875C36.875 13.6009 38.2741 15 40 15C41.7259 15 43.125 13.6009 43.125 11.875V6.875C43.125 5.14911 41.7259 3.75 40 3.75C38.2741 3.75 36.875 5.14911 36.875 6.875V11.875Z" fill="#292F79"/>
<path d="M56.25 11.875C56.25 13.6009 57.6491 15 59.375 15C61.1009 15 62.5 13.6009 62.5 11.875V6.875C62.5 5.14911 61.1009 3.75 59.375 3.75C57.6491 3.75 56.25 5.14911 56.25 6.875V11.875Z" fill="#292F79"/>
<path d="M23.75 6.875C23.75 5.14911 22.3509 3.75 20.625 3.75C18.8991 3.75 17.5 5.14911 17.5 6.875V11.875C17.5 13.6009 18.8991 15 20.625 15C22.3509 15 23.75 13.6009 23.75 11.875V6.875Z" fill="#292F79"/>
<path d="M20 30H15C14.3096 30 13.75 30.5596 13.75 31.25V36.25C13.75 36.9404 14.3096 37.5 15 37.5H20C20.6904 37.5 21.25 36.9404 21.25 36.25V31.25C21.25 30.5596 20.6904 30 20 30Z" fill="#292F79" fill-opacity="0.4"/>
<path d="M35 30H30C29.3096 30 28.75 30.5596 28.75 31.25V36.25C28.75 36.9404 29.3096 37.5 30 37.5H35C35.6904 37.5 36.25 36.9404 36.25 36.25V31.25C36.25 30.5596 35.6904 30 35 30Z" fill="#292F79" fill-opacity="0.4"/>
<path d="M50 30H45C44.3096 30 43.75 30.5596 43.75 31.25V36.25C43.75 36.9404 44.3096 37.5 45 37.5H50C50.6904 37.5 51.25 36.9404 51.25 36.25V31.25C51.25 30.5596 50.6904 30 50 30Z" fill="#292F79" fill-opacity="0.4"/>
<path d="M65 30H60C59.3096 30 58.75 30.5596 58.75 31.25V36.25C58.75 36.9404 59.3096 37.5 60 37.5H65C65.6904 37.5 66.25 36.9404 66.25 36.25V31.25C66.25 30.5596 65.6904 30 65 30Z" fill="#292F79" fill-opacity="0.4"/>
<path d="M35 43.125H30C29.3096 43.125 28.75 43.6846 28.75 44.375V49.375C28.75 50.0654 29.3096 50.625 30 50.625H35C35.6904 50.625 36.25 50.0654 36.25 49.375V44.375C36.25 43.6846 35.6904 43.125 35 43.125Z" fill="#292F79" fill-opacity="0.4"/>
<path d="M50 43.125H45C44.3096 43.125 43.75 43.6846 43.75 44.375V49.375C43.75 50.0654 44.3096 50.625 45 50.625H50C50.6904 50.625 51.25 50.0654 51.25 49.375V44.375C51.25 43.6846 50.6904 43.125 50 43.125Z" fill="#292F79"/>
<path d="M65 43.125H60C59.3096 43.125 58.75 43.6846 58.75 44.375V49.375C58.75 50.0654 59.3096 50.625 60 50.625H65C65.6904 50.625 66.25 50.0654 66.25 49.375V44.375C66.25 43.6846 65.6904 43.125 65 43.125Z" fill="#292F79" fill-opacity="0.4"/>
<path d="M20 56.25H15C14.3096 56.25 13.75 56.8096 13.75 57.5V62.5C13.75 63.1904 14.3096 63.75 15 63.75H20C20.6904 63.75 21.25 63.1904 21.25 62.5V57.5C21.25 56.8096 20.6904 56.25 20 56.25Z" fill="#292F79" fill-opacity="0.4"/>
<path d="M35 56.25H30C29.3096 56.25 28.75 56.8096 28.75 57.5V62.5C28.75 63.1904 29.3096 63.75 30 63.75H35C35.6904 63.75 36.25 63.1904 36.25 62.5V57.5C36.25 56.8096 35.6904 56.25 35 56.25Z" fill="#292F79" fill-opacity="0.4"/>
<path d="M22.0243 42.775C21.7652 42.5706 21.4359 42.477 21.108 42.5144C20.7802 42.5519 20.4805 42.7175 20.2743 42.975L16.1493 48.125L14.6368 46.6125C14.4014 46.3772 14.0821 46.2449 13.7493 46.2449C13.4164 46.2449 13.0971 46.3772 12.8618 46.6125C12.6264 46.8479 12.4941 47.1672 12.4941 47.5C12.4941 47.8329 12.6264 48.1522 12.8618 48.3875L15.3618 50.8875C15.4859 51.0124 15.635 51.1097 15.7994 51.173C15.9637 51.2362 16.1396 51.264 16.3154 51.2546C16.4912 51.2452 16.6631 51.1987 16.8197 51.1182C16.9764 51.0377 17.1142 50.925 17.2243 50.7875L22.2243 44.5375C22.3274 44.4089 22.4041 44.2611 22.4498 44.1027C22.4956 43.9444 22.5096 43.7785 22.4911 43.6147C22.4725 43.4508 22.4216 43.2923 22.3415 43.1482C22.2614 43.0041 22.1536 42.8773 22.0243 42.775Z" fill="#85EE89"/>
<path d="M52.1368 55.3625C52.0206 55.2454 51.8823 55.1524 51.73 55.0889C51.5777 55.0255 51.4143 54.9928 51.2493 54.9928C51.0842 54.9928 50.9209 55.0255 50.7685 55.0889C50.6162 55.1524 50.478 55.2454 50.3618 55.3625L47.4993 58.2375L44.6368 55.3625C44.4014 55.1272 44.0821 54.9949 43.7493 54.9949C43.4164 54.9949 43.0971 55.1272 42.8618 55.3625C42.6264 55.5979 42.4941 55.9172 42.4941 56.25C42.4941 56.5829 42.6264 56.9022 42.8618 57.1375L45.7368 60L42.8618 62.8625C42.6264 63.0979 42.4941 63.4172 42.4941 63.75C42.4941 64.0829 42.6264 64.4022 42.8618 64.6375C43.0971 64.8729 43.4164 65.0052 43.7493 65.0052C44.0821 65.0052 44.4014 64.8729 44.6368 64.6375L47.4993 61.7625L50.3618 64.6375C50.5971 64.8729 50.9164 65.0052 51.2493 65.0052C51.5821 65.0052 51.9014 64.8729 52.1368 64.6375C52.3721 64.4022 52.5044 64.0829 52.5044 63.75C52.5044 63.4172 52.3721 63.0979 52.1368 62.8625L49.2618 60L52.1368 57.1375C52.2539 57.0213 52.3469 56.8831 52.4104 56.7308C52.4738 56.5784 52.5065 56.4151 52.5065 56.25C52.5065 56.085 52.4738 55.9217 52.4104 55.7693C52.3469 55.617 52.2539 55.4788 52.1368 55.3625Z" fill="#DD2E44"/>
</svg>
