<svg width="24" height="18" viewBox="0 0 24 18" fill="none" xmlns="http://www.w3.org/2000/svg">
<path d="M16.3636 0C16.653 0 16.9304 0.114935 17.135 0.31952C17.3396 0.524105 17.4545 0.801582 17.4545 1.09091V5.67273L23.1415 1.69091C23.2232 1.63359 23.3192 1.59982 23.4188 1.59327C23.5185 1.58673 23.618 1.60767 23.7066 1.65381C23.7951 1.69995 23.8693 1.76952 23.9211 1.85493C23.9728 1.94034 24.0001 2.03832 24 2.13818V15.3164C24.0001 15.4162 23.9728 15.5142 23.9211 15.5996C23.8693 15.685 23.7951 15.7546 23.7066 15.8007C23.618 15.8469 23.5185 15.8678 23.4188 15.8613C23.3192 15.8547 23.2232 15.821 23.1415 15.7636L17.4545 11.7818V16.3636C17.4545 16.653 17.3396 16.9304 17.135 17.135C16.9304 17.3396 16.653 17.4545 16.3636 17.4545H1.09091C0.801582 17.4545 0.524105 17.3396 0.31952 17.135C0.114935 16.9304 0 16.653 0 16.3636V1.09091C0 0.801582 0.114935 0.524105 0.31952 0.31952C0.524105 0.114935 0.801582 0 1.09091 0H16.3636ZM15.2727 2.18182H2.18182V15.2727H15.2727V2.18182ZM6.98182 5.268C7.06484 5.26777 7.14621 5.29124 7.21636 5.33564L11.9673 8.35964C12.029 8.3991 12.0798 8.45345 12.115 8.5177C12.1501 8.58195 12.1686 8.65402 12.1686 8.72727C12.1686 8.80052 12.1501 8.87259 12.115 8.93684C12.0798 9.00109 12.029 9.05545 11.9673 9.09491L7.21636 12.12C7.15019 12.1622 7.07387 12.1857 6.99544 12.1882C6.917 12.1906 6.83936 12.1719 6.77068 12.1339C6.70201 12.096 6.64484 12.0402 6.6052 11.9724C6.56557 11.9047 6.54493 11.8276 6.54545 11.7491V5.70545C6.54545 5.58972 6.59143 5.47873 6.67326 5.3969C6.7551 5.31506 6.86609 5.268 6.98182 5.268ZM21.8182 5.28L17.4545 8.33455V9.11782L21.8182 12.1724V5.28Z" fill="#CE0606"/>
</svg>
