<svg width="20" height="18" viewBox="0 0 20 18" fill="none" xmlns="http://www.w3.org/2000/svg">
<path d="M18.5254 5.4922C17.4518 4.05402 15.9518 3.09306 14.3069 2.65943V2.66161C13.9252 2.24758 13.4944 1.86625 13.0123 1.52632C9.3585 -1.06676 4.22935 -0.275766 1.56211 3.29135C-0.587315 6.1895 -0.495803 10.0878 1.69603 12.8574L1.71388 15.7469C1.71388 15.8166 1.72504 15.8863 1.74736 15.9517C1.86566 16.3199 2.26742 16.5226 2.6424 16.4071L5.46812 15.5377C6.21584 15.797 6.98811 15.9451 7.75592 15.9865L7.74476 15.9953C9.73348 17.4095 12.3405 17.8344 14.7309 17.063L17.5678 17.9651C17.6392 17.9869 17.7129 18 17.7888 18C18.1839 18 18.503 17.6884 18.503 17.3027V14.3828C20.4694 11.7766 20.5208 8.17462 18.5254 5.4922ZM5.7806 13.9905L5.51276 13.8816L3.30307 14.5571L3.28075 12.2909L3.10219 12.0948C1.21391 9.84596 1.08892 6.6057 2.85667 4.22835C5.00832 1.34763 9.13307 0.711348 12.0749 2.79017C15.0256 4.88425 15.6795 8.90461 13.548 11.7679C11.7601 14.1627 8.55945 15.0474 5.7806 13.9905ZM17.0522 13.6201L16.8737 13.838L16.896 16.1042L14.7086 15.3851L14.4408 15.4941C13.1909 15.9473 11.8583 15.9844 10.6241 15.6466L10.6196 15.6444C12.269 15.1498 13.7645 14.1474 14.8425 12.7049C16.5478 10.4103 16.8246 7.52744 15.8336 5.06947L15.8469 5.07818C16.3603 5.43773 16.8313 5.88661 17.2308 6.4292C18.8512 8.59954 18.7597 11.5543 17.0522 13.6201Z" fill="#292F79" fill-opacity="0.75"/>
<path d="M12.5977 7C11.979 7 11.4995 7.47943 11.4995 8.07136C11.4995 8.66329 11.979 9.14273 12.5977 9.14273C13.1628 9.14273 13.6423 8.66329 13.6423 8.07136C13.6423 7.47943 13.1628 7 12.5977 7ZM5.09815 7C4.47943 7 4 7.47943 4 8.07136C4 8.66329 4.47943 9.14273 5.09815 9.14273C5.66329 9.14273 6.14273 8.66329 6.14273 8.07136C6.14273 7.47943 5.66329 7 5.09815 7Z" fill="#292F79" fill-opacity="0.75"/>
<path d="M8.84815 7C8.22943 7 7.75 7.47943 7.75 8.07136C7.75 8.66329 8.22943 9.14273 8.84815 9.14273C9.41329 9.14273 9.89273 8.66329 9.89273 8.07136C9.89273 7.47943 9.41329 7 8.84815 7Z" fill="#292F79" fill-opacity="0.75"/>
</svg>
