<svg width="14" height="15" viewBox="0 0 14 15" fill="none" xmlns="http://www.w3.org/2000/svg">
<mask id="path-1-inside-1_344_1742" fill="white">
<path d="M9.49695 13.8123H7.28029C6.95362 13.8123 6.24195 13.7061 5.86279 13.2998L4.09529 11.8373L4.63195 11.0936L6.44029 12.5936C6.58612 12.7436 6.95362 12.8686 7.28029 12.8686H9.49695C10.022 12.8686 10.5878 12.4186 10.7045 11.9123L12.1161 7.31856C12.2095 7.04356 12.192 6.79356 12.0695 6.61231C11.9411 6.41856 11.7078 6.30606 11.422 6.30606H9.08862C8.78529 6.30606 8.50529 6.16856 8.31279 5.93106C8.11445 5.68731 8.02695 5.36231 8.07362 5.02481L8.36529 3.01856C8.43529 2.66856 8.21362 2.27481 7.89862 2.16231C7.61279 2.04981 7.24529 2.21231 7.11695 2.41231L4.72529 6.22481L4.00195 5.70606L6.39362 1.89356C6.76112 1.30606 7.56612 1.02481 8.19612 1.28106C8.92529 1.53731 9.39195 2.39981 9.22862 3.19981L8.94279 5.16856C8.93695 5.21231 8.93695 5.27481 8.97779 5.32481C9.00695 5.35606 9.04779 5.37481 9.09445 5.37481H11.4278C11.9995 5.37481 12.4953 5.63106 12.787 6.07481C13.0728 6.50606 13.1311 7.07481 12.9445 7.62481L11.5503 12.1748C11.3345 13.0811 10.4361 13.8123 9.49695 13.8123Z"/>
</mask>
<path d="M5.86279 13.2998L6.59384 12.6175L6.5499 12.5704L6.50029 12.5294L5.86279 13.2998ZM4.09529 11.8373L3.28436 11.2522L2.73672 12.0111L3.45779 12.6078L4.09529 11.8373ZM4.63195 11.0936L5.27039 10.3239L4.447 9.64089L3.82102 10.5084L4.63195 11.0936ZM6.44029 12.5936L7.15728 11.8965L7.11995 11.8581L7.07872 11.8239L6.44029 12.5936ZM10.7045 11.9123L9.74857 11.6186L9.73804 11.6528L9.72999 11.6877L10.7045 11.9123ZM12.1161 7.31856L11.1692 6.99717L11.1645 7.01093L11.1602 7.02482L12.1161 7.31856ZM12.0695 6.61231L11.2357 7.16455L11.2409 7.17227L12.0695 6.61231ZM8.31279 5.93106L9.08965 5.30139L9.08845 5.29992L8.31279 5.93106ZM8.07362 5.02481L7.084 4.88094L7.08304 4.88784L8.07362 5.02481ZM8.36529 3.01856L7.38471 2.82244L7.37951 2.84845L7.37569 2.87469L8.36529 3.01856ZM7.89862 2.16231L7.53238 3.09283L7.54724 3.09868L7.56228 3.10405L7.89862 2.16231ZM7.11695 2.41231L6.27528 1.87223L6.26984 1.8809L7.11695 2.41231ZM4.72529 6.22481L4.1425 7.03744L5.00704 7.65745L5.5724 6.75622L4.72529 6.22481ZM4.00195 5.70606L3.15484 5.17465L2.65534 5.97089L3.41917 6.51869L4.00195 5.70606ZM6.39362 1.89356L7.24073 2.42497L7.24142 2.42388L6.39362 1.89356ZM8.19612 1.28106L7.81935 2.20737L7.84175 2.21648L7.86457 2.2245L8.19612 1.28106ZM9.22862 3.19981L8.24883 2.99977L8.24311 3.02781L8.239 3.05613L9.22862 3.19981ZM8.94279 5.16856L7.9531 5.02487L7.95156 5.0364L8.94279 5.16856ZM8.97779 5.32481L8.20326 5.95735L8.22417 5.98296L8.24673 6.00713L8.97779 5.32481ZM12.787 6.07481L11.9513 6.62407L11.9534 6.62728L12.787 6.07481ZM12.9445 7.62481L11.9975 7.30342L11.9927 7.31756L11.9883 7.33184L12.9445 7.62481ZM11.5503 12.1748L10.5942 11.8818L10.5849 11.9122L10.5775 11.9431L11.5503 12.1748ZM9.49695 12.8123H7.28029V14.8123H9.49695V12.8123ZM7.28029 12.8123C7.2049 12.8123 7.03973 12.7974 6.87029 12.7481C6.69001 12.6957 6.6107 12.6356 6.59384 12.6175L5.13173 13.9821C5.49404 14.3703 5.96014 14.5664 6.31216 14.6687C6.67501 14.7741 7.02901 14.8123 7.28029 14.8123V12.8123ZM6.50029 12.5294L4.73279 11.0669L3.45779 12.6078L5.22529 14.0703L6.50029 12.5294ZM4.90622 12.4225L5.44288 11.6787L3.82102 10.5084L3.28436 11.2522L4.90622 12.4225ZM3.99351 11.8632L5.80185 13.3632L7.07872 11.8239L5.27039 10.3239L3.99351 11.8632ZM5.72329 13.2906C5.9583 13.5324 6.26183 13.665 6.47801 13.7366C6.71914 13.8165 6.99886 13.8686 7.28029 13.8686V11.8686C7.26097 11.8686 7.23311 11.8666 7.19943 11.8608C7.166 11.8552 7.13396 11.847 7.10693 11.838C7.0788 11.8287 7.06562 11.8217 7.06653 11.8222C7.06753 11.8228 7.07596 11.8274 7.08981 11.8374C7.10312 11.847 7.12763 11.866 7.15728 11.8965L5.72329 13.2906ZM7.28029 13.8686H9.49695V11.8686H7.28029V13.8686ZM9.49695 13.8686C10.0332 13.8686 10.5186 13.6466 10.8752 13.3638C11.2313 13.0814 11.5585 12.6594 11.6789 12.1369L9.72999 11.6877C9.73295 11.6749 9.73328 11.684 9.71536 11.7102C9.69777 11.7359 9.66985 11.7671 9.63248 11.7967C9.59514 11.8264 9.55797 11.8468 9.52795 11.8585C9.49747 11.8703 9.48669 11.8686 9.49695 11.8686V13.8686ZM11.6603 12.2061L13.072 7.61231L11.1602 7.02482L9.74857 11.6186L11.6603 12.2061ZM13.0631 7.63995C13.2229 7.16887 13.2473 6.56924 12.898 6.05235L11.2409 7.17227C11.1922 7.10022 11.1784 7.03352 11.176 6.99723C11.1737 6.96412 11.1808 6.96278 11.1692 6.99717L13.0631 7.63995ZM12.9032 6.0601C12.5504 5.5276 11.9655 5.30606 11.422 5.30606V7.30606C11.4348 7.30606 11.4152 7.30858 11.3754 7.28967C11.3334 7.26968 11.2791 7.22993 11.2358 7.16453L12.9032 6.0601ZM11.422 5.30606H9.08862V7.30606H11.422V5.30606ZM9.08862 5.30606C9.08854 5.30606 9.08962 5.30607 9.09143 5.30649C9.0932 5.3069 9.09474 5.30748 9.09582 5.308C9.09843 5.30928 9.09563 5.30876 9.08965 5.30139L7.53592 6.56073C7.91168 7.02432 8.47338 7.30606 9.08862 7.30606V5.30606ZM9.08845 5.29992C9.07736 5.28628 9.0528 5.24422 9.0642 5.16178L7.08304 4.88784C7.00111 5.4804 7.15155 6.08834 7.53712 6.5622L9.08845 5.29992ZM9.06322 5.16868L9.35488 3.16243L7.37569 2.87469L7.08402 4.88094L9.06322 5.16868ZM9.34587 3.21468C9.43401 2.77395 9.33408 2.34912 9.1523 2.01901C8.97208 1.69174 8.66462 1.37402 8.23496 1.22057L7.56228 3.10405C7.44762 3.0631 7.40849 2.99851 7.40036 2.98374C7.39066 2.96613 7.36656 2.91318 7.38471 2.82244L9.34587 3.21468ZM8.26486 1.23179C7.83644 1.06317 7.41389 1.12015 7.11087 1.22892C6.81831 1.33394 6.48835 1.54027 6.27532 1.87226L7.95859 2.95236C7.91018 3.02779 7.86268 3.06611 7.8428 3.08063C7.82 3.09728 7.80159 3.10593 7.78657 3.11132C7.77085 3.11697 7.67497 3.14895 7.53238 3.09283L8.26486 1.23179ZM6.26984 1.8809L3.87817 5.6934L5.5724 6.75622L7.96407 2.94372L6.26984 1.8809ZM5.30807 5.41219L4.58474 4.89344L3.41917 6.51869L4.1425 7.03744L5.30807 5.41219ZM4.84907 6.23747L7.24073 2.42497L5.54651 1.36215L3.15484 5.17465L4.84907 6.23747ZM7.24142 2.42388C7.36747 2.22236 7.66741 2.14556 7.81935 2.20737L8.57289 0.354754C7.46483 -0.0959433 6.15476 0.389761 5.54582 1.36324L7.24142 2.42388ZM7.86457 2.2245C8.08713 2.30271 8.31985 2.6519 8.24883 2.99977L10.2084 3.39985C10.4641 2.14772 9.76345 0.77191 8.52767 0.337623L7.86457 2.2245ZM8.239 3.05613L7.95316 5.02488L9.93241 5.31224L10.2182 3.34349L8.239 3.05613ZM7.95156 5.0364C7.93477 5.16232 7.89455 5.57934 8.20326 5.95735L9.75232 4.69228C9.86608 4.83158 9.91298 4.97853 9.93023 5.08634C9.94649 5.18796 9.93864 5.26606 9.93401 5.30072L7.95156 5.0364ZM8.24673 6.00713C8.46339 6.23926 8.76822 6.37481 9.09445 6.37481V4.37481C9.32736 4.37481 9.55052 4.47286 9.70884 4.64249L8.24673 6.00713ZM9.09445 6.37481H11.4278V4.37481H9.09445V6.37481ZM11.4278 6.37481C11.6916 6.37481 11.8598 6.48491 11.9513 6.62407L13.6226 5.52555C13.1307 4.77722 12.3073 4.37481 11.4278 4.37481V6.37481ZM11.9534 6.62728C12.0463 6.76736 12.0982 7.00674 11.9975 7.30342L13.8914 7.9462C14.164 7.14288 14.0993 6.24476 13.6205 5.52234L11.9534 6.62728ZM11.9883 7.33184L10.5942 11.8818L12.5064 12.4678L13.9006 7.91778L11.9883 7.33184ZM10.5775 11.9431C10.4659 12.4119 9.95994 12.8123 9.49695 12.8123V14.8123C10.9123 14.8123 12.203 13.7503 12.5231 12.4065L10.5775 11.9431Z" fill="#000AFF" mask="url(#path-1-inside-1_344_1742)"/>
<mask id="path-3-inside-2_344_1742" fill="white">
<path d="M3.13867 13.125H2.55534C1.47617 13.125 0.951172 12.5813 0.951172 11.4688V5.34375C0.951172 4.23125 1.47617 3.6875 2.55534 3.6875H3.13867C4.21784 3.6875 4.74284 4.23125 4.74284 5.34375V11.4688C4.74284 12.5813 4.21784 13.125 3.13867 13.125ZM2.55534 4.625C1.91951 4.625 1.82617 4.7875 1.82617 5.34375V11.4688C1.82617 12.025 1.91951 12.1875 2.55534 12.1875H3.13867C3.77451 12.1875 3.86784 12.025 3.86784 11.4688V5.34375C3.86784 4.7875 3.77451 4.625 3.13867 4.625H2.55534Z"/>
</mask>
<path d="M4.74284 11.4688H3.74284H4.74284ZM3.13867 12.125H2.55534V14.125H3.13867V12.125ZM2.55534 12.125C2.17189 12.125 2.07776 12.0296 2.06715 12.0186C2.0504 12.0013 1.95117 11.8851 1.95117 11.4688H-0.0488281C-0.0488281 12.1649 0.11444 12.8768 0.629988 13.4095C1.15166 13.9485 1.85962 14.125 2.55534 14.125V12.125ZM1.95117 11.4688V5.34375H-0.0488281V11.4688H1.95117ZM1.95117 5.34375C1.95117 4.9274 2.0504 4.81118 2.06715 4.79388C2.07776 4.78291 2.17189 4.6875 2.55534 4.6875V2.6875C1.85962 2.6875 1.15166 2.86396 0.629987 3.40299C0.11444 3.93569 -0.0488281 4.6476 -0.0488281 5.34375H1.95117ZM2.55534 4.6875H3.13867V2.6875H2.55534V4.6875ZM3.13867 4.6875C3.52212 4.6875 3.61625 4.78291 3.62686 4.79388C3.64361 4.81118 3.74284 4.9274 3.74284 5.34375H5.74284C5.74284 4.6476 5.57957 3.93569 5.06402 3.40299C4.54235 2.86396 3.83439 2.6875 3.13867 2.6875V4.6875ZM3.74284 5.34375V11.4688H5.74284V5.34375H3.74284ZM3.74284 11.4688C3.74284 11.8851 3.64361 12.0013 3.62686 12.0186C3.61625 12.0296 3.52212 12.125 3.13867 12.125V14.125C3.83439 14.125 4.54235 13.9485 5.06402 13.4095C5.57957 12.8768 5.74284 12.1649 5.74284 11.4688H3.74284ZM2.55534 3.625C2.25615 3.625 1.64862 3.63558 1.22126 4.09346C1.00148 4.32894 0.911007 4.5961 0.870096 4.80073C0.831287 4.99484 0.826172 5.1904 0.826172 5.34375H2.82617C2.82617 5.21897 2.83272 5.18563 2.83128 5.19283C2.82774 5.21054 2.80034 5.33278 2.68337 5.4581C2.56366 5.58637 2.43852 5.62368 2.40996 5.63064C2.39391 5.63455 2.42656 5.625 2.55534 5.625V3.625ZM0.826172 5.34375V11.4688H2.82617V5.34375H0.826172ZM0.826172 11.4688C0.826172 11.6221 0.831287 11.8177 0.870096 12.0118C0.911007 12.2164 1.00148 12.4836 1.22126 12.719C1.64862 13.1769 2.25615 13.1875 2.55534 13.1875V11.1875C2.42656 11.1875 2.39391 11.1779 2.40996 11.1819C2.43852 11.1888 2.56366 11.2261 2.68337 11.3544C2.80034 11.4797 2.82774 11.602 2.83128 11.6197C2.83272 11.6269 2.82617 11.5935 2.82617 11.4688H0.826172ZM2.55534 13.1875H3.13867V11.1875H2.55534V13.1875ZM3.13867 13.1875C3.43786 13.1875 4.04539 13.1769 4.47275 12.719C4.69253 12.4836 4.783 12.2164 4.82391 12.0118C4.86272 11.8177 4.86784 11.6221 4.86784 11.4688H2.86784C2.86784 11.5935 2.86129 11.6269 2.86273 11.6197C2.86627 11.602 2.89367 11.4797 3.01064 11.3544C3.13036 11.2261 3.25549 11.1888 3.28405 11.1819C3.3001 11.1779 3.26745 11.1875 3.13867 11.1875V13.1875ZM4.86784 11.4688V5.34375H2.86784V11.4688H4.86784ZM4.86784 5.34375C4.86784 5.1904 4.86272 4.99484 4.82391 4.80073C4.783 4.5961 4.69253 4.32894 4.47275 4.09346C4.04539 3.63558 3.43787 3.625 3.13867 3.625V5.625C3.26745 5.625 3.3001 5.63455 3.28405 5.63064C3.25549 5.62368 3.13035 5.58637 3.01064 5.4581C2.89367 5.33278 2.86627 5.21054 2.86273 5.19283C2.86129 5.18563 2.86784 5.21897 2.86784 5.34375H4.86784ZM3.13867 3.625H2.55534V5.625H3.13867V3.625Z" fill="#000AFF" mask="url(#path-3-inside-2_344_1742)"/>
</svg>
