<svg width="20" height="20" viewBox="0 0 20 20" fill="none" xmlns="http://www.w3.org/2000/svg">
<path d="M2.18866 17.8082H3.72072L13.1593 8.35616L11.6272 6.82192L2.18866 16.274V17.8082ZM17.8376 6.76712L13.1867 2.16438L14.7187 0.630137C15.1382 0.210046 15.6536 0 16.265 0C16.8756 0 17.3907 0.210046 17.8102 0.630137L19.3423 2.16438C19.7618 2.58447 19.9806 3.09151 19.9989 3.68548C20.0171 4.27872 19.8165 4.78539 19.397 5.20548L17.8376 6.76712ZM16.2508 8.38356L4.6509 20H0V15.3425L11.5999 3.72603L16.2508 8.38356ZM12.3933 7.58904L11.6272 6.82192L13.1593 8.35616L12.3933 7.58904Z" fill="white"/>
</svg>
