<svg width="25" height="24" viewBox="0 0 25 24" fill="none" xmlns="http://www.w3.org/2000/svg">
<path d="M10.7541 20.9203L10.7312 20.8982L10.7057 20.8792L7.9829 18.8485L8.30988 18.4401L11.1144 20.5369C11.326 20.7229 11.6285 20.8538 11.9141 20.9391C12.2237 21.0316 12.58 21.09 12.923 21.09H16.858C17.4464 21.09 18.0301 20.8659 18.4923 20.5355C18.9454 20.2116 19.3352 19.7465 19.4805 19.2043L21.9782 11.8784C22.1817 11.3323 22.1717 10.7446 21.826 10.282C21.4774 9.8092 20.8902 9.58999 20.2751 9.58999H16.1331C15.7315 9.58999 15.3713 9.42656 15.1277 9.15566L15.127 9.15494C14.8783 8.87947 14.7653 8.51192 14.8253 8.11757L15.3406 4.92257C15.5151 4.09373 14.9529 3.23886 14.1808 2.9863C13.7984 2.85282 13.3945 2.89118 13.0681 2.99677C12.7471 3.10063 12.4209 3.29586 12.2258 3.57001L12.2258 3.57L12.2227 3.57436L8.25318 9.27777L7.80946 8.99095L11.7595 3.31562L11.7598 3.31507C12.2793 2.5666 13.4666 2.18579 14.3767 2.51944L14.3872 2.52328L14.3978 2.52665C15.4604 2.86324 16.1229 3.99902 15.894 5.00953L15.8905 5.02491L15.888 5.04048L15.3806 8.19048L15.3805 8.19047L15.3796 8.19682C15.3618 8.31735 15.3415 8.60817 15.5658 8.85571L15.577 8.86807L15.589 8.87965C15.7387 9.02419 15.9377 9.09999 16.1435 9.09999H20.2855C21.1679 9.09999 21.8856 9.45431 22.2942 10.0146L22.2954 10.0162C22.6918 10.5553 22.7883 11.2844 22.5099 12.0238L22.507 12.0314L22.5044 12.0391L20.0295 19.3191L20.0239 19.3355L20.0195 19.3523C19.7007 20.5589 18.3239 21.6 16.858 21.6H12.923C12.6726 21.6 12.2546 21.5622 11.8265 21.4501C11.3909 21.336 11.0019 21.1596 10.7541 20.9203Z" stroke="black" stroke-opacity="0.9"/>
<path d="M5.57064 20.4999H4.53513C3.64287 20.4999 3.07704 20.2963 2.7337 19.9765C2.39735 19.6633 2.1875 19.1567 2.1875 18.3499V8.5499C2.1875 7.74313 2.39735 7.23655 2.7337 6.9233C3.07704 6.60354 3.64287 6.3999 4.53513 6.3999H5.57064C6.4629 6.3999 7.02873 6.60354 7.37207 6.9233C7.70842 7.23655 7.91827 7.74313 7.91827 8.5499V18.3499C7.91827 19.1567 7.70842 19.6633 7.37207 19.9765C7.02873 20.2963 6.4629 20.4999 5.57064 20.4999ZM4.53513 6.8999C4.2395 6.8999 3.9757 6.91637 3.74943 6.96608C3.51965 7.01656 3.29686 7.10813 3.11735 7.28149C2.76292 7.62376 2.74075 8.1297 2.74075 8.5499V18.3499C2.74075 18.7701 2.76292 19.276 3.11735 19.6183C3.29686 19.7917 3.51965 19.8832 3.74943 19.9337C3.9757 19.9834 4.2395 19.9999 4.53513 19.9999H5.57064C5.86627 19.9999 6.13007 19.9834 6.35634 19.9337C6.58612 19.8832 6.80891 19.7917 6.98842 19.6183C7.34284 19.276 7.36501 18.7701 7.36501 18.3499V8.5499C7.36501 8.1297 7.34284 7.62376 6.98842 7.28149C6.80891 7.10813 6.58612 7.01656 6.35634 6.96608C6.13007 6.91637 5.86627 6.8999 5.57064 6.8999H4.53513Z" stroke="black" stroke-opacity="0.9"/>
</svg>
