<svg width="341" height="139" viewBox="0 0 341 139" fill="none" xmlns="http://www.w3.org/2000/svg">
<mask id="path-1-inside-1_503_1485" fill="white">
<path fill-rule="evenodd" clip-rule="evenodd" d="M0 139H326C334.284 139 341 132.284 341 124V15C341 6.71573 334.284 0 326 0H0V1H326C333.732 1 340 7.26802 340 15V124C340 131.732 333.732 138 326 138H0V139Z"/>
</mask>
<path d="M0 139H-0.5V139.5H0V139ZM0 0V-0.5H-0.5V0H0ZM0 1H-0.5V1.5H0V1ZM0 138V137.5H-0.5V138H0ZM0 139.5H326V138.5H0V139.5ZM326 139.5C334.561 139.5 341.5 132.56 341.5 124H340.5C340.5 132.008 334.008 138.5 326 138.5V139.5ZM341.5 124V15H340.5V124H341.5ZM341.5 15C341.5 6.43959 334.561 -0.5 326 -0.5V0.5C334.008 0.5 340.5 6.99187 340.5 15H341.5ZM326 -0.5H0V0.5H326V-0.5ZM-0.5 0V1H0.5V0H-0.5ZM326 0.5H0V1.5H326V0.5ZM340.5 15C340.5 6.99187 334.008 0.5 326 0.5V1.5C333.456 1.5 339.5 7.54416 339.5 15H340.5ZM340.5 124V15H339.5V124H340.5ZM326 138.5C334.008 138.5 340.5 132.008 340.5 124H339.5C339.5 131.456 333.456 137.5 326 137.5V138.5ZM0 138.5H326V137.5H0V138.5ZM-0.5 138V139H0.5V138H-0.5Z" fill="#292F79" fill-opacity="0.24" mask="url(#path-1-inside-1_503_1485)"/>
</svg>
