<svg width="23" height="24" viewBox="0 0 23 24" fill="none" xmlns="http://www.w3.org/2000/svg">
<g clip-path="url(#clip0_1_1349)">
<path d="M22.9884 12.2245C22.9884 11.2413 22.9102 10.5238 22.7408 9.77966H11.7295V14.2176H18.1929C18.0626 15.3205 17.359 16.9815 15.7952 18.0976L15.7733 18.2462L19.2548 20.9964L19.4961 21.0209C21.7113 18.9347 22.9884 15.8653 22.9884 12.2245Z" fill="#4285F4"/>
<path d="M11.729 23.9176C14.8956 23.9176 17.5539 22.8545 19.4956 21.0209L15.7947 18.0976C14.8044 18.8018 13.4752 19.2934 11.729 19.2934C8.62764 19.2934 5.99536 17.2074 5.05703 14.324L4.91949 14.3359L1.2993 17.1927L1.25195 17.3269C3.18054 21.2334 7.14203 23.9176 11.729 23.9176Z" fill="#34A853"/>
<path d="M5.05702 14.324C4.80943 13.5799 4.66614 12.7826 4.66614 11.9588C4.66614 11.1349 4.80943 10.3377 5.04399 9.5936L5.03743 9.43513L1.37187 6.53241L1.25194 6.59058C0.457072 8.21168 0.000976562 10.0321 0.000976562 11.9588C0.000976562 13.8855 0.457072 15.7058 1.25194 17.3269L5.05702 14.324Z" fill="#FBBC05"/>
<path d="M11.729 4.62403C13.9313 4.62403 15.4168 5.59402 16.2638 6.40461L19.5738 3.10928C17.541 1.1826 14.8956 0 11.729 0C7.14203 0 3.18054 2.68406 1.25195 6.59056L5.04401 9.59359C5.99536 6.7102 8.62764 4.62403 11.729 4.62403Z" fill="#EB4335"/>
</g>
<defs>
<clipPath id="clip0_1_1349">
<rect width="23" height="24" fill="white"/>
</clipPath>
</defs>
</svg>
