<svg width="19" height="21" viewBox="0 0 19 21" fill="none" xmlns="http://www.w3.org/2000/svg">
<path d="M1.5 5.1H3.27778M3.27778 5.1H17.5M3.27778 5.1V17.7C3.27778 18.1774 3.46508 18.6352 3.79848 18.9728C4.13187 19.3104 4.58406 19.5 5.05556 19.5H13.9444C14.4159 19.5 14.8681 19.3104 15.2015 18.9728C15.5349 18.6352 15.7222 18.1774 15.7222 17.7V5.1H3.27778ZM5.94444 5.1V3.3C5.94444 2.82261 6.13175 2.36477 6.46514 2.02721C6.79854 1.68964 7.25073 1.5 7.72222 1.5H11.2778C11.7493 1.5 12.2015 1.68964 12.5349 2.02721C12.8683 2.36477 13.0556 2.82261 13.0556 3.3V5.1M7.72222 9.6V15M11.2778 9.6V15" stroke="#292F79" stroke-width="3" stroke-linecap="round" stroke-linejoin="round"/>
</svg>
