<svg width="21" height="22" viewBox="0 0 21 22" fill="none" xmlns="http://www.w3.org/2000/svg">
<path d="M3.33333 8.79025C3.33273 7.41793 3.76359 6.0795 4.56606 4.96094C5.36853 3.84237 6.50274 2.99922 7.81111 2.54864C7.76044 2.23415 7.77925 1.91251 7.86622 1.60592C7.9532 1.29933 8.10628 1.01508 8.3149 0.772788C8.52352 0.530496 8.78271 0.335929 9.0746 0.202511C9.36648 0.0690926 9.6841 0 10.0056 0C10.327 0 10.6446 0.0690926 10.9365 0.202511C11.2284 0.335929 11.4876 0.530496 11.6962 0.772788C11.9048 1.01508 12.0579 1.29933 12.1449 1.60592C12.2319 1.91251 12.2507 2.23415 12.2 2.54864C13.5063 3.00107 14.6381 3.84501 15.4385 4.96342C16.2388 6.08182 16.6681 7.41927 16.6667 8.79025V15.3951L20 17.5968V18.6976H0V17.5968L3.33333 15.3951V8.79025ZM12.2222 19.7984C12.2222 20.3823 11.9881 20.9423 11.5713 21.3552C11.1546 21.768 10.5894 22 10 22C9.41063 22 8.8454 21.768 8.42865 21.3552C8.0119 20.9423 7.77778 20.3823 7.77778 19.7984H12.2222Z" fill="white"/>
<circle cx="17" cy="6" r="4" fill="#FF0000"/>
</svg>
