<svg width="30" height="30" viewBox="0 0 30 30" fill="none" xmlns="http://www.w3.org/2000/svg">
<g clip-path="url(#clip0_476_1784)">
<path d="M28.425 20.4083L25.1583 14.8916L28.3917 9.59998C28.4684 9.47388 28.5103 9.32965 28.5131 9.18204C28.5158 9.03444 28.4793 8.88876 28.4072 8.75991C28.3351 8.63105 28.2302 8.52366 28.103 8.4487C27.9758 8.37375 27.831 8.33393 27.6833 8.33331H1.66667C1.22464 8.33331 0.800716 8.50891 0.488155 8.82147C0.175595 9.13403 0 9.55795 0 9.99998L0 20C0 20.442 0.175595 20.8659 0.488155 21.1785C0.800716 21.4911 1.22464 21.6666 1.66667 21.6666H27.7083C27.8554 21.6666 27.9999 21.6277 28.127 21.5537C28.2542 21.4798 28.3595 21.3735 28.4323 21.2457C28.5051 21.1179 28.5428 20.9731 28.5415 20.826C28.5402 20.679 28.5 20.5348 28.425 20.4083ZM8.75833 17.65H7.825L5.10833 14.0333V17.6583H4.16667V12.5H5.10833L7.83333 16.125V12.5H8.76667L8.75833 17.65ZM14.0333 13.3333H11.0917V14.575H13.7583V15.4083H11.0917V16.75H14.0333V17.5833H10.15V12.5H14.025L14.0333 13.3333ZM20.9417 17.6333H20L18.7083 13.8083L17.4167 17.65H16.4833L14.8167 12.5H15.8333L16.9333 16.1916L18.2 12.5H19.2167L20.4333 16.1916L21.5417 12.5H22.5667L20.9417 17.6333Z" fill="#FFBB38"/>
</g>
<defs>
<clipPath id="clip0_476_1784">
<rect width="30" height="30" fill="white"/>
</clipPath>
</defs>
</svg>
