<svg width="374" height="279" viewBox="0 0 374 279" fill="none" xmlns="http://www.w3.org/2000/svg">
<path d="M374 244.895H0V245.082H374V244.895Z" fill="#EBEBEB"/>
<path d="M336.526 256.93H311.752V257.117H336.526V256.93Z" fill="#EBEBEB"/>
<path d="M247.753 258.965H241.253V259.152H247.753V258.965Z" fill="#EBEBEB"/>
<path d="M311.003 249.989H296.649V250.176H311.003V249.989Z" fill="#EBEBEB"/>
<path d="M71.5463 251.246H39.2402V251.433H71.5463V251.246Z" fill="#EBEBEB"/>
<path d="M82.9456 251.246H78.2107V251.433H82.9456V251.246Z" fill="#EBEBEB"/>
<path d="M168.412 254.402H98.3392V254.589H168.412V254.402Z" fill="#EBEBEB"/>
<path d="M177.276 211.534H32.8447C31.7132 211.532 30.6288 211.081 29.8294 210.281C29.0301 209.48 28.5811 208.395 28.5811 207.263V4.23368C28.5909 3.10871 29.0443 2.03305 29.8426 1.24035C30.6409 0.447647 31.7197 0.00192714 32.8447 0H177.276C178.409 0 179.495 0.449988 180.296 1.25097C181.097 2.05195 181.547 3.13832 181.547 4.27108V207.263C181.547 208.396 181.097 209.482 180.296 210.283C179.495 211.084 178.409 211.534 177.276 211.534ZM32.8447 0.149601C31.7628 0.151582 30.7259 0.582741 29.9617 1.34844C29.1974 2.11414 28.7681 3.15181 28.7681 4.23368V207.263C28.7681 208.345 29.1974 209.383 29.9617 210.148C30.7259 210.914 31.7628 211.345 32.8447 211.347H177.276C178.359 211.345 179.396 210.914 180.162 210.149C180.927 209.383 181.358 208.346 181.36 207.263V4.23368C181.358 3.15112 180.927 2.11347 180.162 1.34798C179.396 0.582498 178.359 0.151578 177.276 0.149601H32.8447Z" fill="#EBEBEB"/>
<path d="M339.076 211.534H194.637C193.505 211.532 192.42 211.082 191.619 210.281C190.818 209.481 190.368 208.395 190.366 207.263V4.23368C190.378 3.10802 190.833 2.03237 191.632 1.23988C192.432 0.447385 193.511 0.00190612 194.637 0H339.076C340.199 0.00389296 341.276 0.450482 342.073 1.24297C342.87 2.03546 343.322 3.11 343.332 4.23368V207.263C343.332 208.393 342.884 209.478 342.086 210.278C341.288 211.079 340.206 211.53 339.076 211.534ZM194.637 0.149601C193.554 0.151578 192.517 0.582498 191.751 1.34798C190.986 2.11347 190.555 3.15112 190.553 4.23368V207.263C190.555 208.346 190.986 209.383 191.751 210.149C192.517 210.914 193.554 211.345 194.637 211.347H339.076C340.158 211.345 341.196 210.914 341.961 210.149C342.727 209.383 343.158 208.346 343.16 207.263V4.23368C343.158 3.15112 342.727 2.11347 341.961 1.34798C341.196 0.582498 340.158 0.151578 339.076 0.149601H194.637Z" fill="#EBEBEB"/>
<path d="M94.704 42.06H50.0858V108.572H94.704V42.06Z" fill="#E6E6E6"/>
<path d="M94.704 108.58H95.4071L95.4071 42.0675H94.704V108.58Z" fill="#E0E0E0"/>
<path d="M92.1839 106.051V44.5883H52.6147L52.6147 106.051H92.1839Z" fill="#FAFAFA"/>
<path d="M79.8801 70.2747C84.0106 66.1443 84.0106 59.4474 79.8801 55.317C75.7496 51.1865 69.0528 51.1865 64.9224 55.317C60.7919 59.4474 60.7919 66.1443 64.9224 70.2747C69.0528 74.4052 75.7496 74.4052 79.8801 70.2747Z" fill="#F0F0F0"/>
<path d="M85.4439 79.4899H59.3462V82.1603H85.4439V79.4899Z" fill="#EBEBEB"/>
<path d="M85.4439 86.596H59.3462V89.2664H85.4439V86.596Z" fill="#EBEBEB"/>
<path d="M85.4439 93.6945H59.3462V96.3648H85.4439V93.6945Z" fill="#EBEBEB"/>
<path d="M150.774 51.6419H106.156V118.154H150.774V51.6419Z" fill="#E6E6E6"/>
<path d="M150.774 118.147H151.477V51.6344H150.774L150.774 118.147Z" fill="#E0E0E0"/>
<path d="M148.254 115.633V54.1701H108.685L108.685 115.633H148.254Z" fill="#FAFAFA"/>
<path d="M138.751 74.792C140.093 69.1069 136.572 63.4104 130.887 62.0686C125.202 60.7268 119.505 64.2477 118.163 69.9329C116.822 75.618 120.343 81.3145 126.028 82.6563C131.713 83.9982 137.409 80.4772 138.751 74.792Z" fill="#F0F0F0"/>
<path d="M141.514 89.0718H115.416V91.7422H141.514V89.0718Z" fill="#EBEBEB"/>
<path d="M141.514 96.1704H115.416V98.8407H141.514V96.1704Z" fill="#EBEBEB"/>
<path d="M141.514 103.269H115.416V105.939H141.514V103.269Z" fill="#EBEBEB"/>
<path d="M308.124 145.86H113.128V147.939H308.124V145.86Z" fill="#EBEBEB"/>
<path d="M308.116 147.939H323.906V145.86H308.116V147.939Z" fill="#E0E0E0"/>
<path d="M308.117 147.939H115.798V244.895H308.117V147.939Z" fill="#F5F5F5"/>
<path d="M158.935 147.939H157.858V244.895H158.935V147.939Z" fill="#E6E6E6"/>
<path d="M209.799 167.657H208.722V244.895H209.799V167.657Z" fill="#E6E6E6"/>
<path d="M158.396 225.716V224.639H115.805V225.716H158.396Z" fill="#E6E6E6"/>
<path d="M158.396 206.538V205.46H115.805V206.538H158.396Z" fill="#E6E6E6"/>
<path d="M158.396 187.359V186.282H115.805V187.359H158.396Z" fill="#E6E6E6"/>
<path d="M308.123 168.195V167.118H115.805V168.195H308.123Z" fill="#E6E6E6"/>
<path d="M308.124 244.895H321.939V147.939H308.124V244.895Z" fill="#EBEBEB"/>
<path d="M311.37 16.2391H243.302V113.165H311.37V16.2391Z" fill="#FAFAFA"/>
<path d="M312.118 17.4059H242.554C242.401 17.4059 242.249 17.3757 242.108 17.317C241.967 17.2583 241.839 17.1722 241.731 17.0637C241.623 16.9553 241.538 16.8266 241.48 16.685C241.422 16.5435 241.393 16.392 241.394 16.2391C241.393 16.0865 241.422 15.9353 241.48 15.7942C241.538 15.6531 241.624 15.5249 241.732 15.417C241.839 15.3092 241.968 15.2238 242.109 15.1659C242.25 15.108 242.401 15.0787 242.554 15.0797H312.118C312.27 15.0787 312.422 15.1079 312.564 15.1658C312.705 15.2236 312.834 15.3088 312.942 15.4166C313.051 15.5244 313.137 15.6525 313.195 15.7937C313.254 15.9348 313.284 16.0862 313.284 16.2391C313.284 16.5485 313.161 16.8453 312.943 17.0642C312.724 17.283 312.427 17.4059 312.118 17.4059Z" fill="#EBEBEB"/>
<path d="M312.118 114.332H242.554C242.401 114.332 242.249 114.302 242.108 114.243C241.967 114.184 241.839 114.098 241.731 113.99C241.623 113.881 241.538 113.752 241.48 113.611C241.422 113.469 241.393 113.318 241.394 113.165C241.393 113.012 241.422 112.861 241.48 112.72C241.538 112.579 241.624 112.451 241.732 112.343C241.839 112.235 241.968 112.15 242.109 112.092C242.25 112.034 242.401 112.004 242.554 112.005H312.118C312.27 112.004 312.422 112.034 312.564 112.092C312.705 112.149 312.834 112.235 312.942 112.342C313.051 112.45 313.137 112.578 313.195 112.719C313.254 112.861 313.284 113.012 313.284 113.165C313.284 113.474 313.161 113.771 312.943 113.99C312.724 114.209 312.427 114.332 312.118 114.332Z" fill="#EBEBEB"/>
<path d="M279.886 40.175H274.785C270.41 40.175 266.863 43.7215 266.863 48.0964V64.0437C266.863 68.4185 270.41 71.965 274.785 71.965H279.886C284.261 71.965 287.807 68.4185 287.807 64.0437V48.0964C287.807 43.7215 284.261 40.175 279.886 40.175Z" fill="#F0F0F0"/>
<path d="M271.351 104.256C270.161 104.256 269.02 103.783 268.178 102.942C267.336 102.1 266.863 100.958 266.863 99.7681V65.8613C266.863 64.671 267.336 63.5295 268.178 62.6878C269.02 61.8461 270.161 61.3733 271.351 61.3733C272.542 61.3733 273.683 61.8461 274.525 62.6878C275.367 63.5295 275.839 64.671 275.839 65.8613V99.7681C275.839 100.958 275.367 102.1 274.525 102.942C273.683 103.783 272.542 104.256 271.351 104.256Z" fill="#F0F0F0"/>
<path d="M262.6 44.0272H262.593C261.114 44.0272 259.915 45.2261 259.915 46.705V66.9609C259.915 68.4398 261.114 69.6387 262.593 69.6387H262.6C264.079 69.6387 265.278 68.4398 265.278 66.9609V46.705C265.278 45.2261 264.079 44.0272 262.6 44.0272Z" fill="#F0F0F0"/>
<path d="M292.079 69.6462C291.369 69.6422 290.689 69.3578 290.187 68.8549C289.686 68.3519 289.403 67.6712 289.401 66.9609V46.7125C289.403 46.0022 289.686 45.3215 290.187 44.8185C290.689 44.3156 291.369 44.0311 292.079 44.0272C292.79 44.0311 293.471 44.3153 293.974 44.818C294.477 45.3208 294.761 46.0015 294.765 46.7125V66.9609C294.761 67.6718 294.477 68.3526 293.974 68.8553C293.471 69.3581 292.79 69.6423 292.079 69.6462Z" fill="#F0F0F0"/>
<path d="M283.32 104.256C282.13 104.256 280.988 103.783 280.147 102.942C279.305 102.1 278.832 100.958 278.832 99.7681V65.8613C278.832 64.671 279.305 63.5295 280.147 62.6878C280.988 61.8461 282.13 61.3733 283.32 61.3733C284.511 61.3733 285.652 61.8461 286.494 62.6878C287.335 63.5295 287.808 64.671 287.808 65.8613V99.7681C287.808 100.958 287.335 102.1 286.494 102.942C285.652 103.783 284.511 104.256 283.32 104.256Z" fill="#F0F0F0"/>
<path d="M282.007 35.2511C284.587 32.6718 284.587 28.4898 282.007 25.9105C279.428 23.3311 275.246 23.3311 272.667 25.9105C270.087 28.4898 270.087 32.6718 272.667 35.2511C275.246 37.8305 279.428 37.8305 282.007 35.2511Z" fill="#F0F0F0"/>
<path d="M285.108 126.913H253.774V145.86H285.108V126.913Z" fill="#F5F5F5"/>
<path d="M285.107 145.86H292.827V126.913H285.107V145.86Z" fill="#EBEBEB"/>
<path d="M275.428 134.573H271.247V130.399H267.634V134.573H263.46V138.193H267.634V142.367H271.247V138.193H275.428V134.573Z" fill="white"/>
<path d="M226.337 145.86H223.345V112.342C223.345 110.858 223.053 109.388 222.485 108.017C221.917 106.646 221.085 105.4 220.035 104.35C218.986 103.301 217.74 102.468 216.368 101.9C214.997 101.332 213.527 101.04 212.043 101.04C210.559 101.04 209.089 101.332 207.718 101.9C206.347 102.468 205.101 103.301 204.051 104.35C203.002 105.4 202.169 106.646 201.601 108.017C201.033 109.388 200.741 110.858 200.741 112.342H197.749C197.749 108.551 199.255 104.915 201.936 102.234C204.616 99.5538 208.252 98.0478 212.043 98.0478C215.834 98.0478 219.47 99.5538 222.151 102.234C224.831 104.915 226.337 108.551 226.337 112.342V145.86Z" fill="#EBEBEB"/>
<path d="M231.909 140.953H228.917V145.86H231.909V140.953Z" fill="#EBEBEB"/>
<path d="M136.757 144.117H133.765V145.86H136.757V144.117Z" fill="#EBEBEB"/>
<path d="M131.454 144.117H128.462V145.86H131.454V144.117Z" fill="#EBEBEB"/>
<path d="M103.082 190.194H64.1341V244.895H103.082V190.194Z" fill="#F5F5F5"/>
<path d="M101.563 188.825H65.6441V190.201H101.563V188.825Z" fill="#E6E6E6"/>
<path d="M76.4686 176.483H90.7405C94.0138 176.483 97.153 177.783 99.4676 180.098C101.782 182.412 103.082 185.552 103.082 188.825H64.1341C64.1331 187.205 64.4514 185.6 65.0709 184.103C65.6903 182.605 66.5987 181.245 67.7442 180.098C68.8896 178.952 70.2497 178.043 71.7467 177.423C73.2437 176.802 74.8482 176.483 76.4686 176.483Z" fill="#F5F5F5"/>
<path d="M69.31 238.896H65.1885C63.6015 238.896 62.0794 239.527 60.9572 240.649C59.835 241.771 59.2045 243.293 59.2045 244.88H75.3314C75.3314 244.091 75.1754 243.31 74.8724 242.582C74.5693 241.853 74.1252 241.192 73.5655 240.636C73.0059 240.079 72.3418 239.639 71.6115 239.341C70.8811 239.042 70.099 238.891 69.31 238.896Z" fill="#E6E6E6"/>
<path d="M187 278.675C267.097 278.675 332.03 274.884 332.03 270.208C332.03 265.531 267.097 261.74 187 261.74C106.902 261.74 41.9701 265.531 41.9701 270.208C41.9701 274.884 106.902 278.675 187 278.675Z" fill="#F5F5F5"/>
<path d="M143.399 68.1652L140.003 64.0063L135.261 66.9983C135.261 66.9983 137.43 69.3171 140.063 72.556L143.399 68.1652Z" fill="#B55B52"/>
<path d="M185.743 68.5018C185.549 68.9207 185.414 69.175 185.25 69.4966L184.779 70.3942C184.457 70.9852 184.143 71.5686 183.806 72.1446C183.148 73.2915 182.457 74.4185 181.734 75.5255C180.28 77.7923 178.676 79.9588 176.932 82.0107C175.084 84.2004 173.002 86.1819 170.724 87.9199C169.463 88.8514 168.121 89.6675 166.714 90.3584L165.585 90.8595L164.396 91.3008C163.999 91.443 163.573 91.5477 163.154 91.6674L162.84 91.7571L162.391 91.8544C162.062 91.9217 161.74 91.9666 161.426 92.004C160.281 92.1161 159.127 92.0556 158 91.8244C157.077 91.6432 156.173 91.3752 155.3 91.0241C153.844 90.4279 152.451 89.6888 151.141 88.8175C148.874 87.2889 146.74 85.5724 144.761 83.6862C142.838 81.8985 141.058 80.0509 139.352 78.166C138.5 77.216 137.655 76.2735 136.832 75.3011C136.009 74.3287 135.224 73.3937 134.371 72.3091L142.644 65.8913C143.287 66.7066 144.057 67.6416 144.798 68.5018C145.538 69.362 146.294 70.2446 147.087 71.0899C148.658 72.7729 150.266 74.396 151.919 75.8846C153.477 77.3146 155.156 78.606 156.938 79.7442C157.647 80.1979 158.398 80.5812 159.182 80.8887C159.825 81.1355 160.304 81.128 160.162 81.0906H160.087C160.027 81.0906 160.087 81.0906 160.087 81.0906L160.214 81.0532C160.379 80.9859 160.536 80.9485 160.708 80.8812L161.209 80.6643L161.733 80.4025C162.48 79.9881 163.191 79.5101 163.857 78.9738C165.386 77.7019 166.764 76.2588 167.963 74.6728C169.276 72.9648 170.468 71.1678 171.531 69.2947C172.08 68.3372 172.596 67.3649 173.08 66.3775C173.327 65.8913 173.566 65.3976 173.828 64.8815L174.157 64.1335C174.254 63.9091 174.381 63.6174 174.434 63.4827L185.743 68.5018Z" fill="#407BFF"/>
<path opacity="0.8" d="M185.743 68.5018C185.549 68.9207 185.414 69.175 185.25 69.4966L184.779 70.3942C184.457 70.9852 184.143 71.5686 183.806 72.1446C183.148 73.2915 182.457 74.4185 181.734 75.5255C180.28 77.7923 178.676 79.9588 176.932 82.0107C175.084 84.2004 173.002 86.1819 170.724 87.9199C169.463 88.8514 168.121 89.6675 166.714 90.3584L165.585 90.8595L164.396 91.3008C163.999 91.443 163.573 91.5477 163.154 91.6674L162.84 91.7571L162.391 91.8544C162.062 91.9217 161.74 91.9666 161.426 92.004C160.281 92.1161 159.127 92.0556 158 91.8244C157.077 91.6432 156.173 91.3752 155.3 91.0241C153.844 90.4279 152.451 89.6888 151.141 88.8175C148.874 87.2889 146.74 85.5724 144.761 83.6862C142.838 81.8985 141.058 80.0509 139.352 78.166C138.5 77.216 137.655 76.2735 136.832 75.3011C136.009 74.3287 135.224 73.3937 134.371 72.3091L142.644 65.8913C143.287 66.7066 144.057 67.6416 144.798 68.5018C145.538 69.362 146.294 70.2446 147.087 71.0899C148.658 72.7729 150.266 74.396 151.919 75.8846C153.477 77.3146 155.156 78.606 156.938 79.7442C157.647 80.1979 158.398 80.5812 159.182 80.8887C159.825 81.1355 160.304 81.128 160.162 81.0906H160.087C160.027 81.0906 160.087 81.0906 160.087 81.0906L160.214 81.0532C160.379 80.9859 160.536 80.9485 160.708 80.8812L161.209 80.6643L161.733 80.4025C162.48 79.9881 163.191 79.5101 163.857 78.9738C165.386 77.7019 166.764 76.2588 167.963 74.6728C169.276 72.9648 170.468 71.1678 171.531 69.2947C172.08 68.3372 172.596 67.3649 173.08 66.3775C173.327 65.8913 173.566 65.3976 173.828 64.8815L174.157 64.1335C174.254 63.9091 174.381 63.6174 174.434 63.4827L185.743 68.5018Z" fill="white"/>
<path d="M184.083 188.047H208.229L199.073 142.284H187.248L184.083 188.047Z" fill="#407BFF"/>
<path opacity="0.6" d="M184.083 188.047H208.229L199.073 142.284H187.248L184.083 188.047Z" fill="white"/>
<path d="M189.259 263.371H183.103L182.841 249.121H188.997L189.259 263.371Z" fill="#B55B52"/>
<path d="M223.345 263.371H217.189L214.444 249.121H220.6L223.345 263.371Z" fill="#B55B52"/>
<path d="M216.77 262.66H223.652C223.773 262.659 223.891 262.701 223.985 262.777C224.079 262.853 224.144 262.96 224.168 263.079L225.245 268.547C225.269 268.682 225.263 268.82 225.228 268.952C225.192 269.085 225.128 269.207 225.039 269.312C224.95 269.416 224.84 269.5 224.715 269.556C224.59 269.613 224.454 269.641 224.317 269.639C221.909 269.601 220.742 269.459 217.698 269.459C215.828 269.459 211.968 269.654 209.387 269.654C206.807 269.654 206.53 267.103 207.592 266.871C212.357 265.832 214.182 264.403 215.73 263.034C216.021 262.788 216.39 262.655 216.77 262.66Z" fill="#181F23"/>
<path d="M183.163 262.66H189.895C190.016 262.66 190.132 262.701 190.225 262.778C190.318 262.854 190.381 262.961 190.404 263.079L191.489 268.532C191.514 268.666 191.509 268.804 191.475 268.936C191.441 269.068 191.378 269.191 191.291 269.296C191.204 269.401 191.095 269.486 190.971 269.544C190.847 269.602 190.713 269.632 190.576 269.631C188.153 269.587 184.652 269.444 181.6 269.444C178.04 269.444 177.748 269.639 173.574 269.639C171.046 269.639 170.41 267.088 171.472 266.856C176.312 265.802 177.456 265.689 181.675 263.116C182.12 262.832 182.635 262.674 183.163 262.66Z" fill="#181F23"/>
<path d="M137.707 62.5851L133.728 62.5252L132.98 67.6565C135.514 68.1195 138.126 67.8603 140.52 66.9085L140.452 65.2405C140.422 64.5305 140.12 63.8594 139.609 63.3654C139.099 62.8714 138.418 62.5921 137.707 62.5851Z" fill="#B55B52"/>
<path d="M127.504 62.7646L128.275 66.0034L132.965 67.6565L133.728 62.5252L127.504 62.7646Z" fill="#B55B52"/>
<path opacity="0.2" d="M182.841 249.129L182.976 256.474H189.132L188.997 249.129H182.841Z" fill="black"/>
<path opacity="0.2" d="M220.6 249.129H214.444L215.865 256.474H222.021L220.6 249.129Z" fill="black"/>
<path d="M175.578 64.6795C173.873 71.2021 170.813 87.6581 174.157 113.831H207.069C207.391 109.245 205.296 88.5033 208.999 66.9086C209.155 66.0294 209.129 65.1276 208.923 64.2588C208.717 63.39 208.335 62.5727 207.801 61.8571C207.267 61.1415 206.592 60.543 205.818 60.0983C205.043 59.6536 204.186 59.3722 203.299 59.2715C202.02 59.1294 200.666 59.0097 199.327 58.9424C194.727 58.8145 190.124 58.9643 185.542 59.3912C183.587 59.5777 181.653 59.9331 179.759 60.4533C178.752 60.7269 177.835 61.2618 177.1 62.0039C176.366 62.7461 175.841 63.6691 175.578 64.6795Z" fill="white"/>
<path d="M197.817 45.8597C196.822 50.3477 196.246 55.9353 199.313 58.9423C199.313 58.9423 197.39 63.5051 189.028 63.5051C181.383 63.5051 185.288 58.9423 185.288 58.9423C190.337 57.7455 190.232 51.5371 189.439 48.0364L197.817 45.8597Z" fill="#B55B52"/>
<path d="M188.646 62.8842L186.836 64.8814C186.772 64.9505 186.728 65.0356 186.708 65.1278C186.688 65.2199 186.694 65.3157 186.724 65.405L187.3 67.1703C187.332 67.2693 187.393 67.3561 187.476 67.4189C187.559 67.4818 187.659 67.5177 187.763 67.5218L189.716 67.6191C189.808 67.623 189.9 67.6031 189.983 67.5612C190.065 67.5192 190.136 67.4567 190.187 67.3797L191.354 65.6668C191.424 65.5743 191.462 65.4613 191.462 65.3451C191.462 65.229 191.424 65.116 191.354 65.0235L189.469 62.8767C189.419 62.8149 189.356 62.7652 189.285 62.7313C189.213 62.6973 189.135 62.68 189.056 62.6808C188.976 62.6815 188.898 62.7002 188.828 62.7354C188.757 62.7707 188.695 62.8215 188.646 62.8842Z" fill="#292F79"/>
<path d="M188.19 67.5069C188.19 67.5069 185.198 89.528 185.131 93.3653C185.17 96.9891 185.739 100.588 186.821 104.047C186.821 104.047 188.878 100.157 189.23 93.2007C189.581 86.2443 189.155 71.4115 189.312 67.5069H188.19Z" fill="#292F79"/>
<path opacity="0.2" d="M189.484 48.0439C189.955 50.0934 190.18 53.0705 189.267 55.4341C189.865 55.6959 192.334 54.746 193.359 54.0952C195.64 52.6441 196.523 51.2229 197.36 48.1935C197.495 47.3931 197.645 46.6152 197.817 45.8597L189.484 48.0439Z" fill="black"/>
<path d="M181.675 43.6682C181.95 44.368 182.363 45.0057 182.888 45.5439C183.414 46.0821 184.041 46.51 184.734 46.8023C186.597 47.5503 187.801 45.9197 187.502 44.0123C187.24 42.2994 185.946 39.831 183.971 39.8833C183.536 39.9079 183.114 40.0381 182.74 40.2625C182.366 40.4869 182.053 40.7989 181.827 41.1715C181.601 41.544 181.469 41.9661 181.442 42.401C181.416 42.836 181.496 43.2709 181.675 43.6682Z" fill="#B55B52"/>
<path opacity="0.2" d="M181.675 43.6682C181.95 44.368 182.363 45.0057 182.888 45.5439C183.414 46.0821 184.041 46.51 184.734 46.8023C186.597 47.5503 187.801 45.9197 187.502 44.0123C187.24 42.2994 185.946 39.831 183.971 39.8833C183.536 39.9079 183.114 40.0381 182.74 40.2625C182.366 40.4869 182.053 40.7989 181.827 41.1715C181.601 41.544 181.469 41.9661 181.442 42.401C181.416 42.836 181.496 43.2709 181.675 43.6682Z" fill="black"/>
<path d="M189.244 36.9287C188.892 39.5616 187.247 41.5214 185.571 41.297C183.896 41.0726 182.826 38.7538 183.185 36.1133C183.544 33.4729 185.182 31.5131 186.858 31.7375C188.533 31.9619 189.618 34.2882 189.244 36.9287Z" fill="#263238"/>
<path d="M200.763 40.0254C199.267 46.0094 198.684 49.5699 195.086 52.158C189.685 56.0551 182.841 52.0458 182.557 45.7775C182.295 40.1376 184.801 31.3112 191.084 29.89C192.462 29.5713 193.899 29.6167 195.253 30.0218C196.608 30.4269 197.834 31.1777 198.811 32.2004C199.787 33.2231 200.481 34.4823 200.823 35.8544C201.166 37.2264 201.145 38.6639 200.763 40.0254Z" fill="#B55B52"/>
<path d="M190.83 27.8031C187.247 28.5511 183.283 31.4758 186.701 33.6076C190.12 35.7394 197.817 36.0685 197.817 36.0685C197.817 36.0685 195.273 42.0525 198.752 45.1417C199.911 44.5658 197.435 49.7868 197.435 49.7868C198.709 49.3481 199.775 48.4526 200.427 47.2735C202.507 46.7424 208.655 36.8015 204.556 33.9891C203.778 28.1921 195.64 26.7634 190.83 27.8031Z" fill="#263238"/>
<path d="M199.476 43.6307H199.394L194.008 41.1623C193.982 41.1547 193.957 41.1413 193.936 41.1232C193.914 41.1052 193.897 41.0827 193.886 41.0575C193.874 41.0322 193.868 41.0047 193.867 40.9769C193.867 40.949 193.873 40.9214 193.884 40.896C193.896 40.8706 193.912 40.8479 193.933 40.8294C193.954 40.811 193.979 40.7973 194.005 40.7892C194.032 40.7811 194.06 40.7789 194.088 40.7826C194.115 40.7863 194.142 40.7959 194.166 40.8108L199.559 43.2792C199.605 43.3004 199.641 43.3389 199.659 43.3865C199.677 43.434 199.676 43.4868 199.656 43.5335C199.638 43.5647 199.612 43.5904 199.58 43.6076C199.548 43.6247 199.512 43.6327 199.476 43.6307Z" fill="white"/>
<path d="M202.207 47.1239C201.173 48.2695 199.731 48.9649 198.19 49.0613C196.163 49.166 195.64 47.2287 196.612 45.5382C197.487 44.0422 199.604 42.1273 201.429 42.8229C203.254 43.5186 203.456 45.7102 202.207 47.1239Z" fill="#B55B52"/>
<path d="M174.157 113.831C174.157 113.831 172.183 159.833 172.392 178.6C172.609 198.115 180.725 255.045 180.725 255.045H191.144C191.144 255.045 190.209 199.252 191.144 180.088C192.162 159.189 195.797 113.831 195.797 113.831H174.157Z" fill="#292F79"/>
<path d="M191.63 250.445C191.683 250.445 191.825 255.262 191.825 255.262H179.812L179.124 250.026L191.63 250.445Z" fill="#181F23"/>
<path opacity="0.2" d="M188.257 126.008C187.898 148.837 188.93 162.705 191.481 173.88C192.109 162.989 193.134 148.59 194.039 136.629L188.257 126.008Z" fill="black"/>
<path d="M185.834 113.831C185.834 113.831 191.668 160.85 195.064 178.465C198.804 197.756 213.016 255.045 213.016 255.045H224.288C224.288 255.045 215.395 199.319 213.465 180.245C211.378 159.518 207.055 113.861 207.055 113.861L185.834 113.831Z" fill="#292F79"/>
<path d="M224.019 250.7C224.071 250.7 224.857 255.262 224.857 255.262H212.47L211.109 250.236L224.019 250.7Z" fill="#181F23"/>
<path d="M191.406 40.1825C191.308 40.6762 190.979 41.0278 190.658 40.9754C190.336 40.923 190.157 40.4817 190.246 39.988C190.336 39.4944 190.673 39.1428 190.994 39.1952C191.316 39.2475 191.488 39.6888 191.406 40.1825Z" fill="#263238"/>
<path d="M185.369 38.7613C185.28 39.255 184.943 39.6065 184.621 39.5542C184.3 39.5018 184.12 39.0605 184.21 38.5668C184.3 38.0731 184.636 37.7216 184.958 37.7739C185.28 37.8263 185.459 38.2676 185.369 38.7613Z" fill="#263238"/>
<path d="M187.883 39.9955C186.859 41.2882 185.667 42.4378 184.337 43.4139C184.589 43.7414 184.91 44.0092 185.277 44.198C185.644 44.3869 186.049 44.492 186.462 44.506L187.883 39.9955Z" fill="#A02724"/>
<path d="M187.898 46.0394C187.861 46.0305 187.828 46.0077 187.808 45.9757C187.787 45.9437 187.779 45.9049 187.786 45.8674C187.793 45.8289 187.815 45.7947 187.847 45.7724C187.879 45.75 187.919 45.7411 187.958 45.7477C188.565 45.8591 189.19 45.8278 189.783 45.6565C190.376 45.4852 190.922 45.1784 191.376 44.7603C191.402 44.7325 191.438 44.7162 191.476 44.7148C191.513 44.7134 191.55 44.7271 191.578 44.7528C191.606 44.7786 191.622 44.8144 191.624 44.8523C191.625 44.8901 191.611 44.927 191.586 44.9548C191.101 45.4153 190.514 45.7538 189.873 45.9424C189.231 46.131 188.555 46.1642 187.898 46.0394Z" fill="#263238"/>
<path d="M194.331 38.5817C194.287 38.5711 194.246 38.5499 194.212 38.5199C194.178 38.4899 194.152 38.452 194.137 38.4096C194.018 38.0717 193.82 37.7671 193.56 37.5211C193.3 37.2752 192.985 37.0951 192.641 36.9959C192.565 36.9797 192.5 36.9345 192.457 36.8701C192.415 36.8056 192.401 36.7272 192.416 36.6518C192.432 36.5762 192.477 36.5098 192.541 36.4666C192.606 36.4233 192.684 36.4066 192.76 36.42C193.206 36.5296 193.618 36.7483 193.959 37.0564C194.3 37.3645 194.559 37.7524 194.712 38.1852C194.737 38.2588 194.734 38.3391 194.702 38.4099C194.67 38.4807 194.612 38.5367 194.54 38.5667C194.475 38.5968 194.4 38.6022 194.331 38.5817Z" fill="#263238"/>
<path d="M183.821 36.4051C183.779 36.396 183.74 36.3752 183.709 36.3452C183.657 36.2897 183.627 36.2161 183.627 36.1395C183.627 36.063 183.657 35.9894 183.709 35.9338C183.999 35.5695 184.369 35.2777 184.791 35.0816C185.213 34.8856 185.675 34.7906 186.14 34.8044C186.178 34.809 186.214 34.821 186.247 34.8397C186.279 34.8584 186.308 34.8835 186.331 34.9134C186.354 34.9434 186.371 34.9776 186.38 35.0141C186.39 35.0506 186.392 35.0886 186.387 35.126C186.383 35.1644 186.372 35.2016 186.354 35.2356C186.336 35.2696 186.311 35.2997 186.281 35.324C186.251 35.3484 186.217 35.3665 186.18 35.3775C186.143 35.3884 186.104 35.3919 186.065 35.3878C185.698 35.3799 185.333 35.4591 185.001 35.619C184.67 35.7789 184.381 36.0149 184.158 36.3078C184.119 36.3565 184.065 36.3919 184.005 36.4093C183.945 36.4266 183.881 36.4252 183.821 36.4051Z" fill="#263238"/>
<path d="M191.293 43.6831C191.146 43.6816 190.998 43.6691 190.852 43.6457C190.502 43.5791 190.168 43.4436 189.87 43.2472C189.572 43.0507 189.316 42.7972 189.117 42.5013C188.862 42.1207 188.684 41.6936 188.594 41.2444C188.504 40.7952 188.504 40.3326 188.593 39.8833C188.694 39.065 189.112 38.3188 189.756 37.8044C190.401 37.29 191.221 37.0482 192.041 37.1306C192.748 37.2676 193.372 37.6791 193.777 38.2751C194.289 39.0449 194.477 39.9855 194.3 40.8931C194.198 41.6337 193.843 42.3162 193.295 42.8248C192.747 43.3333 192.04 43.6366 191.293 43.6831ZM191.593 37.4822C190.938 37.5285 190.32 37.7995 189.843 38.2494C189.366 38.6993 189.059 39.3003 188.975 39.9506C188.814 40.7582 188.978 41.5966 189.431 42.2843C189.603 42.5383 189.824 42.7556 190.081 42.9238C190.338 43.092 190.625 43.2077 190.927 43.2642C191.645 43.3294 192.361 43.1107 192.92 42.6549C193.479 42.1992 193.838 41.5426 193.919 40.8258C194.077 40.0171 193.91 39.1787 193.455 38.492C193.283 38.2375 193.063 38.0197 192.806 37.8515C192.549 37.6833 192.261 37.5679 191.959 37.5121C191.838 37.4919 191.715 37.4818 191.593 37.4822Z" fill="white"/>
<path d="M188.78 40.1076C188.75 40.1073 188.719 40.0997 188.692 40.0854C188.665 40.0711 188.641 40.0505 188.623 40.0253C188.502 39.78 188.295 39.5876 188.041 39.4842C187.788 39.3809 187.505 39.3738 187.247 39.4643C187.199 39.4822 187.146 39.4814 187.099 39.4619C187.052 39.4425 187.014 39.4059 186.993 39.3596C186.972 39.3129 186.971 39.2601 186.989 39.2126C187.008 39.165 187.044 39.1265 187.09 39.1053C187.432 38.9837 187.807 38.9877 188.146 39.1164C188.486 39.2452 188.769 39.4904 188.945 39.8084C188.959 39.83 188.968 39.8541 188.973 39.8793C188.977 39.9046 188.977 39.9305 188.971 39.9555C188.965 39.9805 188.955 40.0042 188.94 40.0252C188.926 40.0461 188.907 40.064 188.885 40.0777C188.854 40.0987 188.818 40.1092 188.78 40.1076Z" fill="white"/>
<path d="M184.359 42.1048C184.209 42.1036 184.059 42.0911 183.911 42.0674C183.56 42.0008 183.226 41.8653 182.928 41.6689C182.631 41.4724 182.375 41.2189 182.175 40.923C181.663 40.1531 181.475 39.2125 181.652 38.305C181.753 37.4872 182.171 36.7418 182.815 36.2286C183.46 35.7154 184.28 35.4753 185.1 35.5598C185.451 35.6236 185.785 35.757 186.083 35.9523C186.381 36.1476 186.637 36.4008 186.835 36.6968C187.348 37.4692 187.536 38.4123 187.359 39.3222C187.257 40.0609 186.902 40.7416 186.356 41.2487C185.809 41.7559 185.104 42.0583 184.359 42.1048ZM184.651 35.9039C183.997 35.9502 183.379 36.2212 182.902 36.6711C182.425 37.121 182.118 37.722 182.033 38.3723C181.953 38.7727 181.953 39.1849 182.033 39.5854C182.112 39.9858 182.27 40.3667 182.497 40.706C182.669 40.9606 182.889 41.1783 183.146 41.3465C183.403 41.5148 183.691 41.6302 183.993 41.6859C184.711 41.7511 185.427 41.5324 185.986 41.0766C186.545 40.6209 186.904 39.9643 186.985 39.2474C187.146 38.4388 186.979 37.5995 186.521 36.9137C186.172 36.402 185.634 36.0496 185.025 35.9338C184.902 35.9131 184.776 35.9031 184.651 35.9039Z" fill="white"/>
<path d="M214.677 263.73C214.262 263.763 213.848 263.655 213.502 263.423C213.399 263.33 213.319 263.213 213.27 263.083C213.22 262.953 213.202 262.813 213.218 262.675C213.222 262.588 213.248 262.504 213.294 262.431C213.34 262.358 213.404 262.297 213.48 262.256C214.16 261.912 216.12 263.131 216.345 263.266C216.369 263.281 216.389 263.304 216.399 263.331C216.41 263.358 216.412 263.387 216.404 263.415C216.4 263.445 216.387 263.472 216.367 263.493C216.347 263.515 216.321 263.529 216.292 263.535C215.763 263.661 215.221 263.726 214.677 263.73ZM213.794 262.458C213.73 262.457 213.666 262.47 213.607 262.495C213.576 262.512 213.551 262.537 213.534 262.568C213.517 262.598 213.508 262.633 213.51 262.667C213.494 262.765 213.503 262.864 213.536 262.957C213.569 263.049 213.624 263.133 213.697 263.199C214.026 263.483 214.826 263.52 215.881 263.311C215.257 262.896 214.558 262.606 213.824 262.458H213.794Z" fill="#407BFF"/>
<path d="M216.292 263.52C216.27 263.528 216.247 263.528 216.225 263.52C215.597 263.176 214.392 261.83 214.542 261.142C214.567 261.035 214.627 260.939 214.712 260.87C214.797 260.801 214.903 260.762 215.013 260.76C215.124 260.746 215.237 260.755 215.344 260.787C215.451 260.82 215.55 260.874 215.634 260.947C216.33 261.531 216.434 263.303 216.442 263.386C216.437 263.425 216.42 263.461 216.393 263.489C216.366 263.518 216.331 263.536 216.292 263.543V263.52ZM215.11 261.052H215.043C214.856 261.052 214.834 261.157 214.826 261.194C214.744 261.598 215.499 262.623 216.12 263.101C216.094 262.404 215.856 261.731 215.439 261.172C215.348 261.093 215.231 261.051 215.11 261.052Z" fill="#407BFF"/>
<path d="M180.583 263.737C180.055 263.787 179.526 263.652 179.087 263.356C178.988 263.268 178.913 263.157 178.869 263.033C178.824 262.909 178.812 262.775 178.833 262.645C178.837 262.566 178.863 262.489 178.906 262.422C178.949 262.355 179.009 262.301 179.079 262.264C179.827 261.837 182.281 263.094 182.558 263.244C182.585 263.257 182.608 263.279 182.622 263.306C182.636 263.334 182.641 263.365 182.636 263.395C182.631 263.425 182.616 263.453 182.594 263.475C182.572 263.496 182.543 263.509 182.513 263.513C181.878 263.647 181.232 263.722 180.583 263.737ZM179.521 262.458C179.426 262.457 179.332 262.475 179.244 262.511C179.216 262.526 179.194 262.549 179.178 262.577C179.162 262.605 179.154 262.636 179.154 262.668C179.139 262.754 179.146 262.842 179.175 262.925C179.203 263.007 179.253 263.081 179.319 263.139C179.685 263.475 180.695 263.535 182.064 263.303C181.27 262.879 180.41 262.594 179.521 262.458Z" fill="#407BFF"/>
<path d="M182.512 263.52H182.452C181.704 263.184 180.283 261.86 180.41 261.157C180.41 260.999 180.56 260.79 180.964 260.753C181.107 260.735 181.252 260.748 181.39 260.791C181.528 260.833 181.656 260.904 181.764 260.999C182.512 261.643 182.654 263.303 182.662 263.371C182.662 263.396 182.657 263.421 182.647 263.445C182.637 263.468 182.621 263.489 182.602 263.505C182.573 263.517 182.543 263.522 182.512 263.52ZM181.053 261.052H180.964C180.702 261.052 180.679 261.179 180.672 261.216C180.597 261.628 181.57 262.675 182.318 263.131C182.271 262.436 182.01 261.772 181.57 261.231C181.426 261.109 181.242 261.044 181.053 261.052Z" fill="#407BFF"/>
<path d="M199.716 58.5309L206.822 59.3836C208 59.5235 209.083 60.1009 209.856 61.0013C210.629 61.9017 211.036 63.0596 210.996 64.2456C210.637 75.3235 209.171 90.5453 210.345 113.831C210.936 125.574 219.141 189.341 219.141 189.341L202.977 192.176C195.259 167.672 189.849 142.499 186.82 116.987C185.645 105.9 185.605 94.7217 186.701 83.6263L199.716 58.5309Z" fill="#407BFF"/>
<path opacity="0.8" d="M199.716 58.5309L206.822 59.3836C208 59.5235 209.083 60.1009 209.856 61.0013C210.629 61.9017 211.036 63.0596 210.996 64.2456C210.637 75.3235 209.171 90.5453 210.345 113.831C210.936 125.574 219.141 189.341 219.141 189.341L202.977 192.176C195.259 167.672 189.849 142.499 186.82 116.987C185.645 105.9 185.605 94.7217 186.701 83.6263L199.716 58.5309Z" fill="white"/>
<path opacity="0.2" d="M205.521 72.6681C205.521 74.3287 206.792 82.7811 209.941 88.6155C210.031 84.6361 210.173 81.0009 210.338 77.6648L205.521 72.6681Z" fill="#407BFF"/>
<path opacity="0.2" d="M174.935 71.1872C174.023 72.93 171.39 80.3202 170.051 88.3912C170.664 87.9648 171.248 87.5235 171.809 87.0747C173.876 85.3577 175.775 83.4466 177.478 81.3674L177.808 80.9635L174.935 71.1872Z" fill="#407BFF"/>
<path d="M184.704 59.2565L180.508 59.7651C178.496 60.0126 176.639 60.9683 175.268 62.461C173.897 63.9536 173.103 65.8857 173.028 67.9108C172.549 80.3426 171.576 105.176 171.045 113.831C170.297 125.567 170.828 189.341 170.828 189.341L180.904 191.106C180.904 191.106 183.462 155.995 186.851 116.987C187.72 105.409 187.927 93.7915 187.471 82.1901L184.704 59.2565Z" fill="#407BFF"/>
<path opacity="0.8" d="M184.704 59.2565L180.508 59.7651C178.496 60.0126 176.639 60.9683 175.268 62.461C173.897 63.9536 173.103 65.8857 173.028 67.9108C172.549 80.3426 171.576 105.176 171.045 113.831C170.297 125.567 170.828 189.341 170.828 189.341L180.904 191.106C180.904 191.106 183.462 155.995 186.851 116.987C187.72 105.409 187.927 93.7915 187.471 82.1901L184.704 59.2565Z" fill="white"/>
<path d="M189.042 62.7047C189.98 64.2097 190.734 65.822 191.286 67.5069C191.286 67.5069 201.108 64.1334 200.756 58.7254C200.756 58.7254 199.26 57.8427 198.362 57.1246C198.355 57.1246 197.914 60.5355 189.042 62.7047Z" fill="#F5F5F5"/>
<path d="M189.043 62.7048C187.923 63.9982 186.985 65.4375 186.253 66.9834C185.045 66.0753 184.155 64.8086 183.71 63.3645C183.266 61.9203 183.289 60.3725 183.777 58.9424C184.653 58.5886 185.556 58.3035 186.477 58.0896C186.477 58.0896 185.766 61.5454 189.043 62.7048Z" fill="#F5F5F5"/>
<path opacity="0.2" d="M199.245 117.099L210.503 126.771L202.813 123.009L199.245 117.099Z" fill="#407BFF"/>
<path d="M210.547 62.2185C211.026 62.8842 211.385 63.4078 211.789 63.9987L212.933 65.7266C213.681 66.8835 214.407 68.0529 215.11 69.2347C216.524 71.6059 217.855 74.0294 219.082 76.5651C220.349 79.159 221.427 81.8413 222.306 84.5911C222.774 86.061 223.144 87.5603 223.413 89.0791C223.698 90.7239 223.825 92.3919 223.794 94.0608C223.655 97.21 223.047 100.321 221.992 103.291C221.035 106.024 219.855 108.674 218.461 111.212C217.135 113.667 215.674 116.047 214.085 118.341C213.307 119.483 212.505 120.605 211.677 121.707C211.265 122.26 210.839 122.814 210.405 123.36C209.971 123.906 209.56 124.415 209.021 125.043L201.115 118.184C201.414 117.825 201.863 117.316 202.192 116.852L203.299 115.416C204.047 114.444 204.735 113.456 205.416 112.424C206.759 110.43 207.99 108.362 209.104 106.231C210.172 104.193 211.065 102.069 211.774 99.8803C212.428 97.951 212.784 95.933 212.829 93.8963C212.739 91.912 212.333 89.9549 211.624 88.0993C210.839 85.9292 209.886 83.8235 208.775 81.8011C207.638 79.7067 206.373 77.6273 205.035 75.6002C204.354 74.5904 203.651 73.5881 202.933 72.6082L201.841 71.1496C201.482 70.6858 201.093 70.1622 200.771 69.7957L210.547 62.2185Z" fill="#407BFF"/>
<path opacity="0.8" d="M210.547 62.2185C211.026 62.8842 211.385 63.4078 211.789 63.9987L212.933 65.7266C213.681 66.8835 214.407 68.0529 215.11 69.2347C216.524 71.6059 217.855 74.0294 219.082 76.5651C220.349 79.159 221.427 81.8413 222.306 84.5911C222.774 86.061 223.144 87.5603 223.413 89.0791C223.698 90.7239 223.825 92.3919 223.794 94.0608C223.655 97.21 223.047 100.321 221.992 103.291C221.035 106.024 219.855 108.674 218.461 111.212C217.135 113.667 215.674 116.047 214.085 118.341C213.307 119.483 212.505 120.605 211.677 121.707C211.265 122.26 210.839 122.814 210.405 123.36C209.971 123.906 209.56 124.415 209.021 125.043L201.115 118.184C201.414 117.825 201.863 117.316 202.192 116.852L203.299 115.416C204.047 114.444 204.735 113.456 205.416 112.424C206.759 110.43 207.99 108.362 209.104 106.231C210.172 104.193 211.065 102.069 211.774 99.8803C212.428 97.951 212.784 95.933 212.829 93.8963C212.739 91.912 212.333 89.9549 211.624 88.0993C210.839 85.9292 209.886 83.8235 208.775 81.8011C207.638 79.7067 206.373 77.6273 205.035 75.6002C204.354 74.5904 203.651 73.5881 202.933 72.6082L201.841 71.1496C201.482 70.6858 201.093 70.1622 200.771 69.7957L210.547 62.2185Z" fill="white"/>
<path d="M200.465 75.1888C200.223 75.7536 199.792 76.2165 199.246 76.4977C198.7 76.779 198.073 76.861 197.473 76.7297C197.199 76.67 196.942 76.5498 196.721 76.3781C196.5 76.2063 196.32 75.9873 196.195 75.737C196.069 75.4867 196.001 75.2115 195.996 74.9316C195.991 74.6517 196.048 74.3741 196.164 74.1192C196.405 73.5549 196.837 73.0928 197.383 72.8128C197.929 72.5328 198.556 72.4525 199.156 72.5858C199.429 72.6445 199.686 72.7638 199.907 72.9348C200.128 73.1058 200.308 73.3242 200.433 73.5739C200.559 73.8236 200.627 74.0983 200.632 74.3778C200.638 74.6573 200.58 74.9344 200.465 75.1888Z" fill="#263238"/>
<path opacity="0.2" d="M200.465 75.1888C200.223 75.7536 199.792 76.2165 199.246 76.4977C198.7 76.779 198.073 76.861 197.473 76.7297C197.199 76.67 196.942 76.5498 196.721 76.3781C196.5 76.2063 196.32 75.9873 196.195 75.737C196.069 75.4867 196.001 75.2115 195.996 74.9316C195.991 74.6517 196.048 74.3741 196.164 74.1192C196.405 73.5549 196.837 73.0928 197.383 72.8128C197.929 72.5328 198.556 72.4525 199.156 72.5858C199.429 72.6445 199.686 72.7638 199.907 72.9348C200.128 73.1058 200.308 73.3242 200.433 73.5739C200.559 73.8236 200.627 74.0983 200.632 74.3778C200.638 74.6573 200.58 74.9344 200.465 75.1888Z" fill="white"/>
<path d="M198.003 74.0519C197.942 74.053 197.882 74.0346 197.831 73.9995C197.769 73.9545 197.727 73.8869 197.715 73.8113C197.702 73.7358 197.72 73.6582 197.764 73.5956C203.329 65.8538 201.773 58.9722 201.758 58.9049C201.742 58.866 201.735 58.8241 201.737 58.7822C201.739 58.7402 201.75 58.6992 201.769 58.6618C201.788 58.6245 201.815 58.5918 201.848 58.5658C201.881 58.5399 201.92 58.5214 201.961 58.5116C202.001 58.5018 202.044 58.501 202.085 58.5091C202.126 58.5172 202.165 58.5341 202.199 58.5586C202.233 58.5832 202.262 58.6148 202.282 58.6513C202.303 58.6878 202.316 58.7284 202.319 58.7702C202.319 58.8375 203.965 65.966 198.235 73.9322C198.21 73.9701 198.175 74.001 198.135 74.022C198.094 74.0429 198.049 74.0532 198.003 74.0519Z" fill="#263238"/>
<path d="M178.6 70.1249C178.527 70.1234 178.457 70.0952 178.403 70.0456C178.35 69.996 178.316 69.9284 178.309 69.8556C177.703 62.2559 181.727 59.4509 181.899 59.3387C181.963 59.2973 182.041 59.2819 182.116 59.2958C182.191 59.3097 182.258 59.3518 182.303 59.4135C182.346 59.478 182.361 59.5568 182.345 59.6325C182.33 59.7082 182.285 59.7747 182.221 59.8174C182.183 59.8174 178.309 62.5701 178.892 69.8107C178.896 69.8869 178.87 69.9616 178.82 70.019C178.77 70.0763 178.699 70.1116 178.623 70.1174L178.6 70.1249Z" fill="#263238"/>
<path d="M199.648 74.987C199.406 75.5509 198.974 76.0129 198.429 76.2939C197.883 76.575 197.256 76.6577 196.656 76.5279C196.382 76.4694 196.125 76.35 195.903 76.1785C195.681 76.0071 195.5 75.7879 195.375 75.5372C195.249 75.2865 195.181 75.0108 195.176 74.7304C195.172 74.45 195.23 74.1721 195.347 73.9174C195.596 73.36 196.03 72.906 196.575 72.6332C197.121 72.3603 197.745 72.2854 198.339 72.4214C198.607 72.4826 198.858 72.6018 199.075 72.7706C199.292 72.9394 199.468 73.1537 199.593 73.3984C199.718 73.643 199.788 73.9121 199.797 74.1866C199.807 74.4611 199.756 74.7343 199.648 74.987Z" fill="#263238"/>
<path opacity="0.4" d="M199.648 74.987C199.406 75.5509 198.974 76.0129 198.429 76.2939C197.883 76.575 197.256 76.6577 196.656 76.5279C196.382 76.4694 196.125 76.35 195.903 76.1785C195.681 76.0071 195.5 75.7879 195.375 75.5372C195.249 75.2865 195.181 75.0108 195.176 74.7304C195.172 74.45 195.23 74.1721 195.347 73.9174C195.596 73.36 196.03 72.906 196.575 72.6332C197.121 72.3603 197.745 72.2854 198.339 72.4214C198.607 72.4826 198.858 72.6018 199.075 72.7706C199.292 72.9394 199.468 73.1537 199.593 73.3984C199.718 73.643 199.788 73.9121 199.797 74.1866C199.807 74.4611 199.756 74.7343 199.648 74.987Z" fill="white"/>
<path opacity="0.4" d="M198.393 74.583C198.265 74.8802 198.037 75.1234 197.749 75.2709C197.461 75.4183 197.13 75.4607 196.815 75.3908C196.671 75.3592 196.537 75.2961 196.421 75.206C196.305 75.116 196.211 75.0012 196.145 74.8701C196.079 74.739 196.043 74.5948 196.04 74.4481C196.037 74.3014 196.066 74.1558 196.126 74.022C196.256 73.7257 196.483 73.4833 196.771 73.336C197.059 73.1888 197.389 73.1457 197.705 73.2141C197.848 73.2457 197.982 73.3088 198.098 73.3989C198.214 73.489 198.308 73.6038 198.374 73.7349C198.44 73.866 198.476 74.0101 198.479 74.1568C198.482 74.3035 198.453 74.4491 198.393 74.583Z" fill="white"/>
<path d="M180.874 87.8077C180.798 87.8057 180.726 87.7741 180.673 87.7196C180.619 87.6651 180.59 87.592 180.59 87.5159C180.589 87.478 180.595 87.4402 180.609 87.4049C180.623 87.3695 180.644 87.3373 180.67 87.3101C180.697 87.2829 180.728 87.2613 180.763 87.2465C180.798 87.2318 180.836 87.2242 180.874 87.2242C181.423 87.2081 181.947 86.9914 182.346 86.6151C182.746 86.2388 182.994 85.729 183.043 85.1822L183.597 75.4582C183.643 74.776 183.548 74.0916 183.317 73.448C183.087 72.8043 182.725 72.2153 182.256 71.718C181.787 71.2207 181.22 70.8258 180.591 70.558C179.962 70.2903 179.284 70.1556 178.6 70.1623C177.162 70.1797 175.783 70.7381 174.738 71.7265C173.692 72.7148 173.058 74.0605 172.96 75.4956L172.399 85.2196C172.379 85.4794 172.414 85.7405 172.501 85.9861C172.588 86.2317 172.725 86.4564 172.904 86.6459C173.083 86.8353 173.299 86.9853 173.54 87.0862C173.78 87.1871 174.039 87.2366 174.299 87.2317C174.376 87.2317 174.451 87.2624 174.505 87.3171C174.56 87.3718 174.591 87.446 174.591 87.5234C174.589 87.6002 174.558 87.6733 174.503 87.7276C174.449 87.7819 174.376 87.8132 174.299 87.8151C173.96 87.8179 173.625 87.7508 173.313 87.6179C173.001 87.485 172.721 87.2891 172.488 87.0427C172.256 86.7962 172.077 86.5044 171.962 86.1856C171.848 85.8667 171.801 85.5277 171.823 85.1897L172.384 75.4657C172.491 73.8837 173.19 72.4001 174.342 71.3105C175.494 70.2209 177.015 69.6053 178.6 69.5864C179.363 69.5794 180.12 69.7304 180.822 70.0298C181.524 70.3292 182.157 70.7706 182.68 71.3263C183.203 71.8819 183.606 72.5398 183.863 73.2586C184.12 73.9774 184.225 74.7416 184.173 75.5031L183.619 85.2271C183.569 85.9231 183.258 86.5747 182.75 87.0527C182.241 87.5306 181.572 87.8001 180.874 87.8077Z" fill="#263238"/>
<path d="M174.777 87.5159C174.777 87.9796 174.516 88.3611 174.254 88.3611C173.992 88.3611 173.79 87.9796 173.82 87.5159C173.85 87.0521 174.082 86.6632 174.351 86.6632C174.62 86.6632 174.807 87.0446 174.777 87.5159Z" fill="#263238"/>
<path d="M181.36 87.5159C181.36 87.9796 181.099 88.3611 180.829 88.3611C180.56 88.3611 180.366 87.9796 180.395 87.5159C180.425 87.0521 180.657 86.6632 180.927 86.6632C181.196 86.6632 181.383 87.0446 181.36 87.5159Z" fill="#263238"/>
<path d="M121.131 28.4239L120.6 28.0425C122.163 25.9019 124.361 24.3083 126.881 23.4879C129.401 22.6674 132.116 22.662 134.64 23.4722L134.438 24.1005C132.047 23.3341 129.475 23.3392 127.087 24.1151C124.699 24.891 122.615 26.3984 121.131 28.4239Z" fill="#292F79"/>
<path d="M118.872 35.1559H118.214C118.247 33.9612 118.452 32.7774 118.82 31.6403L119.448 31.8422C119.099 32.9137 118.905 34.0295 118.872 35.1559Z" fill="#292F79"/>
<path d="M154.036 35.6796C153.461 34.4101 152.634 33.2706 151.606 32.3301C150.578 31.3897 149.369 30.6678 148.053 30.2083C146.738 29.7488 145.343 29.5612 143.952 29.6569C142.562 29.7527 141.206 30.1297 139.966 30.7652C139.342 29.5479 138.482 28.4671 137.435 27.5861C136.389 26.705 135.177 26.0414 133.872 25.634C132.566 25.2266 131.192 25.0836 129.83 25.2133C128.468 25.343 127.146 25.7428 125.941 26.3894C120.952 29.0673 119.209 35.4103 121.804 40.4593L128.536 53.6016C128.863 54.2413 129.313 54.8102 129.86 55.2758C130.407 55.7413 131.041 56.0943 131.724 56.3146C132.408 56.5348 133.129 56.618 133.845 56.5594C134.561 56.5007 135.258 56.3014 135.897 55.9728L149.091 49.2408C151.498 48.0461 153.353 45.9723 154.273 43.4481C155.194 40.924 155.108 38.1427 154.036 35.6796Z" fill="#292F79"/>
</svg>
