<svg width="30" height="30" viewBox="0 0 30 30" fill="none" xmlns="http://www.w3.org/2000/svg">
<g clip-path="url(#clip0_465_2613)">
<path d="M28.425 20.4084L25.1583 14.8917L28.3917 9.60004C28.4684 9.47394 28.5103 9.32971 28.5131 9.18211C28.5158 9.0345 28.4793 8.88882 28.4072 8.75997C28.3351 8.63112 28.2302 8.52372 28.103 8.44876C27.9758 8.37381 27.831 8.33399 27.6833 8.33337H1.66667C1.22464 8.33337 0.800716 8.50897 0.488155 8.82153C0.175595 9.13409 0 9.55801 0 10L0 20C0 20.4421 0.175595 20.866 0.488155 21.1786C0.800716 21.4911 1.22464 21.6667 1.66667 21.6667H27.7083C27.8554 21.6667 27.9999 21.6277 28.127 21.5538C28.2542 21.4799 28.3595 21.3736 28.4323 21.2458C28.5051 21.118 28.5428 20.9732 28.5415 20.8261C28.5402 20.679 28.5 20.5349 28.425 20.4084ZM8.75833 17.65H7.825L5.10833 14.0334V17.6584H4.16667V12.5H5.10833L7.83333 16.125V12.5H8.76667L8.75833 17.65ZM14.0333 13.3334H11.0917V14.575H13.7583V15.4084H11.0917V16.75H14.0333V17.5834H10.15V12.5H14.025L14.0333 13.3334ZM20.9417 17.6334H20L18.7083 13.8084L17.4167 17.65H16.4833L14.8167 12.5H15.8333L16.9333 16.1917L18.2 12.5H19.2167L20.4333 16.1917L21.5417 12.5H22.5667L20.9417 17.6334Z" fill="#FFBB38"/>
</g>
<defs>
<clipPath id="clip0_465_2613">
<rect width="30" height="30" fill="white"/>
</clipPath>
</defs>
</svg>
