<svg width="25" height="25" viewBox="0 0 25 25" fill="none" xmlns="http://www.w3.org/2000/svg">
<path fill-rule="evenodd" clip-rule="evenodd" d="M23.4369 12.5C23.4369 12.2928 23.3546 12.0941 23.2081 11.9476C23.0616 11.8011 22.8629 11.7188 22.6557 11.7188H4.22913L9.14632 6.80314C9.21896 6.7305 9.27658 6.64427 9.31589 6.54936C9.3552 6.45445 9.37543 6.35274 9.37543 6.25001C9.37543 6.14729 9.3552 6.04557 9.31589 5.95066C9.27658 5.85576 9.21896 5.76952 9.14632 5.69689C9.07368 5.62425 8.98745 5.56663 8.89254 5.52732C8.79764 5.48801 8.69592 5.46777 8.59319 5.46777C8.49047 5.46777 8.38875 5.48801 8.29384 5.52732C8.19894 5.56663 8.11271 5.62425 8.04007 5.69689L1.79007 11.9469C1.71731 12.0195 1.65959 12.1057 1.62021 12.2006C1.58082 12.2955 1.56055 12.3972 1.56055 12.5C1.56055 12.6028 1.58082 12.7045 1.62021 12.7994C1.65959 12.8944 1.71731 12.9806 1.79007 13.0531L8.04007 19.3031C8.11271 19.3758 8.19894 19.4334 8.29384 19.4727C8.38875 19.512 8.49047 19.5322 8.59319 19.5322C8.69592 19.5322 8.79764 19.512 8.89254 19.4727C8.98745 19.4334 9.07368 19.3758 9.14632 19.3031C9.21896 19.2305 9.27658 19.1443 9.31589 19.0494C9.3552 18.9545 9.37543 18.8527 9.37543 18.75C9.37543 18.6473 9.3552 18.5456 9.31589 18.4507C9.27658 18.3558 9.21896 18.2695 9.14632 18.1969L4.22913 13.2813H22.6557C22.8629 13.2813 23.0616 13.199 23.2081 13.0524C23.3546 12.9059 23.4369 12.7072 23.4369 12.5Z" fill="#292F79"/>
</svg>
