<svg width="25" height="24" viewBox="0 0 25 24" fill="none" xmlns="http://www.w3.org/2000/svg">
<path d="M10.4634 21.476L10.4547 21.4732C9.39206 21.1367 8.7296 20.0009 8.9585 18.9904L8.96198 18.975L8.96449 18.9594L9.47189 15.8094L9.47193 15.8094L9.47287 15.8031C9.49069 15.6825 9.51094 15.3917 9.28664 15.1442L9.27545 15.1318L9.26345 15.1202C9.11378 14.9757 8.9148 14.8999 8.70902 14.8999H4.567C3.68456 14.8999 2.96685 14.5456 2.55828 13.9853L2.5571 13.9837C2.16066 13.4446 2.06421 12.7155 2.34262 11.9761L2.34548 11.9685L2.34809 11.9608L4.82294 4.68083L4.82853 4.66441L4.83296 4.64763C5.1516 3.44173 6.53809 2.3999 7.99452 2.3999H11.9294C12.1799 2.3999 12.5979 2.43771 13.0259 2.54984C13.4616 2.66394 13.8506 2.84027 14.0984 3.07957L14.1213 3.10168L14.1468 3.12071L16.8696 5.15136L16.5426 5.5598L13.7416 3.46561C13.5289 3.27273 13.2255 3.13911 12.9405 3.05267C12.6294 2.95834 12.2725 2.8999 11.9294 2.8999H7.99452C7.40607 2.8999 6.8224 3.12402 6.36021 3.45438C5.90704 3.77828 5.51724 4.24344 5.37196 4.78561L2.87426 12.1115C2.67081 12.6576 2.68079 13.2453 3.02646 13.7079C3.37505 14.1807 3.96225 14.3999 4.57736 14.3999H8.71937C9.12101 14.3999 9.4812 14.5633 9.72481 14.8342L9.72545 14.8349C9.97416 15.1104 10.0872 15.478 10.0272 15.8724C10.0271 15.873 10.027 15.8735 10.0269 15.8741L9.51186 19.0673C9.33749 19.8956 9.89883 20.7499 10.6702 21.0031C11.0499 21.1379 11.4549 21.0979 11.7798 20.9934C12.1001 20.8902 12.4304 20.6957 12.6267 20.4199L12.6267 20.4199L12.6298 20.4155L16.5978 14.7143L17.0446 15.0066L13.093 20.6843L13.0929 20.6845C12.7134 21.2303 11.957 21.5999 11.1839 21.5999C10.9383 21.5999 10.6952 21.5589 10.4721 21.4791L10.4634 21.476Z" stroke="#292F79" stroke-opacity="0.75"/>
<path d="M20.3167 17.6H19.2812C18.389 17.6 17.8231 17.3964 17.4798 17.0766C17.1434 16.7634 16.9336 16.2568 16.9336 15.45V5.65C16.9336 4.84323 17.1434 4.33665 17.4798 4.0234C17.8231 3.70364 18.389 3.5 19.2812 3.5H20.3167C21.209 3.5 21.7748 3.70364 22.1182 4.0234C22.4545 4.33665 22.6644 4.84323 22.6644 5.65V15.45C22.6644 16.2568 22.4545 16.7634 22.1182 17.0766C21.7748 17.3964 21.209 17.6 20.3167 17.6ZM19.2812 4C18.9856 4 18.7218 4.01647 18.4955 4.06618C18.2657 4.11666 18.043 4.20823 17.8634 4.38158C17.509 4.72386 17.4868 5.2298 17.4868 5.65V15.45C17.4868 15.8702 17.509 16.3761 17.8634 16.7184C18.043 16.8918 18.2657 16.9833 18.4955 17.0338C18.7218 17.0835 18.9856 17.1 19.2812 17.1H20.3167C20.6124 17.1 20.8762 17.0835 21.1024 17.0338C21.3322 16.9833 21.555 16.8918 21.7345 16.7184C22.0889 16.3761 22.1111 15.8702 22.1111 15.45V5.65C22.1111 5.2298 22.0889 4.72386 21.7345 4.38158C21.555 4.20823 21.3322 4.11666 21.1024 4.06618C20.8762 4.01647 20.6124 4 20.3167 4H19.2812Z" stroke="#292F79" stroke-opacity="0.75"/>
</svg>
