<svg width="371" height="278" viewBox="0 0 371 278" fill="none" xmlns="http://www.w3.org/2000/svg">
<path d="M370.41 244.302H0V244.489H370.41V244.302Z" fill="#EBEBEB"/>
<path d="M333.295 256.308H308.759V256.495H333.295V256.308Z" fill="#EBEBEB"/>
<path d="M245.374 258.338H238.937V258.524H245.374V258.338Z" fill="#EBEBEB"/>
<path d="M308.018 249.384H293.802V249.57H308.018V249.384Z" fill="#EBEBEB"/>
<path d="M70.8593 250.637H38.8633V250.824H70.8593V250.637Z" fill="#EBEBEB"/>
<path d="M82.1494 250.637H77.46V250.824H82.1494V250.637Z" fill="#EBEBEB"/>
<path d="M166.796 253.786H97.3955V253.973H166.796V253.786Z" fill="#EBEBEB"/>
<path d="M175.574 211.022H32.5293C31.4087 211.02 30.3347 210.57 29.543 209.772C28.7513 208.973 28.3066 207.89 28.3066 206.761V4.22343C28.3164 3.10118 28.7654 2.02812 29.556 1.23734C30.3466 0.446563 31.4151 0.00192247 32.5293 0H175.574C176.696 0 177.772 0.448898 178.565 1.24794C179.359 2.04698 179.804 3.13072 179.804 4.26074V206.761C179.804 207.891 179.359 208.975 178.565 209.774C177.772 210.573 176.696 211.022 175.574 211.022ZM32.5293 0.149238C31.4578 0.151215 30.4309 0.58133 29.6739 1.34517C28.917 2.10902 28.4918 3.14418 28.4918 4.22343V206.761C28.4918 207.841 28.917 208.876 29.6739 209.64C30.4309 210.403 31.4578 210.834 32.5293 210.836H175.574C176.646 210.834 177.674 210.404 178.432 209.64C179.19 208.876 179.617 207.841 179.619 206.761V4.22343C179.617 3.14349 179.19 2.10835 178.432 1.34472C177.674 0.581087 176.646 0.151211 175.574 0.149238H32.5293Z" fill="#EBEBEB"/>
<path d="M335.822 211.022H192.769C191.648 211.02 190.573 210.571 189.78 209.772C188.987 208.973 188.541 207.891 188.539 206.761V4.22343C188.551 3.1005 189.001 2.02745 189.793 1.23688C190.585 0.446302 191.654 0.0019015 192.769 0H335.822C336.934 0.00388354 338.001 0.449391 338.79 1.23996C339.579 2.03053 340.027 3.10247 340.037 4.22343V206.761C340.037 207.889 339.593 208.97 338.803 209.769C338.013 210.568 336.941 211.018 335.822 211.022ZM192.769 0.149238C191.697 0.151211 190.669 0.581087 189.911 1.34472C189.153 2.10835 188.726 3.14349 188.724 4.22343V206.761C188.726 207.841 189.153 208.876 189.911 209.64C190.669 210.404 191.697 210.834 192.769 210.836H335.822C336.894 210.834 337.921 210.404 338.68 209.64C339.438 208.876 339.864 207.841 339.866 206.761V4.22343C339.864 3.14349 339.438 2.10835 338.68 1.34472C337.921 0.581087 336.894 0.151211 335.822 0.149238H192.769Z" fill="#EBEBEB"/>
<path d="M63.2514 217.014C63.2514 216.716 64.2515 187.405 68.9853 182.771C73.5858 178.294 78.8679 182.6 79.0901 182.771L79.5643 182.197C79.505 182.152 73.5414 177.25 68.452 182.197C63.5033 187.04 62.5254 215.731 62.5254 216.947L63.2514 217.014Z" fill="#E0E0E0"/>
<path d="M62.8512 222.767C62.8512 222.424 66.0811 187.584 53.4501 172.981L52.8945 173.474C65.3181 187.831 62.1474 222.349 62.1103 222.722L62.8512 222.767Z" fill="#E0E0E0"/>
<path d="M63.3179 219.088L64.0587 219.036C64.0587 218.641 61.5918 179.428 70.8521 170.847L70.3557 170.295C60.8213 179.123 63.2068 217.454 63.3179 219.088Z" fill="#E0E0E0"/>
<path d="M62.1101 219.066H62.8509C62.8509 217.984 62.5471 192.584 55.376 188.472C54.696 188.031 53.921 187.759 53.1157 187.68C52.3104 187.601 51.4979 187.716 50.7459 188.017C46.4121 189.823 44.2637 197.591 44.1748 197.919L44.9156 198.12C44.9156 198.038 47.0566 190.375 51.0496 188.711C51.6984 188.455 52.3986 188.359 53.0918 188.43C53.785 188.502 54.4513 188.739 55.0352 189.121C61.8063 193.009 62.1101 218.805 62.1101 219.066Z" fill="#E0E0E0"/>
<path d="M64.896 219.081L65.6368 219.036C65.6368 218.842 64.5552 198.964 69.8817 191.965C71.1707 190.278 72.6005 189.457 74.0822 189.532C77.5714 189.778 80.4977 194.919 80.5273 194.972L81.1718 194.606C81.0459 194.375 78.0233 189.062 74.134 188.786C72.4005 188.659 70.7781 189.532 69.3261 191.479C63.7996 198.732 64.8515 218.253 64.896 219.081Z" fill="#E0E0E0"/>
<path d="M63.7101 221.782C63.8509 219.857 67.192 174.474 61.3173 166.482L60.7246 166.922C66.4289 174.698 63.0063 221.26 62.9471 221.73L63.7101 221.782Z" fill="#E0E0E0"/>
<path d="M49.1461 192.584C49.1461 192.584 52.6724 193.89 51.6205 196.979C50.5685 200.068 39.4414 205.142 39.4414 205.142C39.4414 205.142 34.7742 200.837 39.0561 193.837C43.3381 186.838 49.0498 190.375 49.1461 192.584Z" fill="#EBEBEB"/>
<path d="M64.4518 186.704C64.4518 186.704 60.7477 186.547 60.4958 189.801C60.2439 193.054 68.6448 202.06 68.6448 202.06C68.6448 202.06 74.5714 199.896 73.3194 191.77C72.0674 183.644 65.3926 184.704 64.4518 186.704Z" fill="#EBEBEB"/>
<path d="M67.6292 171.123C67.6292 171.123 65.1327 170.855 65.3327 169.318C65.5327 167.78 75.0523 163.841 80.6677 170.221C80.6677 170.221 77.0747 176.444 71.8741 176.526C66.6736 176.608 67.6292 171.123 67.6292 171.123Z" fill="#EBEBEB"/>
<path d="M62.9699 167.4C62.9699 167.4 65.2368 168.497 65.8739 167.094C66.511 165.691 60.5029 157.259 52.3836 159.684C52.3836 159.684 52.1687 166.885 56.5396 169.721C60.9104 172.556 62.9699 167.4 62.9699 167.4Z" fill="#EBEBEB"/>
<path d="M74.8231 191.338C74.8231 191.338 73.097 189.935 74.9638 189.256C76.8307 188.577 85.9576 188.763 86.0761 197.882C86.0761 197.882 75.438 199.658 74.1193 196.188C72.8006 192.718 74.8231 191.338 74.8231 191.338Z" fill="#EBEBEB"/>
<path d="M53.1089 170.877C53.1089 170.877 54.835 169.474 52.9756 168.788C51.1161 168.101 41.9744 168.303 41.8633 177.414C41.8633 177.414 52.5089 179.197 53.8201 175.727C55.1314 172.258 53.1089 170.877 53.1089 170.877Z" fill="#EBEBEB"/>
<path d="M58.7323 178.235C58.7323 178.235 58.8879 176.533 57.5174 177.197C56.1469 177.861 51.3908 183.047 56.3247 187.957C56.3247 187.957 62.992 182.995 61.7771 180.413C60.5621 177.832 58.7323 178.235 58.7323 178.235Z" fill="#EBEBEB"/>
<path d="M76.3561 180.667C76.3561 180.667 75.319 179.309 76.8302 179.138C78.3415 178.966 85.1126 180.787 83.5347 187.599C83.5347 187.599 75.2893 186.973 74.9337 184.144C74.5781 181.316 76.3561 180.667 76.3561 180.667Z" fill="#EBEBEB"/>
<path d="M48.4867 244.332H76.7861L79.8383 213.126H45.4346L48.4867 244.332Z" fill="#F0F0F0"/>
<path d="M43.9312 216.574H81.3574V209.686H43.9312V216.574Z" fill="#E6E6E6"/>
<path d="M306.863 217.014C306.863 216.716 305.87 187.405 301.136 182.771C296.536 178.294 291.246 182.6 291.031 182.771L290.55 182.197C290.616 182.152 296.573 177.25 301.662 182.197C306.611 187.04 307.589 215.731 307.589 216.947L306.863 217.014Z" fill="#E0E0E0"/>
<path d="M307.27 222.767C307.27 222.424 304.04 187.584 316.671 172.981L317.227 173.474C304.803 187.831 307.974 222.349 308.011 222.722L307.27 222.767Z" fill="#E0E0E0"/>
<path d="M306.804 219.088L306.063 219.036C306.063 218.641 308.537 179.428 299.27 170.847L299.773 170.295C309.3 179.123 306.915 217.454 306.804 219.088Z" fill="#E0E0E0"/>
<path d="M308.01 219.066H307.27C307.27 217.984 307.573 192.584 314.737 188.472C315.418 188.031 316.195 187.759 317.001 187.68C317.808 187.6 318.621 187.716 319.375 188.017C323.708 189.823 325.857 197.591 325.946 197.919L325.205 198.121C325.205 198.038 323.064 190.375 319.071 188.711C318.422 188.455 317.722 188.359 317.029 188.43C316.335 188.502 315.669 188.739 315.085 189.121C308.307 193.009 308.01 218.805 308.01 219.066Z" fill="#E0E0E0"/>
<path d="M305.218 219.081L304.477 219.036C304.477 218.842 305.559 198.964 300.232 191.965C298.943 190.263 297.536 189.457 296.061 189.562C292.572 189.808 289.646 194.949 289.616 195.001L288.972 194.636C289.098 194.405 292.12 189.092 296.009 188.816C297.743 188.689 299.365 189.562 300.817 191.509C306.314 198.732 305.27 218.253 305.218 219.081Z" fill="#E0E0E0"/>
<path d="M306.389 221.782C306.241 219.857 302.907 174.474 308.782 166.482L309.374 166.922C303.663 174.698 307.093 221.26 307.152 221.73L306.389 221.782Z" fill="#E0E0E0"/>
<path d="M320.975 192.584C320.975 192.584 317.449 193.89 318.501 196.979C319.553 200.068 330.68 205.142 330.68 205.142C330.68 205.142 335.347 200.837 331.058 193.837C326.768 186.838 321.064 190.375 320.975 192.584Z" fill="#EBEBEB"/>
<path d="M305.662 186.704C305.662 186.704 309.411 186.547 309.626 189.801C309.84 193.054 301.477 202.06 301.477 202.06C301.477 202.06 295.55 199.896 296.809 191.77C298.069 183.644 304.729 184.704 305.662 186.704Z" fill="#EBEBEB"/>
<path d="M302.492 171.123C302.492 171.123 304.988 170.855 304.788 169.318C304.588 167.78 295.069 163.841 289.453 170.221C289.453 170.221 293.046 176.444 298.247 176.526C303.447 176.608 302.492 171.123 302.492 171.123Z" fill="#EBEBEB"/>
<path d="M307.144 167.4C307.144 167.4 304.885 168.497 304.247 167.094C303.61 165.691 309.618 157.259 317.738 159.684C317.738 159.684 317.953 166.885 313.582 169.721C309.211 172.556 307.144 167.4 307.144 167.4Z" fill="#EBEBEB"/>
<path d="M295.314 191.338C295.314 191.338 297.04 189.935 295.173 189.256C293.306 188.577 284.172 188.763 284.061 197.882C284.061 197.882 294.699 199.658 296.017 196.188C297.336 192.718 295.314 191.338 295.314 191.338Z" fill="#EBEBEB"/>
<path d="M317.012 170.877C317.012 170.877 315.286 169.474 317.145 168.788C319.005 168.101 328.146 168.303 328.257 177.414C328.257 177.414 317.612 179.197 316.301 175.727C314.989 172.258 317.012 170.877 317.012 170.877Z" fill="#EBEBEB"/>
<path d="M311.382 178.235C311.382 178.235 311.233 176.533 312.597 177.197C313.96 177.861 318.731 183.047 313.797 187.957C313.797 187.957 307.129 182.995 308.344 180.413C309.559 177.832 311.382 178.235 311.382 178.235Z" fill="#EBEBEB"/>
<path d="M293.765 180.667C293.765 180.667 294.802 179.309 293.291 179.138C291.779 178.966 285.008 180.787 286.623 187.599C286.623 187.599 294.868 186.973 295.224 184.144C295.58 181.316 293.765 180.667 293.765 180.667Z" fill="#EBEBEB"/>
<path d="M321.627 244.332H293.335L290.283 213.126H324.687L321.627 244.332Z" fill="#F0F0F0"/>
<path d="M326.198 209.679H288.771V216.566H326.198V209.679Z" fill="#E6E6E6"/>
<path d="M176.123 54.3001H100.767V206.926H176.123V54.3001Z" fill="#FAFAFA"/>
<path d="M177.863 52.2258H99.0254V59.7175H177.863V52.2258Z" fill="#F0F0F0"/>
<path d="M177.863 60.5457H99.0254V64.2916H177.863V60.5457Z" fill="#F0F0F0"/>
<path d="M177.863 66.1049H99.0254V69.8507H177.863V66.1049Z" fill="#F0F0F0"/>
<path d="M177.863 71.6639H99.0254V75.4098H177.863V71.6639Z" fill="#F0F0F0"/>
<path d="M177.863 77.223H99.0254V80.9689H177.863V77.223Z" fill="#F0F0F0"/>
<path d="M177.863 82.7747H99.0254V86.5206H177.863V82.7747Z" fill="#F0F0F0"/>
<path d="M177.863 88.3338H99.0254V92.0796H177.863V88.3338Z" fill="#F0F0F0"/>
<path d="M177.863 93.8929H99.0254V97.6388H177.863V93.8929Z" fill="#F0F0F0"/>
<path d="M177.863 99.452H99.0254V103.198H177.863V99.452Z" fill="#F0F0F0"/>
<path d="M177.863 105.011H99.0254V108.757H177.863V105.011Z" fill="#F0F0F0"/>
<path d="M177.863 110.57H99.0254V114.316H177.863V110.57Z" fill="#F0F0F0"/>
<path d="M177.863 116.122H99.0254V119.868H177.863V116.122Z" fill="#F0F0F0"/>
<path d="M177.863 121.681H99.0254V125.427H177.863V121.681Z" fill="#F0F0F0"/>
<path d="M177.863 127.24H99.0254V130.986H177.863V127.24Z" fill="#F0F0F0"/>
<path d="M177.863 132.799H99.0254V136.545H177.863V132.799Z" fill="#F0F0F0"/>
<path d="M177.863 138.358H99.0254V142.104H177.863V138.358Z" fill="#F0F0F0"/>
<path d="M177.863 143.91H99.0254V147.656H177.863V143.91Z" fill="#F0F0F0"/>
<path d="M177.863 149.469H99.0254V153.215H177.863V149.469Z" fill="#F0F0F0"/>
<path d="M177.863 155.028H99.0254V158.774H177.863V155.028Z" fill="#F0F0F0"/>
<path d="M177.863 160.587H99.0254V164.333H177.863V160.587Z" fill="#F0F0F0"/>
<path d="M177.863 166.146H99.0254V169.892H177.863V166.146Z" fill="#F0F0F0"/>
<path d="M177.863 171.705H99.0254V175.451H177.863V171.705Z" fill="#F0F0F0"/>
<path d="M177.863 177.257H99.0254V181.003H177.863V177.257Z" fill="#F0F0F0"/>
<path d="M177.863 182.816H99.0254V186.562H177.863V182.816Z" fill="#F0F0F0"/>
<path d="M177.863 188.375H99.0254V192.121H177.863V188.375Z" fill="#F0F0F0"/>
<path d="M177.863 193.934H99.0254V197.68H177.863V193.934Z" fill="#F0F0F0"/>
<path d="M177.863 199.494H99.0254V203.239H177.863V199.494Z" fill="#F0F0F0"/>
<path d="M177.863 205.045H99.0254V208.791H177.863V205.045Z" fill="#F0F0F0"/>
<path d="M269.643 54.3001H194.287V206.926H269.643V54.3001Z" fill="#FAFAFA"/>
<path d="M271.385 52.2258H192.547V59.7175H271.385V52.2258Z" fill="#F0F0F0"/>
<path d="M271.385 60.5457H192.547V61.2322H271.385V60.5457Z" fill="#F0F0F0"/>
<path d="M271.385 62.1128H192.547V62.7993H271.385V62.1128Z" fill="#F0F0F0"/>
<path d="M271.385 63.6722H192.547V64.3587H271.385V63.6722Z" fill="#F0F0F0"/>
<path d="M271.385 65.2393H192.547V65.9258H271.385V65.2393Z" fill="#F0F0F0"/>
<path d="M271.385 66.7988H192.547V67.4853H271.385V66.7988Z" fill="#F0F0F0"/>
<path d="M271.385 68.3658H192.547V69.0523H271.385V68.3658Z" fill="#F0F0F0"/>
<path d="M271.385 69.9253H192.547V70.6118H271.385V69.9253Z" fill="#F0F0F0"/>
<path d="M271.385 71.4923H192.547V72.1788H271.385V71.4923Z" fill="#F0F0F0"/>
<path d="M271.385 73.0593H192.547V73.7458H271.385V73.0593Z" fill="#F0F0F0"/>
<path d="M271.385 74.6189H192.547V75.3054H271.385V74.6189Z" fill="#F0F0F0"/>
<path d="M271.385 76.1858H192.547V76.8723H271.385V76.1858Z" fill="#F0F0F0"/>
<path d="M271.385 77.7454H192.547V78.4319H271.385V77.7454Z" fill="#F0F0F0"/>
<path d="M271.385 79.3123H192.547V79.9988H271.385V79.3123Z" fill="#F0F0F0"/>
<path d="M271.385 80.8719H192.547V81.5584H271.385V80.8719Z" fill="#F0F0F0"/>
<path d="M271.385 82.4389H192.547V83.1254H271.385V82.4389Z" fill="#F0F0F0"/>
<path d="M271.385 84.0059H192.547V84.6924H271.385V84.0059Z" fill="#F0F0F0"/>
<path d="M271.385 85.5654H192.547V86.2519H271.385V85.5654Z" fill="#F0F0F0"/>
<path d="M271.385 87.1324H192.547V87.8189H271.385V87.1324Z" fill="#F0F0F0"/>
<path d="M196.307 32.6212C197.302 26.4503 193.141 20.6357 187.015 19.634C180.888 18.6324 175.115 22.8229 174.121 28.9938C173.126 35.1647 177.287 40.9792 183.413 41.9809C189.54 42.9826 195.313 38.7921 196.307 32.6212Z" fill="#F0F0F0"/>
<path d="M194.647 32.3498C195.493 27.1023 191.955 22.1578 186.746 21.306C181.536 20.4542 176.627 24.0176 175.781 29.2652C174.936 34.5127 178.473 39.4571 183.683 40.3089C188.893 41.1607 193.802 37.5973 194.647 32.3498Z" fill="#FAFAFA"/>
<path d="M184.753 24.1989V30.9295L180.33 28.4074" fill="#F0F0F0"/>
<path d="M184.753 24.1989V30.9295L180.33 28.4074" stroke="#E0E0E0" stroke-width="2" stroke-linecap="round" stroke-linejoin="round"/>
<path d="M185.205 278C264.534 278 328.843 274.218 328.843 269.553C328.843 264.888 264.534 261.106 185.205 261.106C105.876 261.106 41.5674 264.888 41.5674 269.553C41.5674 274.218 105.876 278 185.205 278Z" fill="#F5F5F5"/>
<path opacity="0.5" d="M324.834 73.6936H189.472C187.978 73.6936 186.768 74.913 186.768 76.4172V225.252C186.768 226.756 187.978 227.976 189.472 227.976H324.834C326.328 227.976 327.538 226.756 327.538 225.252V76.4172C327.538 74.913 326.328 73.6936 324.834 73.6936Z" fill="#292F79"/>
<path d="M320.39 70.7089H185.027C183.534 70.7089 182.323 71.9283 182.323 73.4325V222.267C182.323 223.771 183.534 224.991 185.027 224.991H320.39C321.883 224.991 323.094 223.771 323.094 222.267V73.4325C323.094 71.9283 321.883 70.7089 320.39 70.7089Z" fill="#407BFF"/>
<path opacity="0.8" d="M320.39 70.7089H185.027C183.534 70.7089 182.323 71.9283 182.323 73.4325V222.267C182.323 223.771 183.534 224.991 185.027 224.991H320.39C321.883 224.991 323.094 223.771 323.094 222.267V73.4325C323.094 71.9283 321.883 70.7089 320.39 70.7089Z" fill="white"/>
<path opacity="0.5" d="M140.088 70.0447H71.3993C69.9059 70.0447 68.6953 71.2641 68.6953 72.7683V199.217C68.6953 200.722 69.9059 201.941 71.3993 201.941H140.088C141.582 201.941 142.792 200.722 142.792 199.217V72.7683C142.792 71.2641 141.582 70.0447 140.088 70.0447Z" fill="#407BFF"/>
<path d="M135.644 65.5677H66.955C65.4616 65.5677 64.251 66.7871 64.251 68.2913V194.74C64.251 196.245 65.4616 197.464 66.955 197.464H135.644C137.137 197.464 138.348 196.245 138.348 194.74V68.2913C138.348 66.7871 137.137 65.5677 135.644 65.5677Z" fill="#407BFF"/>
<path opacity="0.8" d="M135.644 65.5677H66.955C65.4616 65.5677 64.251 66.7871 64.251 68.2913V194.74C64.251 196.245 65.4616 197.464 66.955 197.464H135.644C137.137 197.464 138.348 196.245 138.348 194.74V68.2913C138.348 66.7871 137.137 65.5677 135.644 65.5677Z" fill="white"/>
<path d="M320.834 27.0941H67.1031C65.5279 27.0941 64.251 28.3803 64.251 29.9669V41.5776C64.251 43.1643 65.5279 44.4505 67.1031 44.4505H320.834C322.409 44.4505 323.686 43.1643 323.686 41.5776V29.9669C323.686 28.3803 322.409 27.0941 320.834 27.0941Z" fill="#292F79"/>
<path opacity="0.6" d="M297.357 35.7723C297.35 36.4333 297.149 37.0774 296.779 37.6234C296.409 38.1695 295.887 38.5931 295.279 38.841C294.67 39.0888 294.003 39.1499 293.36 39.0164C292.717 38.883 292.128 38.561 291.666 38.0909C291.205 37.6209 290.892 37.0239 290.766 36.375C290.641 35.7262 290.709 35.0544 290.962 34.4444C291.215 33.8344 291.641 33.3133 292.187 32.9468C292.733 32.5803 293.375 32.3847 294.031 32.3846C294.471 32.3866 294.905 32.4758 295.31 32.6472C295.715 32.8186 296.083 33.0688 296.392 33.3835C296.701 33.6982 296.945 34.0711 297.111 34.4811C297.277 34.891 297.36 35.3298 297.357 35.7723Z" fill="white"/>
<path opacity="0.6" d="M307.759 35.7723C307.751 36.4333 307.55 37.0774 307.18 37.6234C306.81 38.1695 306.288 38.5931 305.68 38.841C305.072 39.0888 304.404 39.1499 303.761 39.0164C303.118 38.883 302.529 38.561 302.068 38.0909C301.606 37.6209 301.293 37.0239 301.168 36.375C301.042 35.7262 301.11 35.0544 301.363 34.4444C301.616 33.8344 302.042 33.3133 302.588 32.9468C303.135 32.5803 303.776 32.3847 304.433 32.3846C304.872 32.3866 305.307 32.4758 305.712 32.6472C306.117 32.8186 306.484 33.0688 306.793 33.3835C307.102 33.6982 307.347 34.0711 307.512 34.4811C307.678 34.891 307.762 35.3298 307.759 35.7723Z" fill="white"/>
<path opacity="0.6" d="M318.152 35.7723C318.145 36.4343 317.943 37.0792 317.572 37.6257C317.201 38.1722 316.678 38.5958 316.068 38.843C315.459 39.0902 314.79 39.1499 314.147 39.0146C313.503 38.8793 312.914 38.5551 312.453 38.0829C311.993 37.6106 311.681 37.0115 311.559 36.3612C311.436 35.7109 311.507 35.0384 311.763 34.4288C312.019 33.8192 312.449 33.2997 312.998 32.9359C313.547 32.5721 314.191 32.3802 314.848 32.3846C315.732 32.3945 316.576 32.7564 317.195 33.3913C317.814 34.0262 318.158 34.8823 318.152 35.7723Z" fill="white"/>
<path opacity="0.6" d="M78.845 31.4146H70.2959V40.1226H78.845V31.4146Z" fill="white"/>
<path d="M133.726 86.5878H53.8359V101.982H133.726V86.5878Z" fill="#292F79"/>
<path opacity="0.2" d="M133.726 86.5878H53.8359V101.982H133.726V86.5878Z" fill="black"/>
<path d="M65.3335 91.0724H58.9551V97.4971H65.3335V91.0724Z" fill="white"/>
<path d="M60.3477 94.3034L61.5404 95.8405L63.9406 92.7289" stroke="#407BFF" stroke-width="1.5" stroke-linecap="round" stroke-linejoin="round"/>
<path d="M129.518 97.8925H123.103V93.5199H129.518V97.8925ZM126.31 90.2889C125.589 90.2889 124.896 90.5771 124.385 91.0905C123.874 91.6039 123.586 92.3004 123.584 93.0274H124.325C124.356 92.5191 124.578 92.0418 124.946 91.6929C125.314 91.344 125.801 91.1497 126.307 91.1497C126.812 91.1497 127.299 91.344 127.667 91.6929C128.035 92.0418 128.257 92.5191 128.288 93.0274H129.029C129.027 92.3017 128.74 91.6063 128.231 91.0931C127.721 90.58 127.031 90.2908 126.31 90.2889Z" fill="#407BFF"/>
<path d="M121.984 115.047H42.0938V130.441H121.984V115.047Z" fill="#1B249A"/>
<path opacity="0.4" d="M121.984 115.047H42.0938V130.441H121.984V115.047Z" fill="white"/>
<path d="M53.5914 119.524H47.2129V125.949H53.5914V119.524Z" fill="white"/>
<path d="M117.776 121.98H111.36V126.345H117.776V121.98Z" fill="white"/>
<path d="M117.287 121.502H116.546C116.546 120.974 116.338 120.467 115.967 120.093C115.596 119.72 115.093 119.51 114.568 119.51C114.044 119.51 113.541 119.72 113.17 120.093C112.799 120.467 112.59 120.974 112.59 121.502H111.85C111.85 120.776 112.136 120.079 112.646 119.566C113.156 119.052 113.847 118.763 114.568 118.763C115.289 118.763 115.981 119.052 116.491 119.566C117.001 120.079 117.287 120.776 117.287 121.502Z" fill="white"/>
<path d="M134.141 144.835H54.251V160.229H134.141V144.835Z" fill="#4C5191"/>
<path opacity="0.4" d="M134.141 144.835H54.251V160.229H134.141V144.835Z" fill="white"/>
<path d="M65.7476 149.32H59.3691V155.745H65.7476V149.32Z" fill="white"/>
<path d="M60.7627 152.543L61.9554 154.088L64.3557 150.976" stroke="#407BFF" stroke-width="1.5" stroke-linecap="round" stroke-linejoin="round"/>
<g opacity="0.6">
<path d="M129.933 151.767H123.518V156.133H129.933V151.767Z" fill="white"/>
<path d="M129.444 151.297H128.703C128.72 151.025 128.681 150.752 128.588 150.495C128.496 150.239 128.353 150.004 128.167 149.805C127.982 149.606 127.758 149.448 127.509 149.339C127.26 149.231 126.992 149.175 126.721 149.175C126.45 149.175 126.182 149.231 125.934 149.339C125.685 149.448 125.461 149.606 125.275 149.805C125.09 150.004 124.946 150.239 124.854 150.495C124.762 150.752 124.723 151.025 124.74 151.297H123.999C123.98 150.925 124.036 150.553 124.164 150.203C124.292 149.854 124.489 149.534 124.744 149.264C124.999 148.993 125.305 148.778 125.645 148.631C125.985 148.484 126.351 148.408 126.721 148.408C127.091 148.408 127.457 148.484 127.797 148.631C128.137 148.778 128.444 148.993 128.699 149.264C128.953 149.534 129.151 149.854 129.279 150.203C129.407 150.553 129.463 150.925 129.444 151.297Z" fill="white"/>
</g>
<path d="M304.61 128.061H242.226V168.93H304.61V128.061Z" fill="#4C5191"/>
<path opacity="0.5" d="M304.61 128.061H242.226V168.93H304.61V128.061Z" fill="white"/>
<path d="M302.329 135.717H244.508V166.878H302.329V135.717Z" fill="#292F79"/>
<path d="M291.986 140.373H249.219V141.716H291.986V140.373Z" fill="white"/>
<path d="M269.739 144.484H249.219V145.828H269.739V144.484Z" fill="white"/>
<path d="M275.066 148.588H249.219V149.932H275.066V148.588Z" fill="white"/>
<path d="M258.331 152.692H249.219V154.036H258.331V152.692Z" fill="white"/>
<path d="M255.116 156.797H249.219V158.14H255.116V156.797Z" fill="white"/>
<path d="M306.396 208.649V231.438C306.397 232.055 306.178 232.651 305.778 233.119C305.378 233.586 304.824 233.893 304.218 233.982C304.09 233.994 303.961 233.994 303.833 233.982H274.771C274.093 233.982 273.443 233.711 272.963 233.228C272.484 232.745 272.215 232.091 272.215 231.408V208.649C272.213 208.258 272.301 207.872 272.474 207.522C272.683 207.087 273.009 206.72 273.415 206.463C273.821 206.205 274.291 206.068 274.771 206.067H286.165C286.697 206.058 287.213 205.887 287.646 205.575C288.082 205.255 288.409 204.807 288.58 204.291C288.747 203.773 289.073 203.321 289.511 203.001C289.949 202.681 290.476 202.508 291.017 202.508H297.069C297.611 202.507 298.139 202.679 298.577 203C299.015 203.32 299.34 203.772 299.507 204.291C299.675 204.808 300.002 205.258 300.44 205.577C300.877 205.896 301.404 206.068 301.944 206.067H303.803C304.143 206.063 304.479 206.127 304.793 206.255C305.108 206.383 305.394 206.573 305.635 206.813C305.876 207.053 306.068 207.339 306.198 207.654C306.329 207.969 306.396 208.308 306.396 208.649Z" fill="#292F79"/>
<path opacity="0.3" d="M304.218 209.724V233.982H274.771C274.093 233.982 273.443 233.711 272.963 233.228C272.484 232.746 272.215 232.091 272.215 231.408V208.649C272.213 208.258 272.301 207.872 272.474 207.522H302.033C302.61 207.532 303.16 207.767 303.568 208.178C303.975 208.589 304.209 209.143 304.218 209.724Z" fill="white"/>
<path d="M237.04 175.108V203.605L231.514 209.172H211.245V175.108H237.04Z" fill="#407BFF"/>
<path opacity="0.4" d="M237.04 175.108V203.605L231.514 209.172H211.245V175.108H237.04Z" fill="white"/>
<path d="M237.04 203.605H231.514V209.172L237.04 203.605Z" fill="#407BFF"/>
<path d="M233.914 180.891H214.46V181.958H233.914V180.891Z" fill="#407BFF"/>
<path d="M230.825 184.167H214.46V185.234H230.825V184.167Z" fill="#407BFF"/>
<path d="M233.914 187.435H214.46V188.502H233.914V187.435Z" fill="#407BFF"/>
<path d="M221.72 190.711H214.46V191.778H221.72V190.711Z" fill="#407BFF"/>
<path d="M219.164 193.987H214.46V195.054H219.164V193.987Z" fill="#407BFF"/>
<path d="M254.427 66.3361H201.688V110.227H254.427V66.3361Z" fill="#292F79"/>
<path opacity="0.6" d="M201.688 66.3361V110.227H254.427V66.3361H201.688ZM252.709 108.496H203.415V68.0673H252.709V108.496Z" fill="white"/>
<path opacity="0.3" d="M203.414 96.512L218.527 85.4535L229.758 96.512L240.988 90.05L252.708 97.3179V108.496H203.414V96.512Z" fill="white"/>
<path opacity="0.6" d="M239.018 78.0439C239.017 78.7623 238.804 79.4641 238.407 80.0607C238.009 80.6574 237.445 81.122 236.786 81.3959C236.127 81.6698 235.401 81.7407 234.702 81.5996C234.003 81.4586 233.361 81.1119 232.857 80.6034C232.353 80.0948 232.01 79.4473 231.872 78.7426C231.733 78.0379 231.805 77.3076 232.078 76.644C232.351 75.9805 232.814 75.4134 233.407 75.0144C234 74.6154 234.697 74.4025 235.411 74.4025C235.885 74.4025 236.355 74.4967 236.793 74.6798C237.231 74.8629 237.629 75.1312 237.964 75.4695C238.299 75.8077 238.565 76.2092 238.746 76.6509C238.927 77.0927 239.019 77.566 239.018 78.0439Z" fill="white"/>
<path d="M257.872 112.048V113.54H256.391" stroke="#263238" stroke-miterlimit="10"/>
<path d="M254.064 113.548H201.021" stroke="#263238" stroke-miterlimit="10" stroke-dasharray="4.18 3.14"/>
<path d="M199.859 113.54H198.377V112.048" stroke="#263238" stroke-miterlimit="10"/>
<path d="M198.377 109.891V65.672" stroke="#263238" stroke-miterlimit="10" stroke-dasharray="3.85 2.89"/>
<path d="M198.377 64.5901V63.0977H199.859" stroke="#263238" stroke-miterlimit="10"/>
<path d="M202.185 63.0977H255.227" stroke="#263238" stroke-miterlimit="10" stroke-dasharray="4.18 3.14"/>
<path d="M256.391 63.0977H257.872V64.5901" stroke="#263238" stroke-miterlimit="10"/>
<path d="M257.872 66.7466V110.973" stroke="#263238" stroke-miterlimit="10" stroke-dasharray="3.85 2.89"/>
<path d="M259.035 61.9187H256.701V64.2692H259.035V61.9187Z" fill="#263238"/>
<path d="M259.035 112.368H256.701V114.719H259.035V112.368Z" fill="#263238"/>
<path d="M199.54 112.368H197.206V114.719H199.54V112.368Z" fill="#263238"/>
<path d="M199.54 61.9187H197.206V64.2692H199.54V61.9187Z" fill="#263238"/>
<path d="M229.224 61.9187H226.891V64.2692H229.224V61.9187Z" fill="#263238"/>
<path d="M229.291 112.368H226.957V114.719H229.291V112.368Z" fill="#263238"/>
<path d="M259.035 87.1473H256.701V89.4978H259.035V87.1473Z" fill="#263238"/>
<path d="M199.54 87.1473H197.206V89.4978H199.54V87.1473Z" fill="#263238"/>
<path d="M129.644 135.523L121.762 141.97C121.762 141.97 119.835 142.007 119.228 142.649C118.62 143.291 116.265 148.059 116.628 148.708C116.991 149.357 120.843 150.641 121.665 149.872C122.488 149.103 123.888 144.693 123.888 144.223L133.963 137.418L129.644 135.523Z" fill="#EBB376"/>
<path d="M125.406 138.5L127.169 142.373C127.169 142.373 138.008 137.299 140.356 134.314C140.956 133.568 141.786 132.322 142.682 130.926C144.164 128.621 145.823 125.845 146.979 123.897C147.838 122.442 148.416 121.45 148.416 121.45L142.282 111.704C140.941 112.742 136.837 129.397 136.104 130.292C135.37 131.187 125.406 138.5 125.406 138.5Z" fill="#292F79"/>
<path opacity="0.1" d="M142.683 130.896C144.164 128.591 145.824 125.815 146.979 123.867L144.127 116.779C144.127 116.779 142.579 124.912 142.683 130.896Z" fill="black"/>
<path d="M192.65 98.6835L200.414 92.6095C200.414 92.6095 201.044 90.7739 201.837 90.3709C202.629 89.968 207.845 89.2144 208.356 89.7292C208.867 90.2441 208.889 94.3705 207.911 94.9525C206.933 95.5346 202.333 95.5196 201.896 95.348L193.413 101.586L192.65 98.6835Z" fill="#EBB376"/>
<path d="M127.073 265.643L131.718 266.471L133.63 260.084L135.363 254.219L130.007 252.331L128.451 259.375L127.073 265.643Z" fill="#EBB376"/>
<path opacity="0.2" d="M128.422 259.524L133.608 260.211L135.356 254.286L130 252.361L128.422 259.524Z" fill="black"/>
<path d="M158.113 265.755H162.84L163.61 259.375L164.314 253.421L158.706 252.562L158.395 259.562L158.113 265.755Z" fill="#EBB376"/>
<path opacity="0.2" d="M158.395 259.98L163.61 259.748L164.314 253.607L158.706 252.652L158.395 259.98Z" fill="black"/>
<path d="M127.984 254.398L135.63 255.756C143.342 236.4 148.831 220.238 152.669 206.829C154.758 199.591 156.41 193.158 157.662 187.428L157.336 208.507V256.047H165.048C183.931 165.758 170.552 144.768 170.552 144.768L147.957 140.963C147.061 145.176 146.43 149.443 146.068 153.737L145.045 161.281L136.215 207.232L127.984 254.398Z" fill="#263238"/>
<path d="M136.83 254.809L127.348 251.637L127.474 255.704L135.319 258.219L136.83 254.809Z" fill="#407BFF"/>
<path opacity="0.6" d="M136.83 254.809L127.348 251.637L127.474 255.704L135.319 258.219L136.83 254.809Z" fill="white"/>
<path d="M166.099 255.249L156.217 253.786L157.039 257.771L165.196 258.875L166.099 255.249Z" fill="#407BFF"/>
<path opacity="0.6" d="M166.099 255.249L156.217 253.786L157.039 257.771L165.196 258.875L166.099 255.249Z" fill="white"/>
<path opacity="0.2" d="M151.668 210.373C152.024 209.164 152.409 207.985 152.735 206.829C154.631 200.255 155.891 194.352 157.372 189.047L158.113 179.287C158.113 179.287 153.276 168.564 155.083 161.02C154.92 161.445 151.72 169.668 152.979 177.884C153.275 188.731 152.836 199.586 151.668 210.373Z" fill="black"/>
<path d="M151.016 101.877C151.079 101.922 151.146 101.959 151.216 101.989C152.161 102.541 153.207 102.897 154.291 103.034C157.447 103.347 159.476 102.653 160.662 101.079C162.306 98.7357 162.299 94.9674 161.454 90.5276C161.177 88.7543 160.622 87.0366 159.81 85.4386C159.81 85.4386 159.81 85.3714 159.81 85.3565C159.81 85.3416 159.743 85.2296 159.706 85.1774C159.21 84.2804 158.498 83.5229 157.636 82.9742C156.774 82.4254 155.79 82.1029 154.772 82.036C153.887 81.9542 152.995 81.9717 152.113 82.0882C143.43 83.1254 143.719 97.7507 151.016 101.877Z" fill="#EBB376"/>
<path opacity="0.2" d="M151.217 101.989C152.164 102.502 153.205 102.817 154.276 102.914C157.432 103.228 159.462 102.429 160.633 100.833C158.862 101.53 156.913 101.624 155.084 101.101C154.415 100.943 153.719 100.941 153.048 101.095C152.378 101.249 151.752 101.555 151.217 101.989Z" fill="black"/>
<path d="M150.564 109.13C149.786 111.563 152.89 112.898 152.89 112.898C158.35 111.16 159.595 108.421 159.595 108.421C155.446 105.69 157.372 99.3252 157.372 99.3252L156.439 99.6759L150.075 100.288C150.075 100.288 151.483 103.81 151.638 104.593C152.401 108.75 150.564 109.13 150.564 109.13Z" fill="#EBB376"/>
<path d="M159.817 85.3789C159.817 85.3789 161.084 91.4305 155.669 94.8108C155.669 94.8108 154.024 101.482 150.394 102.049C145.453 102.795 140.171 96.2882 140.949 88.8263C141.964 79.1557 155.98 76.5441 159.817 85.3789Z" fill="#263238"/>
<path d="M158.358 92.6692C158.232 91.7141 157.261 90.2142 155.817 90.6246C154.372 91.035 153.972 94.9451 157.824 95.2958C158.373 95.348 158.617 94.6615 158.358 92.6692Z" fill="#EBB376"/>
<path d="M163.336 264.897H158.069C157.959 264.895 157.852 264.932 157.767 265.002C157.681 265.071 157.623 265.169 157.602 265.278L156.521 270.195C156.498 270.3 156.496 270.408 156.515 270.514C156.534 270.619 156.573 270.72 156.631 270.81C156.689 270.901 156.764 270.978 156.852 271.039C156.94 271.1 157.039 271.143 157.143 271.165C157.202 271.172 157.262 271.172 157.321 271.165C159.477 271.165 159.654 271.001 162.358 271.001C164.025 271.001 169.063 271.172 171.367 271.172C173.671 271.172 173.967 268.882 173.026 268.673C168.796 267.74 165.618 266.434 164.262 265.233C164.007 265.006 163.676 264.886 163.336 264.897Z" fill="#263238"/>
<path d="M163.722 265.643C163.695 265.638 163.672 265.624 163.654 265.604C163.637 265.584 163.627 265.558 163.625 265.531C163.622 265.507 163.625 265.481 163.636 265.459C163.647 265.436 163.663 265.417 163.685 265.404C163.885 265.277 165.655 264.181 166.263 264.501C166.331 264.534 166.389 264.586 166.428 264.651C166.468 264.716 166.488 264.791 166.485 264.867C166.505 264.998 166.49 265.132 166.442 265.255C166.394 265.378 166.314 265.487 166.211 265.568C165.904 265.785 165.532 265.885 165.159 265.852C164.673 265.838 164.191 265.768 163.722 265.643ZM164.099 265.464C164.741 265.679 165.438 265.644 166.055 265.367C166.119 265.308 166.168 265.235 166.198 265.153C166.228 265.071 166.237 264.983 166.226 264.897C166.226 264.785 166.181 264.74 166.144 264.74C166.092 264.713 166.033 264.7 165.974 264.703C165.306 264.827 164.667 265.078 164.092 265.442L164.099 265.464Z" fill="#407BFF"/>
<path d="M163.677 265.643C163.657 265.63 163.642 265.612 163.631 265.591C163.621 265.57 163.616 265.547 163.617 265.524C163.617 265.449 163.758 263.86 164.358 263.337C164.434 263.272 164.522 263.223 164.618 263.194C164.714 263.166 164.815 263.159 164.914 263.173C165.012 263.172 165.108 263.205 165.184 263.268C165.26 263.331 165.311 263.419 165.329 263.516C165.447 264.099 164.351 265.315 163.78 265.621H163.721C163.708 265.631 163.693 265.639 163.677 265.643ZM164.558 263.494C164.17 263.99 163.943 264.595 163.906 265.225C164.477 264.792 165.173 263.875 165.106 263.516C165.106 263.479 165.106 263.382 164.914 263.382H164.855C164.744 263.383 164.639 263.426 164.558 263.502V263.494Z" fill="#407BFF"/>
<path d="M131.903 264.897H126.629C126.519 264.898 126.414 264.936 126.329 265.005C126.244 265.074 126.185 265.17 126.162 265.278L125.08 270.195C125.057 270.3 125.055 270.408 125.074 270.514C125.093 270.62 125.133 270.72 125.191 270.811C125.249 270.901 125.324 270.978 125.411 271.039C125.499 271.1 125.598 271.143 125.703 271.165C125.762 271.172 125.821 271.172 125.88 271.165C128.044 271.165 128.214 271.001 130.925 271.001C132.592 271.001 137.593 271.172 139.926 271.172C142.26 271.172 142.534 268.882 141.593 268.673C137.363 267.74 134.185 266.434 132.822 265.233C132.57 265.006 132.241 264.886 131.903 264.897Z" fill="#263238"/>
<path d="M132.273 265.643C132.247 265.638 132.223 265.624 132.206 265.604C132.189 265.584 132.178 265.558 132.177 265.531C132.175 265.506 132.18 265.48 132.192 265.458C132.204 265.436 132.222 265.417 132.244 265.404C132.436 265.277 134.207 264.181 134.822 264.501C134.889 264.536 134.945 264.588 134.984 264.653C135.023 264.717 135.044 264.791 135.044 264.867C135.064 264.998 135.05 265.132 135.001 265.255C134.953 265.378 134.873 265.487 134.77 265.568C134.462 265.782 134.091 265.882 133.718 265.852C133.23 265.838 132.745 265.768 132.273 265.643ZM132.651 265.464C133.292 265.679 133.99 265.644 134.607 265.367C134.672 265.309 134.722 265.236 134.753 265.154C134.784 265.072 134.795 264.984 134.785 264.897C134.785 264.785 134.733 264.74 134.696 264.74C134.646 264.712 134.59 264.699 134.533 264.703C133.866 264.829 133.227 265.08 132.651 265.442V265.464Z" fill="#407BFF"/>
<path d="M132.244 265.643C132.222 265.632 132.205 265.614 132.193 265.593C132.181 265.572 132.176 265.548 132.177 265.524C132.177 265.449 132.318 263.86 132.955 263.337C133.028 263.271 133.116 263.222 133.211 263.193C133.305 263.165 133.405 263.158 133.503 263.173C133.602 263.171 133.699 263.205 133.776 263.268C133.853 263.33 133.906 263.418 133.925 263.517C134.036 264.099 132.94 265.315 132.377 265.621H132.31L132.244 265.643ZM133.118 263.494C132.732 263.991 132.507 264.595 132.473 265.225C133.036 264.793 133.733 263.875 133.666 263.517C133.666 263.479 133.666 263.382 133.481 263.382H133.414C133.304 263.383 133.198 263.426 133.118 263.502V263.494Z" fill="#407BFF"/>
<path d="M170.589 144.865C170.589 144.865 174.901 118.413 167.493 106.556C167.493 106.556 152.676 105.63 142.305 111.682C142.305 111.682 146.601 123.457 147.246 144.865H170.589Z" fill="#292F79"/>
<path opacity="0.1" d="M171.938 124.614C172.256 121.024 171.197 117.57 171.049 114.525C169.195 112.877 167.557 110.999 166.174 108.936C166.174 108.936 164.833 119.659 171.938 124.614Z" fill="black"/>
<path d="M165.655 106.504C165.655 106.504 180.316 104.772 182.524 103.84C183.901 103.258 194.68 96.1614 194.68 96.1614L197.207 99.9893C197.207 99.9893 186.183 108.944 184.316 109.988C179.945 112.406 170.122 115.823 170.122 115.823C170.122 115.823 164.188 111.63 165.655 106.504Z" fill="#292F79"/>
<path d="M159.596 89.386C159.596 89.386 165.693 83.2448 159.944 79.111C154.195 74.9771 148.417 80.372 148.417 80.372C148.417 80.372 134.667 83.7149 137.593 92.9304C140.519 102.146 142.431 102.922 138.075 107.645C133.719 112.369 129.274 119.39 133.726 123.867C138.178 128.344 153.728 123.74 158.462 116.987C163.196 110.234 154.832 95.7211 159.596 89.386Z" fill="#263238"/>
<path d="M147.231 144.865L147.135 142.358L170.856 142.962V145.283L147.231 144.865Z" fill="black"/>
<path d="M154.751 142.529H153.795V144.999H154.751V142.529Z" fill="#263238"/>
<path d="M165.7 142.806H164.855V145.507H165.7V142.806Z" fill="#263238"/>
<path d="M148.594 142.395H147.786V145.283H148.594V142.395Z" fill="#263238"/>
</svg>
