<svg width="343" height="255" viewBox="0 0 343 255" fill="none" xmlns="http://www.w3.org/2000/svg">
<path d="M308.391 235.45H285.688V235.622H308.391V235.45Z" fill="#EBEBEB"/>
<path d="M227.04 237.315H221.083V237.486H227.04V237.315Z" fill="#EBEBEB"/>
<path d="M285.003 229.089H271.849V229.261H285.003V229.089Z" fill="#EBEBEB"/>
<path d="M65.565 230.241H35.9597V230.412H65.565V230.241Z" fill="#EBEBEB"/>
<path d="M76.0109 230.241H71.6719V230.412H76.0109V230.241Z" fill="#EBEBEB"/>
<path d="M154.333 233.134H90.1186V233.305H154.333V233.134Z" fill="#EBEBEB"/>
<path d="M162.455 193.85H30.0985C29.0616 193.848 28.0678 193.435 27.3353 192.701C26.6028 191.967 26.1913 190.972 26.1913 189.936V3.87973C26.2004 2.84881 26.6158 1.86308 27.3473 1.13665C28.0789 0.410222 29.0675 0.00176602 30.0985 0H162.455C163.493 0 164.489 0.412368 165.223 1.14639C165.957 1.88041 166.369 2.87595 166.369 3.91401V189.936C166.369 190.974 165.957 191.969 165.223 192.703C164.489 193.437 163.493 193.85 162.455 193.85ZM30.0985 0.137094C29.1071 0.138909 28.1569 0.534022 27.4565 1.23571C26.7561 1.93739 26.3627 2.88831 26.3627 3.87973V189.936C26.3627 190.927 26.7561 191.878 27.4565 192.58C28.1569 193.281 29.1071 193.676 30.0985 193.678H162.455C163.447 193.676 164.398 193.282 165.099 192.58C165.801 191.879 166.196 190.928 166.198 189.936V3.87973C166.196 2.88768 165.801 1.93678 165.099 1.23529C164.398 0.5338 163.447 0.138906 162.455 0.137094H30.0985Z" fill="#EBEBEB"/>
<path d="M310.728 193.85H178.365C177.327 193.848 176.333 193.435 175.599 192.701C174.865 191.968 174.452 190.973 174.451 189.936V3.87973C174.461 2.84819 174.878 1.86246 175.611 1.13622C176.344 0.409983 177.333 0.00174676 178.365 0H310.728C311.758 0.0035675 312.745 0.412821 313.475 1.13906C314.205 1.86529 314.619 2.85 314.628 3.87973V189.936C314.628 190.971 314.218 191.965 313.487 192.698C312.756 193.432 311.764 193.846 310.728 193.85ZM178.365 0.137094C177.373 0.138906 176.422 0.5338 175.72 1.23529C175.019 1.93678 174.624 2.88768 174.622 3.87973V189.936C174.624 190.928 175.019 191.879 175.72 192.58C176.422 193.282 177.373 193.676 178.365 193.678H310.728C311.72 193.676 312.671 193.282 313.372 192.58C314.074 191.879 314.469 190.928 314.471 189.936V3.87973C314.469 2.88768 314.074 1.93678 313.372 1.23529C312.671 0.5338 311.72 0.138906 310.728 0.137094H178.365Z" fill="#EBEBEB"/>
<path d="M342.733 224.421H0V224.593H342.733V224.421Z" fill="#EBEBEB"/>
<path d="M238.09 164.564C274.941 127.714 274.941 67.9679 238.09 31.1176C201.24 -5.73278 141.494 -5.73278 104.643 31.1176C67.793 67.9679 67.793 127.714 104.643 164.564C141.494 201.415 201.24 201.415 238.09 164.564Z" fill="#E6E6E6"/>
<path d="M183.999 10.282L195.892 17.4177V28.7896C195.892 28.7896 186.871 27.5557 183.999 22.6204C183.999 22.6204 186.46 21.5785 179.482 17.4177C172.504 13.2569 174.149 8.22559 183.999 10.282Z" fill="#FAFAFA"/>
<path d="M177.433 100.571L170.578 103.855C170.578 103.855 168.522 107.824 168.94 107.687C169.358 107.549 167.439 115.912 167.843 116.029C168.248 116.145 163.881 119.723 163.881 119.723L161.825 124.782V130.663L171.702 144.064L178.92 148.177L172.628 182.635L175.226 183.595L208.046 159.521L210.232 153.647L219.945 149.815L225.141 136.277L231.022 129.423C231.022 129.423 231.571 122.568 231.022 122.726C230.474 122.883 227.876 123.816 227.876 123.816L222.955 120.121C222.955 120.121 212.563 118.208 211.987 118.75C211.411 119.292 209.807 112.389 209.807 112.389L200.211 109.722L190.224 103.156L182.978 104.527L177.433 100.571Z" fill="#FAFAFA"/>
<path d="M158.816 83.6268H164.101L171.641 87.5682L185.679 91.0846L186.365 92.2088L172.45 91.9894L175.027 90.3786L172.971 89.0625L167.363 88.9323L168.049 88.2468L162.25 85.2787C162.25 85.2787 158.617 84.4151 158.48 84.8263L156.972 85.0114L158.816 83.6268Z" fill="#FAFAFA"/>
<path d="M169.687 92.2294L168.405 90.9818L166.308 91.0847L167.178 92.2294H169.687Z" fill="#FAFAFA"/>
<path d="M202.898 10.2819H201.259L212.947 17.2874L214.797 19.2821L226.286 25.9037L228.514 28.7895L230.357 35.1506L236.527 40.0723L233.655 42.1286L240.221 50.3542H242.476L243.299 47.0709L238.371 36.7889L245.225 40.6138C245.225 40.6138 230.563 17.822 202.898 10.2819Z" fill="#FAFAFA"/>
<path d="M250.977 48.0579H249.201L246.24 44.1576L243.08 52.7808C243.08 52.7808 245.034 62.8366 245.184 63.4535C245.335 64.0704 244.307 65.5099 244.307 65.5099L245.184 76.587L247.453 80.4736L249.194 89.9056L256.926 100.571L263.219 91.6056L264.24 93.8059C264.24 93.8059 265.275 71.0347 250.977 48.0579Z" fill="#FAFAFA"/>
<path d="M204.92 19.2889H202.87V21.7978L204.92 23.0316H206.771V21.1603L204.92 19.2889Z" fill="#FAFAFA"/>
<path d="M217.437 24.2585L220.514 27.5419L221.33 30.2975L224.408 33.2861L225.642 31.4422L227.897 33.2861V31.2366L226.259 28.7758L217.437 24.2585Z" fill="#FAFAFA"/>
<path d="M195.9 46.0084C195.9 46.0084 181.505 51.3414 176.199 54.6247C170.894 57.9081 171.73 64.9067 171.73 64.9067L163.073 69.7941L165.129 79.2329L163.073 80.4599L159.789 72.6593C159.789 72.6593 148.301 71.0211 143.503 71.8436C138.704 72.6662 137.635 82.1256 137.635 82.1256L140.521 89.9056L147.088 90.3169L147.91 85.8066L154.881 86.211L150.371 94.8273L158.597 96.0611L159.399 102.114L167.624 108.372C167.624 108.372 169.262 110.428 167.624 111.244C165.986 112.06 127.004 88.6787 123.309 82.9345C119.614 77.1903 114.864 61.3903 118.586 50.3131C121.588 41.313 127.154 32.9983 128.923 27.5557L128.985 27.3706C129.04 27.2234 129.083 27.0722 129.115 26.9182C129.615 24.7796 127.915 23.4223 126.585 23.0453C125.153 22.6341 122.473 24.2792 122.473 24.2792H117.215L122.651 21.174L124.913 18.7886L126.345 17.5068L131.678 15.2516L131.48 13.6065C137.217 10.3231 141.529 9.80899 141.529 9.80899L137.628 12.7839H141.741L142.577 17.4177H150.803C150.803 17.4177 148.747 16.8761 153.675 14.1617C158.603 11.4473 174.561 10.282 174.561 10.282L169.639 17.4177L180.278 23.4429L179.044 27.9533L171.703 25.8969V23.4429L167.151 20.701L166.74 25.4993L165.102 27.5557L163.045 25.9174L157.26 31.6616L167.542 41.69L169.228 28.7895L184 32.0729L195.9 46.0084Z" fill="#FAFAFA"/>
<path d="M71.1843 46.1261C73.4732 36.4285 67.4672 26.7116 57.7696 24.4228C48.0721 22.134 38.3552 28.1399 36.0663 37.8375C33.7775 47.5351 39.7835 57.252 49.481 59.5408C59.1786 61.8297 68.8955 55.8237 71.1843 46.1261Z" fill="#FAFAFA"/>
<path d="M63.335 56.2797C69.0569 53.9096 71.7742 47.3496 69.404 41.6276C67.0339 35.9056 60.474 33.1884 54.752 35.5585C49.03 37.9287 46.3127 44.4886 48.6829 50.2106C51.053 55.9326 57.613 58.6498 63.335 56.2797Z" fill="#EBEBEB"/>
<path d="M60.7598 51.8829C63.493 51.8829 65.7088 49.6671 65.7088 46.9338C65.7088 44.2005 63.493 41.9847 60.7598 41.9847C58.0265 41.9847 55.8107 44.2005 55.8107 46.9338C55.8107 49.6671 58.0265 51.8829 60.7598 51.8829Z" fill="#E0E0E0"/>
<path d="M61.3079 38.7562C61.3079 39.5574 61.0703 40.3406 60.6251 41.0068C60.18 41.673 59.5473 42.1923 58.807 42.4989C58.0668 42.8055 57.2523 42.8857 56.4664 42.7294C55.6806 42.5731 54.9588 42.1873 54.3922 41.6207C53.8256 41.0542 53.4398 40.3323 53.2835 39.5465C53.1272 38.7607 53.2074 37.9461 53.514 37.2059C53.8206 36.4656 54.3399 35.8329 55.0061 35.3878C55.6723 34.9427 56.4555 34.7051 57.2568 34.7051C58.3312 34.7051 59.3616 35.1319 60.1213 35.8916C60.881 36.6513 61.3079 37.6818 61.3079 38.7562Z" fill="white"/>
<path d="M256.954 25.465L277.442 10.0901L281.171 18.8434L260.628 34.0539L256.954 25.465Z" fill="#F5F5F5"/>
<path d="M256.906 25.4376C256.926 25.463 256.953 25.4822 256.983 25.4931C257.013 25.504 257.046 25.5062 257.077 25.4993C257.096 25.503 257.114 25.503 257.132 25.4993L259.312 23.8679L260.093 25.7255L257.866 27.3912C257.832 27.4171 257.809 27.4551 257.803 27.4973C257.796 27.5396 257.807 27.5826 257.831 27.6174C257.851 27.6427 257.878 27.662 257.908 27.6729C257.939 27.6838 257.971 27.6859 258.003 27.6791H258.058L260.224 26.0614L261.005 27.9258L258.791 29.5641C258.762 29.5958 258.745 29.6374 258.745 29.6806C258.745 29.7239 258.762 29.7655 258.791 29.7972C258.81 29.8235 258.837 29.8431 258.868 29.8529C258.899 29.8628 258.932 29.8625 258.962 29.852C258.962 29.852 258.997 29.852 259.017 29.852L261.163 28.1795L261.937 30.0371L259.751 31.6616C259.723 31.685 259.703 31.7171 259.695 31.7528C259.687 31.7885 259.692 31.8259 259.707 31.8589C259.723 31.8919 259.749 31.9187 259.782 31.9351C259.815 31.9516 259.852 31.9566 259.888 31.9495C259.906 31.9558 259.925 31.9558 259.943 31.9495L262.068 30.373L262.849 32.2374L260.676 33.8414C260.642 33.8673 260.62 33.9054 260.613 33.9476C260.607 33.9898 260.617 34.0328 260.642 34.0676C260.66 34.0944 260.687 34.1147 260.718 34.1257C260.748 34.1368 260.782 34.138 260.813 34.1293C260.831 34.133 260.85 34.133 260.868 34.1293L271.931 25.9517L274.324 29.1117C274.344 29.1371 274.37 29.1563 274.401 29.1672C274.431 29.1781 274.464 29.1803 274.495 29.1734C274.513 29.1771 274.532 29.1771 274.55 29.1734C274.567 29.1612 274.582 29.1455 274.594 29.1273C274.605 29.1091 274.612 29.0888 274.616 29.0677C274.619 29.0465 274.618 29.0249 274.612 29.0042C274.607 28.9835 274.597 28.9641 274.584 28.9472L272.192 25.7872L281.295 19.0628C281.33 19.0373 281.354 18.9988 281.361 18.9558C281.368 18.9127 281.358 18.8686 281.333 18.8331C281.307 18.7977 281.269 18.7738 281.226 18.7667C281.183 18.7597 281.138 18.77 281.103 18.7954L278.862 20.4543L278.039 18.5075L280.356 16.787C280.378 16.7765 280.397 16.7613 280.412 16.7425C280.427 16.7238 280.438 16.7019 280.444 16.6784C280.449 16.655 280.45 16.6306 280.445 16.6069C280.441 16.5833 280.431 16.5609 280.416 16.5415C280.402 16.522 280.384 16.506 280.362 16.4945C280.341 16.483 280.318 16.4763 280.294 16.4748C280.27 16.4734 280.245 16.4773 280.223 16.4862C280.201 16.4952 280.18 16.5089 280.164 16.5266L277.929 18.1785L277.134 16.3003L279.424 14.6004C279.441 14.5875 279.456 14.5712 279.468 14.5524C279.479 14.5337 279.487 14.5128 279.49 14.4911C279.493 14.4694 279.492 14.4472 279.486 14.426C279.481 14.4047 279.471 14.3848 279.458 14.3673C279.427 14.3399 279.386 14.3247 279.345 14.3247C279.303 14.3247 279.263 14.3399 279.232 14.3673L277.004 16.0262L276.209 14.1411L278.491 12.4412C278.513 12.4306 278.532 12.4154 278.547 12.3967C278.563 12.3779 278.573 12.356 278.579 12.3326C278.585 12.3092 278.585 12.2847 278.581 12.2611C278.576 12.2374 278.566 12.2151 278.552 12.1956C278.538 12.1762 278.519 12.1602 278.498 12.1486C278.477 12.1371 278.453 12.1304 278.429 12.129C278.405 12.1276 278.381 12.1315 278.359 12.1404C278.336 12.1493 278.316 12.1631 278.299 12.1807L276.079 13.8327L275.283 11.9545L277.559 10.2545C277.577 10.2417 277.592 10.2254 277.603 10.2066C277.615 10.1878 277.622 10.167 277.625 10.1452C277.629 10.1235 277.627 10.1014 277.622 10.0801C277.616 10.0589 277.607 10.0389 277.593 10.0215C277.563 9.99256 277.522 9.97644 277.48 9.97644C277.438 9.97644 277.398 9.99256 277.367 10.0215L275.098 11.6529C275.077 11.6426 275.053 11.6372 275.03 11.6372C275.006 11.6372 274.983 11.6426 274.961 11.6529C274.928 11.6686 274.901 11.6943 274.884 11.7263C274.867 11.7584 274.86 11.7951 274.865 11.8311L271.959 14.004C271.939 13.9938 271.916 13.9885 271.894 13.9885C271.871 13.9885 271.849 13.9938 271.829 14.004C271.795 14.0188 271.767 14.0444 271.75 14.0766C271.733 14.1089 271.727 14.1461 271.733 14.1823L268.826 16.3552C268.785 16.338 268.738 16.338 268.696 16.3552C268.664 16.3696 268.637 16.3941 268.62 16.425C268.602 16.4558 268.596 16.4915 268.6 16.5266L265.687 18.7063C265.667 18.6961 265.644 18.6908 265.622 18.6908C265.599 18.6908 265.577 18.6961 265.557 18.7063C265.525 18.7195 265.498 18.7428 265.481 18.7725C265.464 18.8022 265.457 18.8367 265.461 18.8708L262.534 21.0164C262.514 21.0081 262.493 21.0038 262.472 21.0038C262.451 21.0038 262.43 21.0081 262.41 21.0164C262.379 21.0296 262.352 21.0528 262.335 21.0825C262.317 21.1122 262.31 21.1467 262.314 21.1809L259.401 23.3606C259.361 23.3471 259.318 23.3471 259.278 23.3606C259.246 23.3739 259.219 23.3971 259.202 23.4268C259.185 23.4565 259.178 23.491 259.182 23.5252L256.927 25.2114C256.91 25.2247 256.896 25.2411 256.886 25.2598C256.876 25.2785 256.87 25.299 256.868 25.3201C256.866 25.3412 256.869 25.3625 256.875 25.3827C256.882 25.4029 256.892 25.4216 256.906 25.4376ZM265.33 27.494L264.542 25.6295L267.421 23.4909L268.203 25.3622L265.33 27.494ZM268.333 25.6707L269.121 27.542L266.242 29.6669L265.454 27.8025L268.333 25.6707ZM271.616 22.8328L270.828 20.9547L273.7 18.8229L274.495 20.701L271.616 22.8328ZM274.625 21.0026L275.42 22.8808L272.542 25.0126L271.746 23.1413L274.625 21.0026ZM267.558 22.9836L266.77 21.1192L269.642 18.9737L270.43 20.8518L267.558 22.9836ZM266.647 20.8176L265.858 18.9531L268.703 16.8076L269.491 18.6789L266.647 20.8176ZM268.998 16.6088L271.863 14.4633L272.658 16.3415L269.779 18.5075L268.998 16.6088ZM272.788 16.6499L273.57 18.5075L270.698 20.6393L269.909 18.768L272.788 16.6499ZM271.356 23.0453L270.588 23.6143L269.388 22.0446L270.561 21.174L271.356 23.0453ZM270.327 23.8062L268.477 25.1771L267.688 23.3058L269.128 22.2365L270.327 23.8062ZM264.412 25.3622L263.63 23.4977L266.503 21.3591L267.291 23.2235L264.412 25.3622ZM263.5 23.1893L262.719 21.3248L265.584 19.1793L266.372 21.0506L263.5 23.1893ZM275.791 14.0315L272.919 16.1701L272.13 14.2645L275.002 12.119L275.791 14.0315ZM276.716 16.2181L273.844 18.3567L273.049 16.4512L275.921 14.3125L276.716 16.2181ZM277.614 18.3773L274.735 20.5091L273.947 18.6378L276.819 16.4991L277.614 18.3773ZM278.539 20.5708L275.66 22.6957L274.872 20.8176L277.751 18.6858L278.539 20.5708ZM271.938 25.4445L270.759 23.8747L271.445 23.3538L272.233 25.2251L271.938 25.4445ZM271.678 25.6432L269.388 27.3501L268.6 25.4856L270.513 24.0667L271.678 25.6432ZM262.314 30.1605L265.186 28.0287L265.961 29.8794L263.082 32.0112L262.314 30.1605ZM261.403 27.9944L264.275 25.8557L265.056 27.7202L262.184 29.852L261.403 27.9944ZM260.477 25.8078L263.349 23.6691L264.131 25.5336L261.259 27.6722L260.477 25.8078ZM259.566 23.6417L262.438 21.4962L263.219 23.3606L260.347 25.4993L259.566 23.6417Z" fill="#E6E6E6"/>
<path d="M287.173 37.3781C289.595 32.7538 287.811 27.041 283.186 24.6184C278.562 22.1957 272.849 23.9805 270.427 28.6048C268.004 33.2291 269.789 38.9419 274.413 41.3645C279.037 43.7872 284.75 42.0024 287.173 37.3781Z" fill="#FAFAFA"/>
<path d="M281.036 36.8366C282.317 33.8559 280.939 30.401 277.959 29.1198C274.978 27.8385 271.523 29.2162 270.242 32.1969C268.96 35.1776 270.338 38.6325 273.319 39.9137C276.3 41.1949 279.754 39.8172 281.036 36.8366Z" fill="#EBEBEB"/>
<path d="M276.139 37.0101C277.316 36.1956 277.609 34.5815 276.795 33.4049C275.98 32.2283 274.366 31.9347 273.19 32.7491C272.013 33.5635 271.719 35.1776 272.534 36.3542C273.348 37.5309 274.962 37.8245 276.139 37.0101Z" fill="#E0E0E0"/>
<path d="M275.153 30.6197C275.077 31.0334 275.125 31.4602 275.292 31.8464C275.458 32.2325 275.736 32.5604 276.089 32.7887C276.442 33.017 276.855 33.1353 277.276 33.1287C277.696 33.1221 278.105 32.9909 278.451 32.7517C278.797 32.5124 279.064 32.1759 279.219 31.7848C279.373 31.3937 279.408 30.9655 279.319 30.5544C279.23 30.1434 279.021 29.768 278.719 29.4758C278.416 29.1836 278.034 28.9877 277.62 28.9129C277.067 28.8129 276.496 28.9365 276.034 29.2564C275.571 29.5763 275.254 30.0666 275.153 30.6197Z" fill="white"/>
<path d="M285.73 42.7936H285.784C285.818 42.7677 285.841 42.7296 285.847 42.6874C285.854 42.6452 285.843 42.6022 285.819 42.5674L282.768 38.5437C282.74 38.5174 282.704 38.5018 282.666 38.4995C282.627 38.4972 282.589 38.5085 282.558 38.5313C282.527 38.5541 282.505 38.587 282.496 38.6243C282.487 38.6617 282.491 38.701 282.508 38.7356L285.558 42.7593C285.581 42.7799 285.609 42.7939 285.639 42.7999C285.669 42.806 285.701 42.8038 285.73 42.7936Z" fill="#E0E0E0"/>
<path d="M296.032 32.5322L299.864 41.032L279.32 56.5578L275.427 48.0306L296.032 32.5322Z" fill="#F5F5F5"/>
<path d="M275.482 47.9825C275.501 48.0079 275.528 48.0271 275.558 48.038C275.589 48.0489 275.621 48.0511 275.653 48.0442H275.708L277.839 46.4402L278.669 48.2567L276.441 49.9293C276.407 49.9564 276.384 49.9956 276.378 50.039C276.371 50.0823 276.382 50.1264 276.407 50.1623C276.426 50.1887 276.453 50.2082 276.484 50.2181C276.514 50.228 276.548 50.2276 276.578 50.2172C276.598 50.2224 276.62 50.2224 276.64 50.2172L278.813 48.5857L279.642 50.4022L277.367 52.109C277.337 52.1407 277.321 52.1824 277.321 52.2256C277.321 52.2688 277.337 52.3104 277.367 52.3421C277.385 52.3684 277.412 52.388 277.443 52.3979C277.474 52.4078 277.507 52.4074 277.538 52.3969C277.538 52.3969 277.538 52.3969 277.593 52.3969L279.807 50.7381L280.636 52.5546L278.299 54.2066C278.271 54.2299 278.251 54.262 278.243 54.2978C278.235 54.3335 278.24 54.3708 278.255 54.4038C278.271 54.4368 278.297 54.4637 278.33 54.4801C278.363 54.4965 278.4 54.5016 278.436 54.4945H278.491L280.753 52.8014L281.527 54.5013C281.537 54.5207 281.551 54.5379 281.567 54.552C281.584 54.5661 281.603 54.5769 281.623 54.5836L279.224 56.3863C279.19 56.4122 279.168 56.4503 279.161 56.4925C279.155 56.5347 279.165 56.5778 279.19 56.6125C279.21 56.6379 279.236 56.6571 279.267 56.668C279.297 56.679 279.33 56.6811 279.361 56.6742H279.423L299.911 41.2924C299.94 41.2618 299.957 41.2214 299.957 41.1793C299.957 41.1372 299.94 41.0967 299.911 41.0662C299.88 41.0387 299.84 41.0236 299.798 41.0236C299.757 41.0236 299.717 41.0387 299.685 41.0662L297.492 42.6359L296.669 40.8468L298.972 39.1126C298.99 39.1004 299.005 39.0847 299.016 39.0665C299.027 39.0483 299.035 39.028 299.038 39.0069C299.041 38.9857 299.04 38.9641 299.035 38.9434C299.029 38.9227 299.02 38.9033 299.007 38.8864C298.976 38.8575 298.936 38.8414 298.894 38.8414C298.852 38.8414 298.811 38.8575 298.78 38.8864L296.532 40.5727L295.703 38.7562L298.047 36.9945C298.065 36.9816 298.08 36.9653 298.091 36.9466C298.103 36.9278 298.11 36.9069 298.113 36.8852C298.116 36.8635 298.115 36.8414 298.11 36.8201C298.104 36.7989 298.095 36.7789 298.081 36.7615C298.051 36.7325 298.01 36.7164 297.968 36.7164C297.926 36.7164 297.886 36.7325 297.855 36.7615L295.573 38.386L294.75 36.5764L297.142 34.7873C297.171 34.7568 297.187 34.7163 297.187 34.6742C297.187 34.6321 297.171 34.5917 297.142 34.5611C297.128 34.546 297.11 34.534 297.091 34.5257C297.071 34.5175 297.05 34.5133 297.029 34.5133C297.008 34.5133 296.987 34.5175 296.968 34.5257C296.948 34.534 296.931 34.546 296.916 34.5611L294.585 36.3091L293.756 34.4926L296.183 32.6692C296.209 32.6412 296.224 32.6048 296.227 32.5664C296.229 32.5281 296.218 32.4901 296.195 32.4591C296.172 32.4282 296.139 32.4062 296.102 32.397C296.065 32.3878 296.025 32.392 295.991 32.4088L275.502 47.7906C275.478 47.8158 275.463 47.8483 275.459 47.8831C275.455 47.9178 275.463 47.9528 275.482 47.9825ZM286.175 45.4463L285.338 43.6298L288.211 41.4775L289.04 43.3008L286.175 45.4463ZM289.177 43.6024L290.007 45.4189L287.141 47.5713L286.312 45.7548L289.177 43.6024ZM285.201 43.3282L284.372 41.5117L287.237 39.3594L288.067 41.1759L285.201 43.3282ZM287.505 39.1606L290.37 37.0082L291.199 38.8247L288.334 40.9771L287.505 39.1606ZM291.336 39.1606L292.173 40.9839L289.307 43.1294L288.471 41.313L291.336 39.1606ZM292.31 41.2855L293.139 43.102L290.274 45.2407L289.444 43.4242L292.31 41.2855ZM293.276 43.4036L294.064 45.1241C294.08 45.1573 294.107 45.1839 294.14 45.1995L291.233 47.3793C291.237 47.3635 291.237 47.3472 291.233 47.3313L290.418 45.556L293.276 43.4036ZM291.007 47.5164L288.101 49.6962C288.105 49.6804 288.105 49.664 288.101 49.6482L287.285 47.8729L290.15 45.7205L290.939 47.4342C290.952 47.4682 290.976 47.497 291.007 47.5164ZM287.895 49.8607L284.982 52.0473C284.989 52.0297 284.989 52.0101 284.982 51.9925L284.173 50.224L287.038 48.0716L287.827 49.7785C287.832 49.7961 287.841 49.8124 287.853 49.8266C287.864 49.8407 287.879 49.8523 287.895 49.8607ZM284.022 49.9224L283.193 48.1059L286.045 45.9261L286.874 47.7426L284.022 49.9224ZM283.056 47.7975L282.22 45.981L285.092 43.8286L285.921 45.652L283.056 47.7975ZM282.083 45.6794L281.239 43.8697L284.105 41.7174L284.934 43.5339L282.083 45.6794ZM294.346 36.4736L291.48 38.6259L290.637 36.8094L293.502 34.6571L294.346 36.4736ZM295.319 38.5985L292.454 40.744L291.617 38.9275L294.483 36.7752L295.319 38.5985ZM296.285 40.7166L293.379 42.869L292.55 41.0525L295.415 38.9001L296.285 40.7166ZM297.279 42.8141L294.387 44.9939C294.387 44.9939 294.387 44.9939 294.387 44.9528L293.571 43.1706L296.436 41.0182L297.224 42.7387C297.232 42.7667 297.246 42.7926 297.266 42.8141H297.279ZM281.041 52.5752L283.913 50.4228L284.687 52.1296C284.706 52.167 284.738 52.1962 284.776 52.2119L281.863 54.3985C281.866 54.3781 281.866 54.3572 281.863 54.3368L281.041 52.5752ZM280.074 50.4571L282.939 48.3047L283.769 50.1212L280.904 52.2735L280.074 50.4571ZM279.108 48.3321L281.973 46.1798L282.802 48.0031L279.937 50.1486L279.108 48.3321ZM278.134 46.214L281 44.0617L281.829 45.8782L278.964 48.0305L278.134 46.214Z" fill="#E6E6E6"/>
<path d="M171.366 255C244.767 255 304.271 251.526 304.271 247.241C304.271 242.955 244.767 239.481 171.366 239.481C97.9646 239.481 38.461 242.955 38.461 247.241C38.461 251.526 97.9646 255 171.366 255Z" fill="#F5F5F5"/>
<path opacity="0.3" d="M65.7294 111.69V111.491C65.726 111.557 65.726 111.624 65.7294 111.69Z" fill="black"/>
<path d="M136.894 124.302C136.894 124.302 108.057 87.6916 88.7333 88.6581C69.41 89.6246 39.6403 123.473 39.6403 123.473C39.6403 123.473 88.8087 148.342 136.894 124.302Z" fill="#407BFF"/>
<path opacity="0.9" d="M136.894 124.302C136.894 124.302 108.057 87.6916 88.7333 88.6581C69.41 89.6246 39.6403 123.473 39.6403 123.473C39.6403 123.473 88.8087 148.342 136.894 124.302Z" fill="#FAFAFA"/>
<path d="M133.666 125.797C132.775 126.153 131.719 126.482 130.554 126.921C129.964 127.126 129.347 127.36 128.689 127.606L126.633 128.23L124.357 128.916L121.876 129.539C120.169 130.005 118.305 130.341 116.337 130.746C115.357 130.958 114.329 131.082 113.287 131.26C112.245 131.438 111.169 131.603 110.058 131.719C99.6528 132.959 89.1289 132.818 78.7601 131.301C72.5804 130.422 66.4628 129.152 60.4444 127.497C57.3187 126.64 54.1518 125.673 50.985 124.57C49.3947 124.028 47.8113 123.432 46.2279 122.822L45.042 122.349H44.9803H45.0146L45.2408 122.013C41.3542 123.48 38.4752 123.912 36.4051 123.891L36.1858 124.138C37.7349 124.823 39.243 125.557 40.8195 126.242L43.1501 127.195L44.3977 127.675C46.0702 128.285 47.729 128.874 49.3879 129.409C52.7009 130.483 55.9912 131.415 59.2586 132.206C65.5052 133.732 71.8527 134.811 78.2528 135.434C88.9879 136.535 99.826 136.073 110.429 134.063C111.553 133.871 112.636 133.618 113.691 133.378C114.747 133.138 115.748 132.912 116.762 132.624C118.73 132.062 120.587 131.575 122.28 130.958L124.741 130.122L126.983 129.245L129.039 128.429C129.683 128.162 130.286 127.867 130.855 127.606C131.993 127.078 133.015 126.633 133.871 126.194L136.024 125.056L137.785 124.117L135.935 124.871L133.666 125.797Z" fill="#407BFF"/>
<path d="M67.861 110.12C67.8015 112.942 68.308 115.748 69.3506 118.371C70.3932 120.995 71.9509 123.383 73.9316 125.394C75.9124 127.405 78.276 129 80.883 130.082C83.49 131.165 86.2876 131.715 89.1105 131.699C94.8587 131.673 100.369 129.402 104.467 125.371C108.565 121.34 110.926 115.867 111.045 110.12C111.107 107.301 110.603 104.499 109.564 101.878C108.525 99.2568 106.972 96.8704 104.996 94.8593C103.02 92.8482 100.661 91.253 98.0588 90.168C95.4565 89.083 92.6633 88.53 89.8439 88.5416C89.1227 88.5402 88.402 88.5768 87.6847 88.6513C82.3301 89.1953 77.3592 91.6781 73.708 95.6323C70.0568 99.5865 67.9773 104.739 67.861 110.12Z" fill="#292F79"/>
<path opacity="0.3" d="M67.916 109.88V110.833C68.6015 127.709 83.6817 131.027 83.6817 131.027C78.198 128.97 75.3465 123.87 73.859 119.024C73.5458 117.99 73.4798 116.896 73.6662 115.831C73.8527 114.766 74.2863 113.76 74.9324 112.893C75.5784 112.027 76.4188 111.324 77.386 110.841C78.3532 110.358 79.4202 110.109 80.5012 110.113H80.5834C80.5101 109.635 80.478 109.151 80.4874 108.667C80.5411 106.222 81.5482 103.895 83.2938 102.183C85.0394 100.471 87.3852 99.5088 89.8303 99.5022C91.0273 99.4992 92.2129 99.7354 93.3173 100.197C94.4218 100.658 95.4229 101.336 96.2619 102.19C97.101 103.043 97.761 104.056 98.2032 105.168C98.6455 106.281 98.8611 107.47 98.8374 108.667C98.824 109.153 98.7689 109.637 98.6728 110.113C99.7392 110.108 100.792 110.35 101.749 110.821C102.706 111.291 103.541 111.977 104.188 112.825C104.835 113.672 105.277 114.659 105.478 115.706C105.68 116.753 105.635 117.833 105.349 118.86C103.978 123.617 101.236 128.559 95.9927 130.581C98.6425 129.659 101.104 128.266 103.259 126.468C107.008 123.37 110.799 118.243 111.073 110.12C111.131 107.302 110.626 104.502 109.585 101.883C108.544 99.2635 106.99 96.8792 105.013 94.8702C103.037 92.8612 100.678 91.2681 98.0767 90.1847C95.475 89.1013 92.6828 88.5497 89.8646 88.5622C84.1594 88.5873 78.6859 90.822 74.5933 94.797C70.5007 98.772 68.1074 104.178 67.916 109.88Z" fill="black"/>
<path opacity="0.7" d="M80.4533 108.674C80.445 109.157 80.4748 109.641 80.5424 110.12C80.8482 112.264 81.9184 114.225 83.556 115.642C85.1935 117.059 87.2879 117.837 89.4534 117.832C91.6424 117.823 93.7591 117.047 95.434 115.638C97.109 114.228 98.2359 112.275 98.6181 110.12C98.7187 109.644 98.7715 109.16 98.7758 108.674C98.8013 107.479 98.5879 106.291 98.148 105.179C97.7081 104.068 97.0506 103.056 96.2141 102.202C95.3777 101.348 94.379 100.67 93.2769 100.208C92.1748 99.7455 90.9914 99.5079 89.7962 99.5091C87.351 99.5156 85.0052 100.478 83.2596 102.19C81.514 103.902 80.5069 106.229 80.4533 108.674Z" fill="black"/>
<path opacity="0.7" d="M90.0294 99.6804C90.0075 100.653 90.1803 101.621 90.5378 102.526C90.8953 103.431 91.4301 104.256 92.1109 104.952C92.7917 105.647 93.6048 106.199 94.5021 106.576C95.3995 106.953 96.3632 107.146 97.3365 107.145C99.3269 107.138 101.236 106.354 102.656 104.96C104.076 103.565 104.895 101.67 104.938 99.6804C104.959 98.7045 104.785 97.7341 104.425 96.8267C104.065 95.9192 103.527 95.093 102.843 94.3967C102.159 93.7004 101.342 93.148 100.441 92.7723C99.5402 92.3965 98.5731 92.205 97.5969 92.2089C95.6113 92.2245 93.7099 93.0137 92.2969 94.4089C90.8838 95.804 90.0704 97.6951 90.0294 99.6804Z" fill="#FAFAFA"/>
<path opacity="0.7" d="M133.666 125.797C132.775 126.153 131.719 126.482 130.554 126.921C129.964 127.126 129.347 127.36 128.689 127.606L126.633 128.23L124.357 128.916L121.876 129.539C120.169 130.005 118.305 130.341 116.337 130.746C115.357 130.958 114.329 131.082 113.287 131.26C112.245 131.438 111.169 131.603 110.058 131.719C99.6528 132.959 89.1289 132.818 78.7601 131.301C72.5804 130.422 66.4628 129.152 60.4444 127.497C57.3187 126.64 54.1518 125.673 50.985 124.57C49.3947 124.028 47.8113 123.432 46.2279 122.822L45.042 122.349H44.9803H45.0146L45.2408 122.013C41.3542 123.48 38.4752 123.912 36.4051 123.891L36.1858 124.138C37.7349 124.823 39.243 125.557 40.8195 126.242L43.1501 127.195L44.3977 127.675C46.0702 128.285 47.729 128.874 49.3879 129.409C52.7009 130.483 55.9912 131.415 59.2586 132.206C65.5052 133.732 71.8527 134.811 78.2528 135.434C88.9879 136.535 99.826 136.073 110.429 134.063C111.553 133.871 112.636 133.618 113.691 133.378C114.747 133.138 115.748 132.912 116.762 132.624C118.73 132.062 120.587 131.575 122.28 130.958L124.741 130.122L126.983 129.245L129.039 128.429C129.683 128.162 130.286 127.867 130.855 127.606C131.993 127.078 133.015 126.633 133.871 126.194L136.024 125.056L137.785 124.117L135.935 124.871L133.666 125.797Z" fill="white"/>
<path d="M116.686 83.4828C116.686 83.4828 116.59 83.8118 116.378 84.3808C116.079 85.1819 115.729 85.9626 115.329 86.7182C114.735 87.8595 114.005 88.925 113.156 89.8919C112.052 91.1755 110.685 92.207 109.147 92.9165C107.61 93.6261 105.938 93.9972 104.245 94.0047C102.873 94.03 101.508 93.7975 100.221 93.3192C99.3559 93.0045 98.5648 92.5144 97.8976 91.8798C97.4314 91.3999 97.2875 90.9955 97.4177 90.735C97.7056 90.1935 99.0012 90.3649 100.845 90.358C103.114 90.398 105.364 89.9443 107.439 89.0282C109.628 87.9405 111.74 86.7038 113.759 85.3267C114.623 84.7646 115.356 84.3054 115.877 83.9969C116.398 83.6885 116.686 83.4828 116.686 83.4828Z" fill="#263238"/>
<path d="M132.72 97.7679C132.72 97.7679 132.603 98.049 132.336 98.5494C132.175 98.8504 131.991 99.1391 131.788 99.4131C131.527 99.7885 131.238 100.144 130.924 100.476C130.547 100.886 130.134 101.262 129.69 101.6C129.183 102 128.641 102.355 128.072 102.662C126.76 103.354 125.331 103.798 123.857 103.971C122.378 104.118 120.885 104.042 119.429 103.745C118.798 103.607 118.179 103.419 117.578 103.183C117.053 102.987 116.546 102.746 116.063 102.463C114.281 101.401 113.582 100.249 113.883 99.7763C114.185 99.3034 115.398 99.4199 117.071 99.6118C117.489 99.653 117.941 99.7147 118.442 99.7421C118.942 99.7695 119.436 99.7969 119.963 99.838C121.107 99.8652 122.252 99.824 123.391 99.7147C124.597 99.5776 125.756 99.4268 126.818 99.2622C127.353 99.1594 127.887 99.0909 128.374 98.9744C128.861 98.8578 129.334 98.7619 129.745 98.6522C130.156 98.5425 130.568 98.426 130.931 98.3232C131.242 98.243 131.548 98.1469 131.849 98.0353L132.72 97.7679Z" fill="#263238"/>
<path d="M141.254 115.158C141.254 115.158 141.014 115.316 140.568 115.563C139.933 115.908 139.262 116.181 138.567 116.378C137.533 116.684 136.463 116.845 135.386 116.858C134.068 116.868 132.758 116.662 131.506 116.248C130.264 115.821 129.08 115.238 127.983 114.514C127.086 113.924 126.272 113.216 125.563 112.409C124.371 111.039 124.028 109.846 124.439 109.448C124.85 109.051 125.933 109.38 127.387 109.997L129.868 111.059C130.8 111.429 131.808 111.827 132.884 112.204C133.96 112.581 134.982 112.93 135.941 113.294C136.901 113.657 137.799 113.979 138.58 114.24C139.362 114.5 140.033 114.747 140.506 114.925C140.979 115.103 141.254 115.158 141.254 115.158Z" fill="#263238"/>
<path d="M63.5152 83.0442C63.5152 83.0442 63.8511 83.1676 64.4269 83.428C65.0027 83.6885 65.7978 84.0724 66.7438 84.5522C68.6288 85.5118 70.9525 86.7937 73.146 87.7465C75.1207 88.5686 77.2259 89.0329 79.3632 89.1174C81.1454 89.2408 82.5026 89.2271 82.9002 89.9331C83.0853 90.2758 82.9825 90.7694 82.5506 91.3383C81.9303 92.0818 81.1436 92.6689 80.2543 93.052C78.9403 93.6432 77.5204 93.9626 76.0798 93.991C74.2761 94.0384 72.4846 93.6825 70.836 92.9491C69.2475 92.2391 67.8411 91.1773 66.7232 89.844C65.8758 88.8241 65.1703 87.6942 64.6257 86.4852C64.2733 85.6829 63.98 84.8558 63.7483 84.0107C63.5838 83.4006 63.5152 83.0442 63.5152 83.0442Z" fill="#263238"/>
<path d="M47.2969 95.7116L48.188 95.8898C48.4621 95.9583 48.7843 96.0269 49.1682 96.0886C49.552 96.1503 49.9496 96.2394 50.4089 96.2874C50.8681 96.3353 51.3205 96.4313 51.8278 96.4724C52.335 96.5136 52.8423 96.5684 53.3701 96.6369C54.4325 96.7192 55.5361 96.8152 56.6946 96.9454C57.853 97.0756 58.9498 97.1031 59.978 97.1236C60.4852 97.1236 60.9856 97.1236 61.4517 97.1236C61.9178 97.1236 62.3634 97.1236 62.7815 97.1236C64.4335 97.0756 65.7085 97.0825 66.1334 97.768C66.5584 98.4534 65.9278 99.7215 64.125 100.921C63.6403 101.247 63.1235 101.523 62.5827 101.744C61.9677 102.012 61.33 102.226 60.6771 102.381C59.1717 102.724 57.6209 102.821 56.0845 102.669C54.5519 102.486 53.073 101.992 51.7387 101.216C51.1612 100.87 50.6173 100.47 50.1141 100.023C49.6596 99.6271 49.2462 99.1862 48.8803 98.7071C48.5749 98.3399 48.3041 97.9452 48.0714 97.5281C47.8781 97.2249 47.7151 96.9035 47.5847 96.5684C47.3585 96.02 47.2969 95.7116 47.2969 95.7116Z" fill="#263238"/>
<path d="M37.0558 111.278C37.0558 111.278 37.3642 111.189 37.8783 111.073C38.3924 110.956 39.1122 110.792 39.9347 110.6C40.7573 110.408 41.6964 110.182 42.6766 109.983C43.7009 109.749 44.7376 109.572 45.7817 109.455C47.9547 109.202 49.8945 108.886 51.4917 108.715C53.0888 108.543 54.2335 108.591 54.6997 109.263C55.1658 109.935 54.6311 111.128 53.1779 112.382C52.3269 113.094 51.3723 113.672 50.3469 114.096C49.0941 114.619 47.7745 114.965 46.4261 115.124C45.0711 115.264 43.702 115.15 42.3887 114.788C41.3115 114.491 40.2871 114.029 39.3521 113.417C38.7101 113.004 38.1229 112.511 37.6041 111.95C37.2408 111.525 37.0558 111.278 37.0558 111.278Z" fill="#263238"/>
<path d="M90.4809 72.5017C90.4809 72.5017 90.5357 72.8376 90.5906 73.3997C90.6454 73.9617 90.6934 74.7706 90.7551 75.6617C90.899 77.5125 91.0841 79.7745 91.324 81.7692C91.324 81.8994 91.324 82.0297 91.324 82.1462L91.3994 82.5026C91.4542 82.7288 91.4748 82.9756 91.5297 83.1881C91.6406 83.615 91.7733 84.036 91.9272 84.4494C92.0438 84.8675 92.2631 85.2171 92.407 85.6009C92.551 85.9848 92.7703 86.3207 92.9691 86.6291C93.7231 87.9589 94.4155 88.9323 94.1481 89.6863C94.0316 90.0565 93.586 90.3101 92.9349 90.3718C92.0391 90.3888 91.1547 90.1689 90.3712 89.7343C89.8218 89.4532 89.3046 89.113 88.8289 88.7198C88.2853 88.2389 87.7998 87.696 87.3826 87.1021C86.9104 86.4417 86.5214 85.7258 86.2241 84.9703C86.0828 84.5729 85.9638 84.1678 85.8677 83.757C85.8129 83.5445 85.758 83.3389 85.7101 83.1264C85.6621 82.9139 85.6552 82.7014 85.6278 82.4889C85.5867 82.0571 85.5592 81.6321 85.5524 81.2208C85.5627 80.8187 85.6017 80.4178 85.6689 80.0213C85.7238 79.6374 85.7923 79.2604 85.8677 78.8971C85.9431 78.5338 86.1008 78.2116 86.2241 77.8895C86.6545 76.7595 87.2606 75.7046 88.0201 74.7637C88.5393 74.1446 89.1153 73.5755 89.7406 73.0638C89.9773 72.8635 90.2244 72.6759 90.4809 72.5017Z" fill="#263238"/>
<path d="M132.665 118.963C132.665 118.963 134.379 125.543 130.362 126.564C126.345 127.586 128.011 128.216 128.011 128.216L137.731 124.227L132.665 118.963Z" fill="#407BFF"/>
<path opacity="0.7" d="M132.665 118.963C132.665 118.963 134.379 125.543 130.362 126.564C126.345 127.586 128.011 128.216 128.011 128.216L137.731 124.227L132.665 118.963Z" fill="white"/>
<path d="M137.73 124.117C137.443 124.35 135.249 122.109 131.287 118.126C129.299 116.138 126.852 113.719 123.959 110.997C121.067 108.276 117.687 105.253 113.787 102.134C111.847 100.592 109.757 99.0498 107.529 97.5623C105.249 96.0157 102.857 94.641 100.373 93.4495C97.8524 92.1814 95.1444 91.3273 92.3527 90.9202L91.3176 90.8105C90.968 90.8105 90.6322 90.8105 90.2894 90.8105C89.6011 90.8199 88.9141 90.8748 88.233 90.975C86.7587 91.2247 85.3091 91.6032 83.9009 92.106C80.8628 93.2331 77.9463 94.6638 75.1955 96.3765C72.2454 98.1967 69.3965 100.176 66.6614 102.306C60.848 106.864 55.3196 111.774 50.1074 117.009C48.7365 118.38 47.441 119.696 46.1592 121.026L45.2406 122.013C41.354 123.48 38.4751 123.912 36.405 123.891C33.149 123.891 31.8946 122.712 31.8946 122.712L34.6913 122.561C36.6095 122.459 38.4098 121.604 39.7021 120.183C40.2436 119.586 40.7988 118.99 41.3472 118.394C41.6694 118.044 42.0327 117.708 42.3206 117.359C43.6298 115.988 44.9802 114.617 46.3579 113.246C51.7292 107.844 57.4541 102.806 63.4946 98.1655C66.4068 95.9377 69.4438 93.878 72.5907 91.9963C75.6738 90.1465 78.9404 88.6212 82.338 87.4449C84.0444 86.8736 85.7998 86.4606 87.5818 86.211C88.4908 86.0929 89.4072 86.0402 90.3237 86.0534C90.7898 86.0534 91.2491 86.0534 91.6946 86.1013L93.0244 86.2727C96.3012 86.8145 99.4653 87.8962 102.388 89.4738C105.02 90.8503 107.541 92.4293 109.928 94.1967C112.211 95.8624 114.315 97.5555 116.248 99.2486C119.698 102.274 122.988 105.478 126.105 108.845C128.847 111.82 131.095 114.48 132.864 116.701C136.366 121.197 138.018 123.891 137.73 124.117Z" fill="#263238"/>
<path d="M300.453 111.847C291.035 98.8236 278.518 88.8158 265.138 83.7433C250.359 78.8148 235.54 82.1668 221.097 93.6963L220.775 93.2987C235.368 81.6458 250.353 78.2665 265.33 83.2566C278.793 88.3839 291.419 98.4329 300.892 111.56L300.453 111.847Z" fill="#407BFF"/>
<path d="M205.714 109.531L205.296 109.229C207.343 106.399 209.597 103.725 212.041 101.23L212.411 101.586C209.984 104.063 207.745 106.719 205.714 109.531Z" fill="#407BFF"/>
<path opacity="0.3" d="M275.166 111.69V111.491C275.17 111.557 275.17 111.624 275.166 111.69Z" fill="black"/>
<path d="M204.001 124.302C204.001 124.302 232.839 87.6916 252.162 88.6581C271.486 89.6246 301.255 123.473 301.255 123.473C301.255 123.473 252.087 148.342 204.001 124.302Z" fill="#407BFF"/>
<path opacity="0.9" d="M204.001 124.302C204.001 124.302 232.839 87.6916 252.162 88.6581C271.486 89.6246 301.255 123.473 301.255 123.473C301.255 123.473 252.087 148.342 204.001 124.302Z" fill="#FAFAFA"/>
<path d="M207.257 125.797C208.141 126.153 209.197 126.482 210.369 126.921C210.959 127.126 211.569 127.36 212.227 127.606L214.283 128.23L216.552 128.916L219.04 129.539C220.747 130.005 222.611 130.341 224.572 130.746C225.552 130.958 226.587 131.082 227.629 131.26C228.671 131.438 229.747 131.603 230.858 131.719C241.263 132.959 251.787 132.818 262.156 131.301C268.326 130.421 274.435 129.151 280.444 127.497C283.577 126.64 286.737 125.673 289.91 124.57C291.501 124.028 293.077 123.432 294.668 122.822L295.847 122.349H295.915H295.881L295.661 122.116C299.548 123.583 302.427 124.014 304.497 123.994L304.716 124.241C303.167 124.926 301.652 125.66 300.083 126.345L297.752 127.298L296.498 127.778C294.832 128.388 293.173 128.977 291.514 129.512C288.197 130.586 284.907 131.518 281.644 132.309C275.397 133.834 269.049 134.913 262.649 135.537C251.914 136.638 241.076 136.176 230.474 134.166C229.35 133.974 228.267 133.721 227.211 133.481C226.155 133.241 225.154 133.015 224.14 132.727C222.173 132.165 220.308 131.678 218.615 131.061L216.154 130.225L213.92 129.347L211.863 128.532C211.226 128.264 210.623 127.97 210.054 127.709C208.916 127.181 207.894 126.736 207.038 126.297L204.954 125.056L203.192 124.117L205.043 124.871L207.257 125.797Z" fill="#407BFF"/>
<path d="M273.014 110.12C273.074 112.938 272.569 115.74 271.529 118.36C270.489 120.98 268.936 123.366 266.96 125.377C264.985 127.387 262.627 128.983 260.025 130.068C257.424 131.154 254.632 131.708 251.813 131.699C246.064 131.673 240.554 129.402 236.456 125.371C232.358 121.34 229.998 115.867 229.878 110.12C229.816 107.302 230.32 104.5 231.359 101.879C232.397 99.2589 233.95 96.8728 235.925 94.8618C237.9 92.8507 240.258 91.2555 242.86 90.17C245.461 89.0846 248.254 88.5309 251.072 88.5416C251.796 88.5401 252.519 88.5767 253.238 88.6513C258.588 89.2016 263.552 91.6872 267.198 95.6407C270.844 99.5943 272.919 104.743 273.035 110.12H273.014Z" fill="#292F79"/>
<path opacity="0.3" d="M272.98 109.88V110.833C272.294 127.709 257.214 131.027 257.214 131.027C262.698 128.97 265.549 123.871 267.037 119.024C267.35 117.99 267.416 116.896 267.23 115.831C267.043 114.766 266.61 113.76 265.964 112.893C265.318 112.027 264.477 111.324 263.51 110.841C262.543 110.358 261.476 110.109 260.395 110.113H260.313C260.382 109.634 260.415 109.151 260.408 108.667C260.355 106.222 259.348 103.895 257.602 102.183C255.857 100.471 253.511 99.5088 251.066 99.5022C249.869 99.4992 248.683 99.7354 247.579 100.197C246.474 100.658 245.473 101.336 244.634 102.19C243.795 103.043 243.135 104.056 242.693 105.168C242.25 106.281 242.035 107.47 242.059 108.667C242.069 109.153 242.124 109.637 242.223 110.113C241.157 110.108 240.104 110.35 239.147 110.821C238.19 111.291 237.355 111.977 236.708 112.825C236.061 113.672 235.619 114.659 235.418 115.706C235.216 116.753 235.26 117.833 235.547 118.86C236.918 123.617 239.659 128.559 244.903 130.581C242.252 129.658 239.788 128.265 237.63 126.468C233.888 123.37 230.09 118.243 229.823 110.12C229.762 107.301 230.265 104.499 231.304 101.878C232.343 99.2568 233.897 96.8704 235.873 94.8593C237.849 92.8482 240.207 91.253 242.81 90.168C245.412 89.083 248.205 88.53 251.024 88.5416C256.734 88.5652 262.213 90.8019 266.307 94.7815C270.402 98.7611 272.794 104.173 272.98 109.88Z" fill="black"/>
<path opacity="0.7" d="M260.477 108.674C260.485 109.157 260.455 109.641 260.388 110.12C260.082 112.264 259.012 114.225 257.374 115.642C255.737 117.059 253.642 117.837 251.477 117.832C249.288 117.823 247.171 117.047 245.496 115.638C243.821 114.228 242.694 112.275 242.312 110.12C242.211 109.644 242.159 109.16 242.154 108.674C242.129 107.477 242.343 106.287 242.784 105.175C243.225 104.062 243.885 103.049 244.723 102.195C245.562 101.341 246.563 100.663 247.667 100.202C248.772 99.7407 249.958 99.5051 251.155 99.509C253.596 99.5209 255.937 100.485 257.678 102.197C259.419 103.909 260.423 106.233 260.477 108.674Z" fill="black"/>
<path opacity="0.7" d="M250.88 99.6804C250.901 100.655 250.727 101.625 250.367 102.532C250.008 103.438 249.47 104.264 248.787 104.959C248.103 105.655 247.287 106.207 246.387 106.582C245.487 106.958 244.521 107.149 243.546 107.145C241.555 107.14 239.645 106.356 238.224 104.961C236.803 103.566 235.985 101.671 235.944 99.6804C235.923 98.705 236.097 97.7353 236.457 96.8283C236.816 95.9213 237.353 95.0953 238.037 94.3991C238.72 93.7029 239.536 93.1504 240.436 92.7743C241.336 92.3981 242.303 92.2059 243.278 92.2088C245.27 92.2156 247.18 93.0009 248.6 94.3969C250.021 95.793 250.839 97.6892 250.88 99.6804Z" fill="#FAFAFA"/>
<path opacity="0.7" d="M207.257 125.797C208.141 126.153 209.197 126.482 210.369 126.921C210.959 127.126 211.569 127.36 212.227 127.606L214.283 128.23L216.552 128.916L219.04 129.539C220.747 130.005 222.611 130.341 224.572 130.746C225.552 130.958 226.587 131.082 227.629 131.26C228.671 131.438 229.747 131.603 230.858 131.719C241.263 132.959 251.787 132.818 262.156 131.301C268.326 130.421 274.435 129.151 280.444 127.497C283.577 126.64 286.737 125.673 289.91 124.57C291.501 124.028 293.077 123.432 294.668 122.822L295.847 122.349H295.915H295.881L295.661 122.116C299.548 123.583 302.427 124.014 304.497 123.994L304.716 124.241C303.167 124.926 301.652 125.66 300.083 126.345L297.752 127.298L296.498 127.778C294.832 128.388 293.173 128.977 291.514 129.512C288.197 130.586 284.907 131.518 281.644 132.309C275.397 133.834 269.049 134.913 262.649 135.537C251.914 136.638 241.076 136.176 230.474 134.166C229.35 133.974 228.267 133.721 227.211 133.481C226.155 133.241 225.154 133.015 224.14 132.727C222.173 132.165 220.308 131.678 218.615 131.061L216.154 130.225L213.92 129.347L211.863 128.532C211.226 128.264 210.623 127.97 210.054 127.709C208.916 127.181 207.894 126.736 207.038 126.297L204.954 125.056L203.192 124.117L205.043 124.871L207.257 125.797Z" fill="white"/>
<path d="M224.209 83.4828C224.209 83.4828 224.51 83.6473 225.031 83.9558C225.552 84.2642 226.286 84.7235 227.149 85.2856C229.168 86.6641 231.28 87.9009 233.469 88.9871C235.545 89.9038 237.795 90.3575 240.063 90.3169C241.901 90.3169 243.196 90.1524 243.491 90.6939C243.621 90.9544 243.491 91.3794 243.011 91.8386C242.344 92.4733 241.553 92.9633 240.687 93.2781C239.399 93.7572 238.031 93.9897 236.657 93.9636C234.964 93.9543 233.293 93.5824 231.755 92.8729C230.218 92.1635 228.851 91.133 227.746 89.8508C226.901 88.8822 226.174 87.8169 225.58 86.6771C225.18 85.9215 224.829 85.1407 224.531 84.3396C224.305 83.8118 224.209 83.4828 224.209 83.4828Z" fill="#263238"/>
<path d="M208.175 97.7679L208.991 98.0353C209.292 98.1469 209.599 98.243 209.909 98.3232C210.273 98.426 210.65 98.5631 211.095 98.6522C211.541 98.7413 211.986 98.8852 212.466 98.9744C212.946 99.0635 213.488 99.1594 214.022 99.2622C215.105 99.4268 216.257 99.5776 217.45 99.7147C218.589 99.8242 219.733 99.8654 220.877 99.838C221.412 99.7969 221.926 99.8038 222.405 99.7421C222.885 99.6804 223.338 99.653 223.776 99.6118C225.449 99.4199 226.642 99.2554 226.964 99.7763C227.286 100.297 226.566 101.401 224.784 102.463C224.301 102.746 223.794 102.987 223.269 103.183C222.668 103.419 222.049 103.607 221.418 103.745C219.962 104.042 218.469 104.118 216.99 103.971C215.515 103.797 214.083 103.353 212.768 102.662C212.202 102.354 211.663 101.998 211.157 101.6C210.714 101.262 210.301 100.886 209.923 100.476C209.609 100.144 209.32 99.7885 209.059 99.4131C208.853 99.1407 208.67 98.8519 208.511 98.5494C208.292 98.0216 208.175 97.7679 208.175 97.7679Z" fill="#263238"/>
<path d="M199.642 115.158C199.642 115.158 199.916 115.049 200.396 114.898C200.876 114.747 201.534 114.514 202.315 114.212C203.097 113.911 204.001 113.609 204.961 113.266C205.921 112.924 206.942 112.533 208.018 112.176C209.094 111.82 210.075 111.402 211.027 111.032L213.516 109.969C214.969 109.352 216.031 108.989 216.463 109.421C216.895 109.853 216.532 110.984 215.339 112.382C214.629 113.187 213.815 113.895 212.919 114.486C211.822 115.21 210.639 115.793 209.396 116.221C208.145 116.634 206.834 116.84 205.516 116.831C204.439 116.819 203.369 116.657 202.336 116.351C201.64 116.154 200.969 115.88 200.334 115.535C199.882 115.343 199.642 115.158 199.642 115.158Z" fill="#263238"/>
<path d="M277.381 83.0442C277.381 83.0442 277.312 83.4006 277.141 84.0107C276.901 84.8612 276.598 85.6929 276.236 86.4989C275.691 87.7079 274.986 88.8378 274.138 89.8577C273.03 91.1869 271.636 92.2484 270.06 92.9628C268.409 93.697 266.615 94.0529 264.809 94.0048C263.371 93.9764 261.953 93.6569 260.642 93.0657C259.752 92.6826 258.966 92.0955 258.345 91.352C257.913 90.7831 257.811 90.2895 257.996 89.9468C258.386 89.2613 259.751 89.2613 261.533 89.1311C263.67 89.0466 265.775 88.5824 267.75 87.7602C269.943 86.8074 272.267 85.5255 274.152 84.5659C275.084 84.0861 275.893 83.6954 276.469 83.4417C277.045 83.1881 277.381 83.0442 277.381 83.0442Z" fill="#263238"/>
<path d="M293.626 95.7116C293.626 95.7116 293.537 96.02 293.31 96.5753C293.177 96.909 293.014 97.2302 292.824 97.5349C292.584 97.9473 292.312 98.3393 292.008 98.7071C291.644 99.1603 291.24 99.5801 290.802 99.9615C290.298 100.409 289.755 100.808 289.177 101.154C287.84 101.929 286.359 102.423 284.824 102.607C283.29 102.759 281.742 102.662 280.239 102.319C279.586 102.164 278.948 101.951 278.333 101.682C277.792 101.461 277.275 101.185 276.791 100.859C274.988 99.6598 274.371 98.3438 274.775 97.7063C275.18 97.0688 276.475 97.0208 278.134 97.0619C278.552 97.0619 278.991 97.0619 279.464 97.0619C279.937 97.0619 280.431 97.0619 280.938 97.0619C281.966 97.0619 283.063 97.0002 284.221 96.8837C285.38 96.7672 286.476 96.6575 287.546 96.5753C288.067 96.5067 288.601 96.4861 289.088 96.4107C289.575 96.3353 290.061 96.2942 290.507 96.2257C290.952 96.1571 291.364 96.0817 291.748 96.0269C292.131 95.972 292.433 95.8966 292.728 95.8281L293.626 95.7116Z" fill="#263238"/>
<path d="M303.832 111.278C303.662 111.503 303.479 111.718 303.284 111.923C302.765 112.483 302.178 112.976 301.536 113.39C300.601 114.001 299.577 114.464 298.5 114.761C297.186 115.122 295.817 115.236 294.462 115.097C293.113 114.939 291.794 114.593 290.541 114.068C289.515 113.643 288.558 113.065 287.703 112.355C286.25 111.1 285.764 109.873 286.189 109.236C286.614 108.598 287.834 108.55 289.397 108.687C290.959 108.825 292.934 109.174 295.106 109.428C296.151 109.546 297.187 109.722 298.212 109.956C299.192 110.154 300.131 110.387 300.954 110.572C301.776 110.758 302.503 110.943 303.01 111.045C303.517 111.148 303.832 111.278 303.832 111.278Z" fill="#263238"/>
<path d="M250.387 72.5017C250.624 72.673 250.853 72.856 251.072 73.0501C251.696 73.5636 252.272 74.1326 252.793 74.75C253.552 75.6909 254.158 76.7458 254.588 77.8757C254.712 78.1979 254.828 78.5612 254.945 78.8834C255.061 79.2055 255.089 79.6237 255.144 80.0075C255.208 80.4046 255.247 80.8052 255.26 81.2071C255.26 81.6184 255.226 82.0434 255.178 82.4752C255.178 82.6877 255.144 82.9002 255.103 83.1127C255.061 83.3252 255 83.5308 254.945 83.7433C254.847 84.1542 254.725 84.5593 254.582 84.9566C254.289 85.713 253.902 86.4293 253.43 87.0884C253.013 87.6823 252.527 88.2252 251.984 88.7061C251.506 89.0995 250.986 89.4397 250.435 89.7206C249.654 90.1552 248.771 90.3752 247.878 90.3581C247.227 90.3169 246.781 90.0633 246.665 89.6726C246.397 88.9186 247.09 87.9452 247.837 86.6154C248.042 86.307 248.2 85.93 248.406 85.5872C248.611 85.2445 248.769 84.8538 248.885 84.4356C249.039 84.0223 249.172 83.6013 249.283 83.1744C249.338 82.955 249.358 82.7083 249.413 82.4889L249.489 82.1325C249.489 82.016 249.489 81.8857 249.523 81.7555C249.756 79.7676 249.941 77.4987 250.092 75.648C250.154 74.7363 250.181 73.9549 250.249 73.3859C250.318 72.817 250.387 72.5017 250.387 72.5017Z" fill="#263238"/>
<path d="M208.23 118.963C208.23 118.963 206.517 125.543 210.534 126.564C214.55 127.586 212.885 128.216 212.885 128.216L203.165 124.227L208.23 118.963Z" fill="#407BFF"/>
<path opacity="0.7" d="M208.23 118.963C208.23 118.963 206.517 125.543 210.534 126.564C214.55 127.586 212.885 128.216 212.885 128.216L203.165 124.227L208.23 118.963Z" fill="white"/>
<path d="M203.165 124.117C203.453 124.35 205.639 122.109 209.608 118.126C211.596 116.138 214.036 113.719 216.936 110.997C219.835 108.276 223.208 105.253 227.087 102.162C229.034 100.619 231.118 99.0772 233.346 97.5897C235.628 96.0431 238.022 94.6683 240.509 93.4769C243.029 92.2088 245.737 91.3548 248.529 90.9476L249.564 90.8379C249.913 90.8379 250.249 90.8379 250.592 90.8379C251.28 90.8473 251.967 90.9022 252.648 91.0024C254.121 91.2514 255.568 91.6298 256.974 92.1334C260.015 93.2589 262.934 94.6897 265.686 96.4039C268.636 98.2241 271.485 100.203 274.22 102.333C280.028 106.886 285.549 111.791 290.754 117.023C292.124 118.394 293.427 119.71 294.702 121.04L295.661 122.04C298.466 123.205 301.461 123.841 304.497 123.918C307.746 123.918 309.007 122.739 309.007 122.739L306.204 122.589C304.288 122.486 302.49 121.631 301.2 120.21C300.658 119.614 300.103 119.017 299.555 118.421C299.233 118.071 298.904 117.736 298.582 117.386C297.272 116.015 295.922 114.644 294.544 113.273C289.173 107.872 283.448 102.834 277.407 98.1929C274.494 95.9636 271.455 93.9037 268.305 92.0238C265.224 90.1727 261.96 88.6473 258.564 87.4723C256.858 86.901 255.102 86.488 253.32 86.2384C252.411 86.1203 251.495 86.0676 250.578 86.0808C250.112 86.0808 249.653 86.0808 249.207 86.1288L247.878 86.3001C244.611 86.8398 241.456 87.9169 238.542 89.4875C235.91 90.864 233.389 92.4431 231.001 94.2104C228.712 95.8761 226.614 97.5692 224.681 99.2623C221.23 102.286 217.94 105.49 214.824 108.859C212.083 111.834 209.834 114.493 208.066 116.714C204.522 121.197 202.897 123.891 203.165 124.117Z" fill="#263238"/>
<path d="M95.4852 141.939L95.4304 141.425C98.1174 141.137 100.702 140.808 103.656 140.349L103.731 140.856C100.955 141.288 98.1654 141.651 95.4852 141.939Z" fill="#407BFF"/>
<path d="M81.2681 142.385C52.0467 142.385 35.9931 132.843 35.8218 132.74L36.0891 132.302C36.2605 132.405 53.5068 142.645 84.8051 141.823V142.337C83.6261 142.371 82.4265 142.385 81.2681 142.385Z" fill="#407BFF"/>
<path d="M249.105 203.796V160.399C249.105 159.308 248.672 158.262 247.901 157.491C247.13 156.719 246.083 156.286 244.993 156.286H200.533L184.665 144.016C184.142 143.62 183.504 143.406 182.848 143.406C182.449 143.405 182.053 143.483 181.684 143.635C181.315 143.788 180.979 144.011 180.697 144.293C180.414 144.575 180.19 144.91 180.037 145.279C179.884 145.648 179.805 146.043 179.805 146.443V156.286H177.33C176.24 156.286 175.193 156.719 174.422 157.491C173.651 158.262 173.218 159.308 173.218 160.399V203.782C173.228 204.866 173.667 205.901 174.437 206.664C175.207 207.426 176.247 207.854 177.33 207.854H245.034C246.108 207.843 247.135 207.412 247.896 206.654C248.657 205.896 249.091 204.87 249.105 203.796Z" fill="#263238"/>
<path opacity="0.9" d="M245.013 156.32H200.533L188.147 146.724C180.278 159.028 175.48 174.108 173.231 189.586V203.803C173.242 204.886 173.68 205.922 174.45 206.684C175.22 207.447 176.26 207.874 177.344 207.874H245.047C246.125 207.863 247.156 207.43 247.917 206.667C248.679 205.905 249.11 204.873 249.119 203.796V160.399C249.11 159.315 248.674 158.279 247.905 157.515C247.136 156.752 246.097 156.322 245.013 156.32Z" fill="#FFD3B6"/>
<path d="M203.583 207.874L203.809 194.371C201.892 199.049 199.599 203.565 196.955 207.874H203.583Z" fill="#EA863E"/>
<path d="M173.231 167.007C180.134 161.523 189.422 157.239 201.973 156.32H200.533L184.665 144.051C184.142 143.654 183.504 143.44 182.848 143.44C182.449 143.44 182.053 143.517 181.684 143.67C181.315 143.822 180.979 144.045 180.697 144.327C180.414 144.61 180.19 144.945 180.037 145.313C179.884 145.682 179.805 146.078 179.805 146.477V156.32H177.33C176.24 156.32 175.193 156.754 174.422 157.525C173.651 158.296 173.218 159.342 173.218 160.433L173.231 167.007Z" fill="#263238"/>
<path d="M183.341 186.124C182.656 189.593 183.958 192.732 186.193 193.157C188.427 193.582 190.799 191.163 191.464 187.742C192.067 184.801 191.204 182.108 189.558 181.093C189.434 181.016 189.303 180.949 189.168 180.894L181.785 177.111C181.785 177.111 183.232 180.627 185.734 181.662C184.468 182.847 183.628 184.415 183.341 186.124Z" fill="#263238"/>
<path d="M180.675 168.261C180.975 168.248 181.269 168.166 181.532 168.021C183.805 166.664 186.369 165.866 189.011 165.693C191.653 165.521 194.298 165.978 196.729 167.027C197.127 167.242 197.594 167.291 198.029 167.162C198.463 167.034 198.828 166.739 199.046 166.342C199.246 165.931 199.279 165.458 199.137 165.023C198.995 164.588 198.689 164.225 198.285 164.011C195.351 162.707 192.148 162.122 188.942 162.304C185.736 162.487 182.62 163.431 179.853 165.06C179.504 165.236 179.226 165.527 179.065 165.883C178.905 166.24 178.872 166.64 178.971 167.018C179.071 167.396 179.297 167.729 179.612 167.96C179.927 168.191 180.312 168.307 180.703 168.289L180.675 168.261Z" fill="#263238"/>
<path d="M224.648 189.305C223.394 190.501 222.556 192.067 222.255 193.774C221.57 197.25 222.776 200.382 225.059 200.807C227.342 201.232 229.713 198.812 230.378 195.392C230.947 192.451 230.104 189.757 228.479 188.743L228.109 188.558L220.72 184.747C220.72 184.747 222.139 188.27 224.648 189.305Z" fill="#263238"/>
<path d="M225.402 168.988C224.945 169 224.511 169.191 224.192 169.518C223.873 169.846 223.695 170.285 223.695 170.743C223.716 171.194 223.914 171.619 224.247 171.926C224.579 172.232 225.018 172.396 225.47 172.381C230.824 172.641 237.953 176.603 240.886 181.086C241.065 181.334 241.3 181.536 241.572 181.676C241.915 181.863 242.312 181.927 242.696 181.857C243.081 181.788 243.43 181.589 243.686 181.294C243.942 180.998 244.09 180.624 244.104 180.234C244.119 179.843 243.999 179.46 243.765 179.146C240.139 173.745 231.914 169.228 225.402 168.988Z" fill="#263238"/>
<path d="M208.882 210.973H200.328V211.487H208.882V210.973Z" fill="#407BFF"/>
<path d="M195.022 211.487H175.692C174.032 211.483 172.441 210.822 171.268 209.647C170.095 208.473 169.435 206.881 169.433 205.221V198.997H169.947V205.221C169.947 206.746 170.552 208.207 171.629 209.286C172.707 210.364 174.168 210.971 175.692 210.973H195.022V211.487Z" fill="#407BFF"/>
<path d="M145.88 10.1243H137.325V10.6384H145.88V10.1243Z" fill="#407BFF"/>
<path d="M176.774 22.6203H176.26V16.3894C176.258 14.8647 175.651 13.403 174.573 12.3248C173.495 11.2467 172.033 10.6402 170.509 10.6384H151.185V10.1243H170.509C172.17 10.1261 173.762 10.7867 174.937 11.9613C176.111 13.1358 176.772 14.7284 176.774 16.3894V22.6203Z" fill="#407BFF"/>
<path d="M133.35 57.0101L169.309 59.9028L172.147 53.5348C172.147 53.5348 172.675 52.3627 173.47 50.3063V17.6987C173.457 16.6163 173.019 15.5824 172.249 14.8215C171.479 14.0605 170.44 13.6338 169.357 13.6339H109.879C113.787 27.7956 121.258 44.2605 133.35 57.0101Z" fill="#263238"/>
<path d="M173.477 61.0887V42.9787C172.54 32.9201 170.198 23.0425 166.52 13.6339H101.681C100.591 13.6339 99.5446 14.0672 98.7733 14.8385C98.002 15.6098 97.5687 16.6559 97.5687 17.7467V61.1229C97.5687 62.2137 98.002 63.2598 98.7733 64.0311C99.5446 64.8024 100.591 65.2357 101.681 65.2357H146.154L162.044 77.4576C162.566 77.8539 163.204 78.0682 163.86 78.0676C164.259 78.0685 164.655 77.9907 165.024 77.8385C165.393 77.6863 165.729 77.4627 166.012 77.1807C166.294 76.8986 166.519 76.5636 166.672 76.1947C166.825 75.8258 166.903 75.4304 166.903 75.031V65.1878H169.378C170.464 65.1841 171.505 64.7511 172.273 63.9832C173.04 63.2152 173.473 62.1747 173.477 61.0887Z" fill="#FCCAC8"/>
<path d="M119.709 49.5523C119.504 52.9796 121.128 55.9065 123.384 56.0368C125.639 56.167 127.613 53.5074 127.819 50.0527C128.024 46.5979 126.386 43.7395 124.131 43.6161C121.876 43.4928 119.908 46.1387 119.709 49.5523Z" fill="#263238"/>
<path d="M162.941 45.981C160.686 45.8576 158.719 48.5103 158.506 51.9651C158.294 55.4198 159.939 58.2782 162.194 58.4085C164.449 58.5387 166.423 55.8791 166.615 52.4655C166.807 49.0519 165.196 46.1112 162.941 45.981Z" fill="#263238"/>
<path d="M150.555 68.5465C147.999 63.3085 145.819 57.8957 144.029 52.3489L143.262 65.1877H146.202L150.555 68.5465Z" fill="#EA817E"/>
<path d="M107.357 32.6281C107.685 32.7101 108.029 32.7079 108.356 32.6216C108.683 32.5353 108.983 32.3678 109.228 32.1346C110.823 30.1625 112.863 28.5968 115.181 27.5661C117.498 26.5354 120.027 26.0691 122.56 26.2053C123.047 26.1893 123.513 26.0008 123.874 25.6733C124.235 25.3459 124.468 24.9008 124.532 24.4175C124.595 23.9341 124.485 23.444 124.22 23.0345C123.956 22.6249 123.555 22.3227 123.088 22.1816C119.891 21.974 116.689 22.5267 113.746 23.7944C110.804 25.0621 108.203 27.0087 106.157 29.475C105.824 29.8912 105.661 30.4179 105.701 30.9493C105.74 31.4807 105.979 31.9776 106.37 32.3402C106.676 32.5001 107.012 32.598 107.357 32.6281Z" fill="#263238"/>
<path d="M173.086 36.0006C173.179 36.2255 173.312 36.432 173.477 36.6107V28.7004C170.78 25.5357 167.169 23.2847 163.14 22.257C162.615 22.1561 162.071 22.2681 161.628 22.5682C161.185 22.8684 160.879 23.3322 160.779 23.8576C160.678 24.383 160.79 24.9269 161.09 25.3698C161.39 25.8126 161.854 26.1181 162.379 26.219C164.805 26.8969 167.038 28.1353 168.898 29.8343C170.758 31.5333 172.192 33.6455 173.086 36.0006Z" fill="#263238"/>
</svg>
