<svg width="29" height="28" viewBox="0 0 29 28" fill="none" xmlns="http://www.w3.org/2000/svg">
<path d="M16.1497 4H8.07525C7.53988 4 7.02644 4.21071 6.64788 4.58579C6.26931 4.96086 6.05664 5.46957 6.05664 6V22C6.05664 22.5304 6.26931 23.0391 6.64788 23.4142C7.02644 23.7893 7.53988 24 8.07525 24H20.1869C20.7222 24 21.2357 23.7893 21.6142 23.4142C21.9928 23.0391 22.2055 22.5304 22.2055 22V10M16.1497 4L22.2055 10M16.1497 4V10H22.2055M18.1683 15H10.0939M18.1683 19H10.0939M12.1125 11H10.0939" stroke="white" stroke-width="3" stroke-linecap="round" stroke-linejoin="round"/>
</svg>
