<svg width="26" height="26" viewBox="0 0 26 26" fill="none" xmlns="http://www.w3.org/2000/svg">
<path d="M12.9998 1C11.0902 1 9.2589 1.75857 7.90864 3.10883C6.55837 4.45909 5.7998 6.29044 5.7998 8.2C5.7998 9.9028 6.1622 11.0176 7.1498 12.25L12.9998 19L18.8498 12.25C19.8374 11.0176 20.1998 9.9028 20.1998 8.2C20.1998 6.29044 19.4412 4.45909 18.091 3.10883C16.7407 1.75857 14.9094 1 12.9998 1Z" stroke="#FF5C01" stroke-width="2" stroke-linecap="round" stroke-linejoin="round"/>
<path d="M4.6 16.7715C2.3788 17.6439 1 18.8571 1 20.1999C1 22.8519 6.3724 24.9999 13 24.9999C19.6276 24.9999 25 22.8519 25 20.1999C25 18.8571 23.6212 17.6439 21.4 16.7715" stroke="#FF5C01" stroke-width="2" stroke-linecap="round" stroke-linejoin="round"/>
<path d="M12.9998 9.4C13.6625 9.4 14.1998 8.86274 14.1998 8.2C14.1998 7.53726 13.6625 7 12.9998 7C12.3371 7 11.7998 7.53726 11.7998 8.2C11.7998 8.86274 12.3371 9.4 12.9998 9.4Z" stroke="#FF5C01" stroke-width="2" stroke-linecap="round" stroke-linejoin="round"/>
</svg>
