<svg width="24" height="24" viewBox="0 0 24 24" fill="none" xmlns="http://www.w3.org/2000/svg">
<g clip-path="url(#clip0_285_335)">
<path d="M0.923077 0C0.414462 0 0 0.414462 0 0.923077V15.6923C0 16.2009 0.414462 16.6154 0.923077 16.6154H15.6923C16.2009 16.6154 16.6154 16.2009 16.6154 15.6923V0.923077C16.6154 0.414462 16.2009 0 15.6923 0H0.923077ZM1.84615 1.84615H14.7692V12.9231H1.84615V1.84615ZM17.5385 2.68246V4.55723L19.212 4.84615L17.5385 14.5385V15.6923C17.5385 16.7114 16.7105 17.5385 15.6923 17.5385H5.91323L17.6252 19.5582C17.8662 19.6 18.114 19.5444 18.314 19.4037C18.5141 19.263 18.6502 19.0486 18.6923 18.8077L21.1735 4.24062C21.1945 4.1212 21.1917 3.99883 21.1653 3.88049C21.1389 3.76216 21.0895 3.65019 21.0198 3.55099C20.9501 3.45179 20.8615 3.36731 20.7591 3.30239C20.6567 3.23746 20.5425 3.19336 20.4231 3.17262L17.5385 2.68338V2.68246ZM8.30769 3.63415C7.24523 3.63415 6.34615 4.36523 6.34615 5.74062C6.34615 6.63969 6.74677 7.54246 7.29785 8.10554C7.51385 8.66862 7.14646 8.88277 7.06708 8.91323C5.95385 9.31569 4.644 10.0625 4.644 10.788V11.9714H11.9714V10.7889C11.9714 10.0412 10.6588 9.29908 9.49015 8.91323C9.43662 8.89569 9.10523 8.74708 9.31754 8.10554C9.86677 7.54246 10.2978 6.63508 10.2978 5.74062C10.2978 4.36523 9.37015 3.63415 8.30769 3.63415ZM21.6055 7.29877L21.2889 9.11539L21.9517 9.25939L19.4132 20.0483L19.0385 19.9615C18.8326 20.1644 18.581 20.3148 18.3048 20.4001C18.0287 20.4854 17.7361 20.5031 17.4517 20.4517L4.67354 18.2594L4.41231 19.3569C4.35792 19.5976 4.39991 19.8501 4.5293 20.0602C4.65869 20.2703 4.8652 20.4214 5.10462 20.4812L19.4705 23.8569C19.7112 23.9113 19.9636 23.8693 20.1737 23.7399C20.3839 23.6105 20.535 23.404 20.5948 23.1646L23.9428 8.79692C24.06 8.30215 23.7766 7.78985 23.28 7.67169L21.6065 7.29692L21.6055 7.29877Z" fill="#1CCE0D"/>
</g>
<defs>
<clipPath id="clip0_285_335">
<rect width="24" height="24" fill="white"/>
</clipPath>
</defs>
</svg>
