<svg width="20" height="20" viewBox="0 0 20 20" fill="none" xmlns="http://www.w3.org/2000/svg">
<path fill-rule="evenodd" clip-rule="evenodd" d="M18.7501 9.99981C18.7501 9.83405 18.6843 9.67508 18.5671 9.55787C18.4499 9.44066 18.2909 9.37481 18.1251 9.37481H3.38389L7.31764 5.44231C7.37575 5.3842 7.42185 5.31522 7.45329 5.23929C7.48474 5.16337 7.50093 5.08199 7.50093 4.99981C7.50093 4.91763 7.48474 4.83626 7.45329 4.76033C7.42185 4.68441 7.37575 4.61542 7.31764 4.55731C7.25953 4.4992 7.19054 4.45311 7.11462 4.42166C7.0387 4.39021 6.95732 4.37402 6.87514 4.37402C6.79296 4.37402 6.71159 4.39021 6.63566 4.42166C6.55974 4.45311 6.49075 4.4992 6.43264 4.55731L1.43264 9.55731C1.37444 9.61537 1.32826 9.68434 1.29675 9.76027C1.26524 9.8362 1.24902 9.9176 1.24902 9.99981C1.24902 10.082 1.26524 10.1634 1.29675 10.2394C1.32826 10.3153 1.37444 10.3843 1.43264 10.4423L6.43264 15.4423C6.49075 15.5004 6.55974 15.5465 6.63566 15.578C6.71159 15.6094 6.79296 15.6256 6.87514 15.6256C6.95732 15.6256 7.0387 15.6094 7.11462 15.578C7.19054 15.5465 7.25953 15.5004 7.31764 15.4423C7.37575 15.3842 7.42185 15.3152 7.45329 15.2393C7.48474 15.1634 7.50093 15.082 7.50093 14.9998C7.50093 14.9176 7.48474 14.8363 7.45329 14.7603C7.42185 14.6844 7.37575 14.6154 7.31764 14.5573L3.38389 10.6248H18.1251C18.2909 10.6248 18.4499 10.559 18.5671 10.4418C18.6843 10.3245 18.7501 10.1656 18.7501 9.99981Z" fill="#A69797"/>
</svg>
