<svg width="29" height="29" viewBox="0 0 29 29" fill="none" xmlns="http://www.w3.org/2000/svg">
<path d="M2.5375 13.4125L0 10.875C1.85278 8.98192 4.01771 7.50172 6.49479 6.43435C8.97188 5.36699 11.6403 4.83331 14.5 4.83331C14.9833 4.83331 15.4667 4.84822 15.95 4.87802C16.4333 4.90863 16.9167 4.95415 17.4 5.01456L15.5875 8.51873C15.3458 8.47845 15.1497 8.45831 14.999 8.45831H14.5C12.1639 8.45831 9.97358 8.89613 7.92908 9.77177C5.88539 10.6482 4.08819 11.8618 2.5375 13.4125ZM7.67292 18.5479L5.13542 15.95C6.26319 14.8222 7.55732 13.9309 9.01779 13.2759C10.4775 12.6218 12.0632 12.2444 13.775 12.1437L11.8417 16.0708C11.0563 16.3125 10.3111 16.6399 9.60625 17.0532C8.90139 17.4656 8.25694 17.9639 7.67292 18.5479ZM13.6542 23.9854C13.05 23.7639 12.582 23.3458 12.2501 22.7311C11.9174 22.1173 11.9021 21.5083 12.2042 20.9041L19.4542 6.16248C19.5347 6.00137 19.6503 5.89544 19.801 5.84469C19.9524 5.79474 20.1187 5.79998 20.3 5.8604C20.4611 5.92081 20.5819 6.02151 20.6625 6.16248C20.7431 6.30345 20.7632 6.46456 20.7229 6.64581L16.7958 22.5354C16.6347 23.2 16.2319 23.668 15.5875 23.9395C14.9431 24.2118 14.2986 24.2271 13.6542 23.9854ZM21.3271 18.5479C21.2063 18.4271 21.0753 18.3062 20.9344 18.1854C20.7934 18.0646 20.6424 17.9437 20.4813 17.8229L21.4479 14.0166C21.8708 14.3187 22.2889 14.626 22.7022 14.9386C23.1146 15.2504 23.5021 15.5875 23.8646 15.95L21.3271 18.5479ZM26.4625 13.4125C25.8583 12.8083 25.2091 12.2545 24.5147 11.751C23.8195 11.2476 23.0792 10.7944 22.2938 10.3916L23.1396 6.76665C24.2271 7.29026 25.2642 7.89442 26.251 8.57915C27.2378 9.26387 28.1542 10.0291 29 10.875L26.4625 13.4125Z" fill="#292F79"/>
</svg>
