<svg width="8" height="9" viewBox="0 0 8 9" fill="none" xmlns="http://www.w3.org/2000/svg">
<path d="M3.78743 4.89875C4.46583 4.89875 5.01579 4.36308 5.01579 3.7023C5.01579 3.04151 4.46583 2.50585 3.78743 2.50585C3.10903 2.50585 2.55908 3.04151 2.55908 3.7023C2.55908 4.36308 3.10903 4.89875 3.78743 4.89875Z" stroke="#BFB7B7" stroke-linecap="round" stroke-linejoin="round"/>
<path d="M3.78743 0.511815C2.91868 0.511815 2.08552 0.84796 1.47122 1.4463C0.856924 2.04464 0.511815 2.85617 0.511815 3.70235C0.511815 4.45691 0.676415 4.95065 1.12599 5.49703L3.78743 8.48816L6.44887 5.49703C6.89845 4.95065 7.06305 4.45691 7.06305 3.70235C7.06305 2.85617 6.71794 2.04464 6.10364 1.4463C5.48935 0.84796 4.65618 0.511815 3.78743 0.511815Z" stroke="#BFB7B7" stroke-linecap="round" stroke-linejoin="round"/>
</svg>
