<svg width="30" height="33" viewBox="0 0 30 33" fill="none" xmlns="http://www.w3.org/2000/svg">
<g clip-path="url(#clip0_318_10385)">
<path d="M24.1875 13.805C23.7676 11.4644 22.622 9.35668 20.9463 7.84196C19.2707 6.32725 17.1689 5.49946 15 5.5C11.3875 5.5 8.25 7.755 6.6875 11.055C4.85029 11.2734 3.15126 12.2309 1.91686 13.7436C0.682464 15.2562 -0.000214627 17.2173 5.06159e-08 19.25C5.06159e-08 23.8013 3.3625 27.5 7.5 27.5H23.75C27.2 27.5 30 24.42 30 20.625C30 16.995 27.4375 14.0525 24.1875 13.805ZM17.5 17.875V23.375H12.5V17.875H8.75L15 11L21.25 17.875H17.5Z" fill="#AC9D9D"/>
</g>
<defs>
<clipPath id="clip0_318_10385">
<rect width="30" height="33" fill="white"/>
</clipPath>
</defs>
</svg>
