<svg width="23" height="24" viewBox="0 0 23 24" fill="none" xmlns="http://www.w3.org/2000/svg">
<g clip-path="url(#clip0_1_1354)">
<path d="M23 12C23 5.37262 17.8512 0 11.5 0C5.14877 0 0 5.37253 0 12C0 17.9895 4.20541 22.954 9.70312 23.8542V15.4688H6.7832V12H9.70312V9.35625C9.70312 6.34875 11.42 4.6875 14.0468 4.6875C15.3051 4.6875 16.6211 4.92188 16.6211 4.92188V7.875H15.171C13.7423 7.875 13.2969 8.80003 13.2969 9.74906V12H16.4863L15.9765 15.4688H13.2969V23.8542C18.7946 22.954 23 17.9896 23 12Z" fill="#1877F2"/>
<path d="M15.9765 15.4688L16.4863 12H13.2969V9.74906C13.2969 8.79994 13.7424 7.875 15.171 7.875H16.6211V4.92188C16.6211 4.92188 15.3051 4.6875 14.0468 4.6875C11.42 4.6875 9.70312 6.34875 9.70312 9.35625V12H6.7832V15.4688H9.70312V23.8542C10.2975 23.9514 10.8983 24.0002 11.5 24C12.1017 24.0002 12.7025 23.9514 13.2969 23.8542V15.4688H15.9765Z" fill="white"/>
</g>
<defs>
<clipPath id="clip0_1_1354">
<rect width="23" height="24" fill="white"/>
</clipPath>
</defs>
</svg>
