<svg width="80" height="80" viewBox="0 0 80 80" fill="none" xmlns="http://www.w3.org/2000/svg">
<g clip-path="url(#clip0_541_2010)">
<path d="M76.1529 8.44409H51.8016C51.0923 8.44409 50.412 8.72587 49.9104 9.22743C49.4088 9.729 49.127 10.4093 49.127 11.1186V27.3449C49.127 28.0542 49.4088 28.7346 49.9104 29.2362C50.412 29.7378 51.0923 30.0196 51.8016 30.0196H58.9107C59.3251 30.0196 59.7225 30.1842 60.0155 30.4772L63.1459 33.6074C63.2924 33.7539 63.4911 33.8362 63.6983 33.8362C63.9055 33.8362 64.1042 33.7539 64.2507 33.6074L67.381 30.4772C67.674 30.1842 68.0713 30.0195 68.4857 30.0194H76.1529C76.8622 30.0194 77.5425 29.7376 78.0441 29.2361C78.5457 28.7345 78.8275 28.0542 78.8276 27.3449V11.1188C78.8275 10.4094 78.5457 9.72916 78.0441 9.22759C77.5425 8.72602 76.8622 8.44409 76.1529 8.44409Z" fill="#292F79" fill-opacity="0.4"/>
<path d="M71.7963 16.8879H63.1895C62.8787 16.8879 62.5806 16.7645 62.3608 16.5447C62.141 16.3249 62.0176 16.0269 62.0176 15.7161C62.0176 15.4053 62.141 15.1072 62.3608 14.8874C62.5806 14.6677 62.8787 14.5442 63.1895 14.5442H71.7963C72.1071 14.5442 72.4052 14.6677 72.625 14.8874C72.8447 15.1072 72.9682 15.4053 72.9682 15.7161C72.9682 16.0269 72.8447 16.3249 72.625 16.5447C72.4052 16.7645 72.1071 16.8879 71.7963 16.8879ZM71.7963 23.9192H63.1895C62.8787 23.9192 62.5806 23.7957 62.3608 23.576C62.141 23.3562 62.0176 23.0581 62.0176 22.7473C62.0176 22.4365 62.141 22.1384 62.3608 21.9187C62.5806 21.6989 62.8787 21.5754 63.1895 21.5754H71.7963C72.1071 21.5754 72.4052 21.6989 72.625 21.9187C72.8447 22.1384 72.9682 22.4365 72.9682 22.7473C72.9682 23.0581 72.8447 23.3562 72.625 23.576C72.4052 23.7957 72.1071 23.9192 71.7963 23.9192Z" fill="#DD2E44"/>
<path d="M3.84656 8.44409H28.1978C28.9072 8.44409 29.5875 8.72587 30.089 9.22743C30.5906 9.729 30.8725 10.4093 30.8725 11.1186V27.3449C30.8725 28.0542 30.5907 28.7346 30.0891 29.2362C29.5875 29.7378 28.9072 30.0196 28.1978 30.0196H21.0888C20.6744 30.0196 20.2769 30.1842 19.9839 30.4772L16.8536 33.6074C16.7071 33.7538 16.5084 33.8361 16.3013 33.8361C16.0941 33.8361 15.8954 33.7538 15.7489 33.6074L12.6186 30.4772C12.4735 30.3321 12.3013 30.217 12.1117 30.1384C11.9221 30.0599 11.719 30.0194 11.5138 30.0194H3.84656C3.13725 30.0194 2.45698 29.7377 1.95538 29.2361C1.45379 28.7346 1.17196 28.0543 1.17188 27.345V11.1188C1.17192 10.4094 1.45373 9.72916 1.95533 9.22759C2.45692 8.72602 3.13722 8.44409 3.84656 8.44409Z" fill="#292F79" fill-opacity="0.4"/>
<path d="M16.81 16.8879H8.20312C7.89232 16.8879 7.59425 16.7645 7.37448 16.5447C7.15471 16.3249 7.03125 16.0269 7.03125 15.7161C7.03125 15.4053 7.15471 15.1072 7.37448 14.8874C7.59425 14.6677 7.89232 14.5442 8.20312 14.5442H16.81C17.1208 14.5442 17.4189 14.6677 17.6386 14.8874C17.8584 15.1072 17.9819 15.4053 17.9819 15.7161C17.9819 16.0269 17.8584 16.3249 17.6386 16.5447C17.4189 16.7645 17.1208 16.8879 16.81 16.8879ZM16.81 23.9192H8.20312C7.89232 23.9192 7.59425 23.7957 7.37448 23.576C7.15471 23.3562 7.03125 23.0581 7.03125 22.7473C7.03125 22.4365 7.15471 22.1384 7.37448 21.9187C7.59425 21.6989 7.89232 21.5754 8.20312 21.5754H16.81C17.1208 21.5754 17.4189 21.6989 17.6386 21.9187C17.8584 22.1384 17.9819 22.4365 17.9819 22.7473C17.9819 23.0581 17.8584 23.3562 17.6386 23.576C17.4189 23.7957 17.1208 23.9192 16.81 23.9192Z" fill="#DD2E44"/>
<path d="M49.4863 71.1061C49.4863 70.2265 49.7761 69.3713 50.3109 68.673C50.8458 67.9746 51.5958 67.4719 52.4451 67.2427L59.1088 65.4439C59.6355 65.3017 60.1007 64.99 60.4324 64.5569C60.7641 64.1237 60.9438 63.5934 60.9438 63.0478V61.5546H67.3713V63.0478C67.3713 63.5934 67.5511 64.1237 67.8828 64.5569C68.2145 64.99 68.6796 65.3017 69.2063 65.4439L75.8701 67.2427C76.7193 67.4719 77.4694 67.9746 78.0043 68.673C78.5391 69.3714 78.8289 70.2266 78.8288 71.1063V80H49.4863V71.1061Z" fill="#4C5191"/>
<path d="M70.8417 53.3907L57.4727 53.4387V47.4354C57.4726 46.9099 57.5761 46.3896 57.7772 45.9041C57.9783 45.4185 58.273 44.9774 58.6446 44.6058C59.0162 44.2342 59.4573 43.9394 59.9428 43.7383C60.4284 43.5372 60.9487 43.4337 61.4742 43.4337H70.2167C70.3825 43.4337 70.5415 43.4996 70.6587 43.6168C70.7759 43.734 70.8417 43.893 70.8417 44.0587V53.3907Z" fill="#676E87"/>
<path d="M67.3699 63.0478V61.5546H60.9424V63.0478C60.9424 63.5934 60.7627 64.1237 60.431 64.5569C60.0993 64.99 59.6341 65.3017 59.1074 65.4439L59.2729 65.5718C60.7001 66.6738 62.4581 67.261 64.2612 67.2378C66.0642 67.2146 67.8065 66.5824 69.2049 65.4439C68.6782 65.3017 68.2131 64.99 67.8814 64.5569C67.5497 64.1237 67.3699 63.5934 67.3699 63.0478Z" fill="#FFCD85"/>
<path d="M67.3707 63.0478V61.5546H60.9432V63.0478C60.9427 63.2061 60.9271 63.364 60.8965 63.5193C61.8929 64.0763 63.0154 64.3687 64.157 64.3687C65.2985 64.3687 66.421 64.0763 67.4174 63.5193C67.3868 63.364 67.3711 63.2061 67.3705 63.0478H67.3707Z" fill="#FFC166"/>
<path d="M73.998 80V73.8141C73.998 73.5033 73.8746 73.2052 73.6548 72.9854C73.435 72.7657 73.137 72.6422 72.8262 72.6422C72.5154 72.6422 72.2173 72.7657 71.9975 72.9854C71.7778 73.2052 71.6543 73.5033 71.6543 73.8141V80H73.998Z" fill="#4C5191"/>
<path d="M70.8417 51.4379V56.1215C70.8417 57.8944 70.1375 59.5946 68.8839 60.8482C67.6303 62.1018 65.93 62.806 64.1572 62.806C62.3843 62.806 60.6841 62.1018 59.4305 60.8482C58.1769 59.5946 57.4727 57.8944 57.4727 56.1215V51.4379C59.7211 50.329 61.3552 50.3551 62.4078 50.5626C64.0205 50.8806 64.6284 51.6948 66.3016 52.0304C68.1484 52.401 69.795 51.8878 70.8417 51.4379Z" fill="#FFCD85"/>
<path d="M1.04883 71.1061C1.0488 70.2265 1.33861 69.3713 1.87345 68.673C2.40828 67.9746 3.15833 67.4719 4.00758 67.2427L10.6713 65.4439C11.198 65.3017 11.6632 64.99 11.9949 64.5569C12.3266 64.1237 12.5063 63.5934 12.5063 63.0478V61.5546H18.9338V63.0478C18.9338 63.5934 19.1136 64.1237 19.4453 64.5569C19.777 64.99 20.2421 65.3017 20.7688 65.4439L27.4326 67.2427C28.2819 67.4719 29.0319 67.9746 29.5668 68.673C30.1016 69.3714 30.3914 70.2266 30.3913 71.1063V80H1.04883V71.1061Z" fill="#4C5191"/>
<path d="M22.4042 53.3907L9.03516 53.4387V47.4354C9.03514 46.9099 9.13862 46.3896 9.33971 45.9041C9.5408 45.4185 9.83555 44.9774 10.2071 44.6058C10.5787 44.2342 11.0198 43.9394 11.5054 43.7383C11.9909 43.5372 12.5112 43.4337 13.0367 43.4337H21.7792C21.945 43.4337 22.104 43.4996 22.2212 43.6168C22.3384 43.734 22.4042 43.893 22.4042 44.0587V53.3907Z" fill="#676E87"/>
<path d="M18.9324 63.0478V61.5546H12.5049V63.0478C12.5049 63.5934 12.3252 64.1237 11.9935 64.5569C11.6618 64.99 11.1966 65.3017 10.6699 65.4439L10.8354 65.5718C12.2626 66.6738 14.0206 67.261 15.8237 67.2378C17.6267 67.2146 19.369 66.5824 20.7674 65.4439C20.2407 65.3017 19.7756 64.99 19.4439 64.5569C19.1122 64.1237 18.9324 63.5934 18.9324 63.0478Z" fill="#FFCD85"/>
<path d="M18.9332 63.0478V61.5546H12.5057V63.0478C12.5052 63.2061 12.4896 63.364 12.459 63.5193C13.4554 64.0763 14.5779 64.3687 15.7195 64.3687C16.861 64.3687 17.9835 64.0763 18.9799 63.5193C18.9493 63.364 18.9337 63.2061 18.9332 63.0478Z" fill="#FFC166"/>
<path d="M8.3457 80V73.8141C8.3457 73.5033 8.22224 73.2052 8.00247 72.9854C7.7827 72.7657 7.48463 72.6422 7.17383 72.6422C6.86303 72.6422 6.56496 72.7657 6.34519 72.9854C6.12542 73.2052 6.00195 73.5033 6.00195 73.8141V80H8.3457Z" fill="#4C5191"/>
<path d="M22.4042 51.4379V56.1215C22.4042 57.8944 21.7 59.5946 20.4464 60.8482C19.1928 62.1018 17.4925 62.806 15.7197 62.806C13.9468 62.806 12.2466 62.1018 10.993 60.8482C9.73942 59.5946 9.03516 57.8944 9.03516 56.1215V51.4379C11.2836 50.329 12.9177 50.3551 13.9703 50.5626C15.583 50.8806 16.1909 51.6948 17.8641 52.0304C19.7109 52.401 21.3575 51.8878 22.4042 51.4379Z" fill="#FFCD85"/>
<path d="M59.5295 69.7828C59.5289 68.3128 59.0668 66.8801 58.2082 65.6869L52.4445 67.2427C51.5952 67.4719 50.8452 67.9746 50.3103 68.673C49.7755 69.3713 49.4857 70.2265 49.4857 71.1061V80H59.5295V69.7828ZM20.4707 69.7828V80H30.3907V71.1063C30.3907 70.2266 30.1009 69.3714 29.5661 68.673C29.0313 67.9746 28.2812 67.4719 27.432 67.2427L21.7715 65.7147C20.9258 66.9026 20.4711 68.3246 20.4707 69.7828Z" fill="#4C5191"/>
<path d="M57.1857 80V69.7828C57.1857 68.7524 56.8462 67.7507 56.2197 66.9326C55.5932 66.1146 54.7146 65.5257 53.7198 65.2572L45.9141 63.1502C45.2972 62.9836 44.7523 62.6184 44.3637 62.1111C43.9752 61.6037 43.7646 60.9825 43.7646 60.3435V58.5942H36.2357V60.3435C36.2357 60.9825 36.0251 61.6038 35.6365 62.1111C35.2479 62.6185 34.703 62.9837 34.086 63.1502L26.2804 65.2572C25.2856 65.5257 24.407 66.1145 23.7805 66.9326C23.154 67.7506 22.8145 68.7523 22.8145 69.7827V80H57.1857Z" fill="#292F79"/>
<path d="M47.8302 49.0312L32.1699 49.0875V42.0554C32.1699 40.8122 32.6638 39.6199 33.5429 38.7409C34.4219 37.8618 35.6142 37.3679 36.8574 37.3679H46.8927C47.1414 37.3679 47.3798 37.4667 47.5556 37.6425C47.7315 37.8183 47.8302 38.0568 47.8302 38.3054V49.0312Z" fill="#676E87"/>
<path d="M31.0176 80V72.9547C31.0176 72.6439 30.8941 72.3458 30.6743 72.1261C30.4546 71.9063 30.1565 71.7828 29.8457 71.7828C29.5349 71.7828 29.2368 71.9063 29.0171 72.1261C28.7973 72.3458 28.6738 72.6439 28.6738 72.9547V80H31.0176ZM51.3263 80V72.9547C51.3263 72.6439 51.2029 72.3458 50.9831 72.1261C50.7633 71.9063 50.4653 71.7828 50.1545 71.7828C49.8437 71.7828 49.5456 71.9063 49.3258 72.1261C49.106 72.3458 48.9826 72.6439 48.9826 72.9547V80H51.3263Z" fill="#292F79"/>
<path d="M45.9141 63.1502C45.2971 62.9836 44.7522 62.6184 44.3636 62.1111C43.9751 61.6037 43.7645 60.9825 43.7645 60.3435V58.5942H36.2356V60.3435C36.2356 60.9825 36.025 61.6038 35.6364 62.1111C35.2479 62.6185 34.7029 62.9837 34.0859 63.1502L34.2797 63.2999C35.9515 64.5909 38.0108 65.2787 40.1229 65.2515C42.2351 65.2244 44.276 64.4838 45.9141 63.1502Z" fill="#FFCD85"/>
<path d="M43.7637 60.3435V58.5942H36.2348V60.3435C36.2341 60.4456 36.2281 60.5476 36.2168 60.6491C37.3751 61.2879 38.6764 61.6229 39.9991 61.6229C41.3219 61.6229 42.6232 61.2879 43.7815 60.6491C43.7702 60.5476 43.7642 60.4456 43.7637 60.3435Z" fill="#FFC166"/>
<path d="M47.8302 46.7437V52.2303C47.8302 54.307 47.0053 56.2986 45.5368 57.767C44.0684 59.2355 42.0768 60.0604 40.0001 60.0604C37.9234 60.0604 35.9318 59.2355 34.4633 57.767C32.9949 56.2986 32.1699 54.307 32.1699 52.2303V46.7437C34.8038 45.4448 36.7177 45.4754 37.951 45.7184C39.8401 46.0907 40.5521 47.0446 42.512 47.4378C44.6755 47.8718 46.6041 47.2707 47.8302 46.7437Z" fill="#FFCD85"/>
<path d="M55.692 1.17188H24.3095C23.6001 1.17188 22.9198 1.45367 22.4182 1.95527C21.9166 2.45687 21.6348 3.13719 21.6348 3.84656V20.0728C21.6348 20.7822 21.9166 21.4624 22.4182 21.964C22.9198 22.4656 23.6001 22.7473 24.3095 22.7473H33.7623C33.9675 22.7474 34.1707 22.7878 34.3602 22.8664C34.5498 22.9449 34.722 23.06 34.8671 23.2052L37.9974 26.3353C38.1439 26.4818 38.3426 26.5641 38.5498 26.5641C38.757 26.5641 38.9558 26.4818 39.1023 26.3353L42.2326 23.205C42.5256 22.912 42.9229 22.7474 43.3373 22.7473H55.692C56.4013 22.7473 57.0816 22.4656 57.5832 21.964C58.0848 21.4624 58.3666 20.7822 58.3666 20.0728V3.84656C58.3666 3.13719 58.0848 2.45687 57.5832 1.95527C57.0816 1.45367 56.4013 1.17188 55.692 1.17188Z" fill="#292F79" fill-opacity="0.4"/>
<path d="M51.3354 9.61597H28.666C28.3552 9.61597 28.0571 9.4925 27.8374 9.27273C27.6176 9.05296 27.4941 8.75489 27.4941 8.44409C27.4941 8.13329 27.6176 7.83522 27.8374 7.61545C28.0571 7.39568 28.3552 7.27222 28.666 7.27222H51.3354C51.6462 7.27222 51.9443 7.39568 52.164 7.61545C52.3838 7.83522 52.5073 8.13329 52.5073 8.44409C52.5073 8.75489 52.3838 9.05296 52.164 9.27273C51.9443 9.4925 51.6462 9.61597 51.3354 9.61597ZM51.3354 16.6472H28.666C28.3552 16.6472 28.0571 16.5238 27.8374 16.304C27.6176 16.0842 27.4941 15.7861 27.4941 15.4753C27.4941 15.1645 27.6176 14.8665 27.8374 14.6467C28.0571 14.4269 28.3552 14.3035 28.666 14.3035H51.3354C51.6462 14.3035 51.9443 14.4269 52.164 14.6467C52.3838 14.8665 52.5073 15.1645 52.5073 15.4753C52.5073 15.7861 52.3838 16.0842 52.164 16.304C51.9443 16.5238 51.6462 16.6472 51.3354 16.6472Z" fill="#DD2E44"/>
</g>
<defs>
<clipPath id="clip0_541_2010">
<rect width="80" height="80" fill="white"/>
</clipPath>
</defs>
</svg>
