<svg width="44" height="42" viewBox="0 0 44 42" fill="none" xmlns="http://www.w3.org/2000/svg">
<path d="M29.9249 6.00496H10.2086L13.6114 0.900744C14.0118 0.300248 14.6123 0 15.3128 0H24.9208C25.6213 0 26.2218 0.300248 26.6222 0.900744L29.9249 6.00496Z" fill="#292F79"/>
<path d="M10.0083 4.90395H4.0033V3.10246C4.0033 2.40188 4.50372 1.90147 5.2043 1.90147H8.80727C9.50785 1.90147 10.0083 2.40188 10.0083 3.10246V4.90395Z" fill="#4C5191"/>
<path d="M36.0297 35.9296H4.0033C1.80149 35.9296 0 34.1281 0 31.9263V7.90643C0 5.70461 1.80149 3.90312 4.0033 3.90312H36.0297C38.2316 3.90312 40.033 5.70461 40.033 7.90643V31.9263C40.033 34.1281 38.2316 35.9296 36.0297 35.9296Z" fill="#292F79"/>
<path d="M20.0165 31.9263C26.6494 31.9263 32.0264 26.5492 32.0264 19.9163C32.0264 13.2834 26.6494 7.90643 20.0165 7.90643C13.3836 7.90643 8.00661 13.2834 8.00661 19.9163C8.00661 26.5492 13.3836 31.9263 20.0165 31.9263Z" fill="#292F79"/>
<path d="M20.0165 28.9238C24.9912 28.9238 29.024 24.891 29.024 19.9163C29.024 14.9417 24.9912 10.9089 20.0165 10.9089C15.0419 10.9089 11.0091 14.9417 11.0091 19.9163C11.0091 24.891 15.0419 28.9238 20.0165 28.9238Z" fill="#B388FF"/>
<path d="M34.941 34.6313L36.6384 32.9329L43.9974 40.292L42.299 41.9894L34.941 34.6313Z" fill="#616161"/>
<path d="M31.0256 38.932C36.553 38.932 41.0339 34.4512 41.0339 28.9238C41.0339 23.3964 36.553 18.9155 31.0256 18.9155C25.4982 18.9155 21.0173 23.3964 21.0173 28.9238C21.0173 34.4512 25.4982 38.932 31.0256 38.932Z" fill="#616161"/>
<path d="M38.3363 38.037L40.0347 36.3396L43.998 40.3018L42.2986 42.0002L38.3363 38.037Z" fill="#37474F"/>
<path d="M31.0256 36.9304C35.4475 36.9304 39.0322 33.3457 39.0322 28.9238C39.0322 24.5018 35.4475 20.9172 31.0256 20.9172C26.6037 20.9172 23.019 24.5018 23.019 28.9238C23.019 33.3457 26.6037 36.9304 31.0256 36.9304Z" fill="#64B5F6"/>
<path d="M35.3293 25.3207C34.2284 24.0196 32.7271 23.3191 31.1258 23.3191C29.5245 23.3191 27.9232 24.0196 26.9224 25.3207C26.7222 25.621 26.7222 25.9212 27.0224 26.2214C27.3227 26.4216 27.6229 26.4216 27.9232 26.1214C28.7238 25.1205 29.9248 24.6201 31.2259 24.6201C32.527 24.6201 33.728 25.2206 34.5286 26.1214C34.6287 26.2214 34.8289 26.3215 35.029 26.3215C35.1291 26.3215 35.3293 26.3215 35.4294 26.2214C35.5295 26.0213 35.5295 25.621 35.3293 25.3207Z" fill="#BBDEFB"/>
<path d="M25.0207 16.9142C23.8197 15.513 22.0182 14.7123 20.2167 14.7123C18.4152 14.7123 16.6137 15.513 15.4127 16.9142C14.9123 17.4146 15.0124 18.2152 15.5128 18.7156C16.0132 19.2161 16.8139 19.116 17.3143 18.6156C18.8155 16.9142 21.6179 16.9142 23.1191 18.6156C23.4193 18.9158 23.7196 19.0159 24.1199 19.0159C24.4202 19.0159 24.7204 18.9158 25.0207 18.7156C25.421 18.3153 25.5211 17.4146 25.0207 16.9142Z" fill="#C7A7FF"/>
<path d="M7.00578 8.90725C8.11126 8.90725 9.00743 8.23513 9.00743 7.40602C9.00743 6.5769 8.11126 5.90478 7.00578 5.90478C5.9003 5.90478 5.00413 6.5769 5.00413 7.40602C5.00413 8.23513 5.9003 8.90725 7.00578 8.90725Z" fill="#4C5191"/>
</svg>
