<svg width="30" height="30" viewBox="0 0 30 30" fill="none" xmlns="http://www.w3.org/2000/svg">
<path d="M4.5 7.5C3.70435 7.5 2.94129 7.81607 2.37868 8.37868C1.81607 8.94129 1.5 9.70435 1.5 10.5V25.5C1.5 26.2956 1.81607 27.0587 2.37868 27.6213C2.94129 28.1839 3.70435 28.5 4.5 28.5H25.5C26.2956 28.5 27.0587 28.1839 27.6213 27.6213C28.1839 27.0587 28.5 26.2956 28.5 25.5V10.5C28.5 9.70435 28.1839 8.94129 27.6213 8.37868C27.0587 7.81607 26.2956 7.5 25.5 7.5H4.5ZM4.5 24L9.75 17.25L13.5 21.75L18.75 15L25.5 24H4.5ZM24 3C24.7956 3 25.5587 3.31607 26.1213 3.87868C26.6839 4.44129 27 5.20435 27 6H3C3 5.20435 3.31607 4.44129 3.87868 3.87868C4.44129 3.31607 5.20435 3 6 3H24Z" fill="#292F79"/>
</svg>
