<svg width="43" height="43" viewBox="0 0 43 43" fill="none" xmlns="http://www.w3.org/2000/svg">
<g filter="url(#filter0_d_240_583)">
<rect x="4" width="35" height="35" rx="15" fill="#292F79"/>
</g>
<path d="M30.4796 18.2646L30.13 18.6282L28.7036 17.1448L29.0804 16.753L29.0808 16.7526C29.1278 16.7036 29.1826 16.6658 29.2414 16.6404C29.3002 16.615 29.3626 16.6023 29.425 16.6023C29.4874 16.6023 29.5497 16.615 29.6086 16.6404C29.6674 16.6658 29.7222 16.7036 29.7692 16.7526L29.7696 16.753L30.4796 17.4914C30.6835 17.7034 30.6835 18.0526 30.4796 18.2646ZM23.8996 25.0974L23.8971 25.1H22.5037C22.5035 25.0995 22.5032 25.0989 22.5029 25.0982C22.5017 25.0952 22.5 25.0895 22.5 25.08V23.6136C22.5 23.6059 22.5007 23.6006 22.5012 23.5976C22.5014 23.5963 22.5017 23.5954 22.5018 23.5947L27.3008 18.6037L28.7256 20.0784L23.8996 25.0974ZM23.5 15.2C23.5 15.5145 23.2556 15.74 23 15.74H14C13.7444 15.74 13.5 15.5145 13.5 15.2C13.5 14.8855 13.7444 14.66 14 14.66H23C23.2556 14.66 23.5 14.8855 23.5 15.2ZM14 11.58C13.7444 11.58 13.5 11.3545 13.5 11.04C13.5 10.7255 13.7444 10.5 14 10.5H23C23.2556 10.5 23.5 10.7255 23.5 11.04C23.5 11.3545 23.2556 11.58 23 11.58H14ZM19 18.82C19.2556 18.82 19.5 19.0455 19.5 19.36C19.5 19.6745 19.2556 19.9 19 19.9H14C13.7444 19.9 13.5 19.6745 13.5 19.36C13.5 19.0455 13.7444 18.82 14 18.82H19Z" fill="white" stroke="white"/>
<defs>
<filter id="filter0_d_240_583" x="0" y="0" width="43" height="43" filterUnits="userSpaceOnUse" color-interpolation-filters="sRGB">
<feFlood flood-opacity="0" result="BackgroundImageFix"/>
<feColorMatrix in="SourceAlpha" type="matrix" values="0 0 0 0 0 0 0 0 0 0 0 0 0 0 0 0 0 0 127 0" result="hardAlpha"/>
<feOffset dy="4"/>
<feGaussianBlur stdDeviation="2"/>
<feComposite in2="hardAlpha" operator="out"/>
<feColorMatrix type="matrix" values="0 0 0 0 0 0 0 0 0 0 0 0 0 0 0 0 0 0 0.25 0"/>
<feBlend mode="normal" in2="BackgroundImageFix" result="effect1_dropShadow_240_583"/>
<feBlend mode="normal" in="SourceGraphic" in2="effect1_dropShadow_240_583" result="shape"/>
</filter>
</defs>
</svg>
