<svg width="29" height="28" viewBox="0 0 29 28" fill="none" xmlns="http://www.w3.org/2000/svg">
<path d="M16.1487 4H8.07427C7.5389 4 7.02546 4.21071 6.6469 4.58579C6.26834 4.96086 6.05566 5.46957 6.05566 6V22C6.05566 22.5304 6.26834 23.0391 6.6469 23.4142C7.02546 23.7893 7.5389 24 8.07427 24H20.1859C20.7213 24 21.2347 23.7893 21.6133 23.4142C21.9918 23.0391 22.2045 22.5304 22.2045 22V10M16.1487 4L22.2045 10M16.1487 4V10H22.2045M18.1673 15H10.0929M18.1673 19H10.0929M12.1115 11H10.0929" stroke="#8B8888" stroke-width="3" stroke-linecap="round" stroke-linejoin="round"/>
</svg>
