<svg width="32" height="32" viewBox="0 0 32 32" fill="none" xmlns="http://www.w3.org/2000/svg">
<path d="M26.666 5.33329H22.4394L19.9993 2.66663H11.9993L9.55935 5.33329H5.33268C3.86602 5.33329 2.66602 6.53329 2.66602 7.99996V24C2.66602 25.4666 3.86602 26.6666 5.33268 26.6666H26.666C28.1327 26.6666 29.3327 25.4666 29.3327 24V7.99996C29.3327 6.53329 28.1327 5.33329 26.666 5.33329ZM26.666 24H5.33268V7.99996H10.7327L13.1727 5.33329H18.826L21.266 7.99996H26.666V24ZM15.9993 9.33329C12.3193 9.33329 9.33268 12.32 9.33268 16C9.33268 19.68 12.3193 22.6666 15.9993 22.6666C19.6793 22.6666 22.666 19.68 22.666 16C22.666 12.32 19.6793 9.33329 15.9993 9.33329ZM15.9993 20C13.7993 20 11.9993 18.2 11.9993 16C11.9993 13.8 13.7993 12 15.9993 12C18.1993 12 19.9993 13.8 19.9993 16C19.9993 18.2 18.1993 20 15.9993 20Z" fill="#292F79"/>
</svg>
