<svg width="378" height="277" viewBox="0 0 378 277" fill="none" xmlns="http://www.w3.org/2000/svg">
<path d="M94.7746 2.18005H21.5508V57.242H94.7746V2.18005Z" fill="#E0E0E0"/>
<path d="M89.8156 2.18005H16.5918V57.242H89.8156V2.18005Z" fill="#EBEBEB"/>
<path d="M79.9754 9.58301H26.4395V49.839H79.9754V9.58301Z" fill="#FAFAFA"/>
<path d="M26.4407 50.1064C26.0468 50.5122 25.5992 50.8893 25.1041 51.2324C24.2417 51.8545 23.0344 52.7566 21.6546 53.7208C20.2748 54.6851 19.0675 55.5374 18.2051 56.1408C17.7387 56.4899 17.2276 56.8065 16.6787 57.0864C17.0572 56.6793 17.4936 56.3019 17.9809 55.9604C18.8433 55.3383 20.0506 54.43 21.4304 53.472C22.8102 52.514 24.0175 51.6555 24.923 51.0458C25.3797 50.6936 25.8887 50.3786 26.4407 50.1064Z" fill="#E0E0E0"/>
<path d="M79.9766 49.9883C80.524 50.274 81.0322 50.5969 81.4943 50.9525C82.3567 51.5746 83.6071 52.4456 84.9438 53.4409C86.2805 54.4363 87.4533 55.3072 88.2984 55.9293C88.7849 56.2641 89.224 56.633 89.6092 57.0304C89.0576 56.7509 88.5488 56.4297 88.0915 56.0724C87.2291 55.4503 85.9787 54.5794 84.642 53.584C83.3053 52.5887 82.1325 51.7177 81.2874 51.0956C80.7976 50.7609 80.3582 50.3897 79.9766 49.9883Z" fill="#E0E0E0"/>
<path d="M79.8291 9.68883C80.2219 9.29204 80.6698 8.92518 81.1658 8.59394C82.0281 7.97184 83.2268 7.0698 84.5721 6.10554C85.9174 5.14129 87.1592 4.28902 88.0647 3.68558C88.5328 3.33528 89.0469 3.0186 89.5998 2.73999C89.2052 3.13388 88.7575 3.49855 88.2631 3.82866C87.4007 4.45076 86.202 5.35902 84.8136 6.31706C83.4252 7.27509 82.2265 8.13358 81.3124 8.74324C80.8635 9.09376 80.3665 9.41057 79.8291 9.68883Z" fill="#E0E0E0"/>
<path d="M26.2938 9.78812C25.7464 9.50237 25.2382 9.17948 24.776 8.82387C23.9137 8.20177 22.6546 7.33084 21.3266 6.33548C19.9985 5.34012 18.8084 4.46918 17.9633 3.84709C17.4777 3.51347 17.0413 3.14446 16.6611 2.74597C17.2065 3.02889 17.7119 3.34977 18.1703 3.704C19.0326 4.3261 20.2917 5.19704 21.6198 6.19239C22.9478 7.18775 24.1379 8.05869 24.983 8.68079C25.4728 9.01554 25.9122 9.38672 26.2938 9.78812Z" fill="#E0E0E0"/>
<path d="M79.8292 49.8389C79.8292 49.8389 79.8292 49.7705 79.8292 49.6461C79.8292 49.5217 79.8292 49.3226 79.8292 49.0862C79.8292 48.5823 79.8292 47.842 79.8292 46.9151C79.8292 45.0114 79.8292 42.2369 79.8292 38.7096C79.8292 31.6612 79.7775 21.6143 79.7344 9.58294L79.9155 9.70736H26.5261L26.7245 9.56428C26.7245 24.3391 26.7245 38.1808 26.7245 49.8203L26.552 49.6958L65.2207 49.758L76.0693 49.7954H78.941H76.1124H65.2897L26.483 49.8576H26.3105V49.7332C26.3105 38.075 26.3105 24.2271 26.3105 9.47719V9.32788H26.5175H79.9068H80.0793V9.45852C80.0793 21.521 80.0103 31.599 79.9931 38.6971C79.9931 42.212 79.9931 44.9741 79.9413 46.8715C79.9413 47.8047 79.9413 48.5263 79.9413 49.0178C79.9413 49.2542 79.9413 49.4346 79.9413 49.5652C79.9413 49.6958 79.8292 49.8389 79.8292 49.8389Z" fill="#E0E0E0"/>
<path d="M40.5652 26.3982C40.5652 26.3982 39.4183 36.3518 54.3631 36.3518C54.3804 31.0453 48.3007 26.8461 40.5652 26.3982Z" fill="#EBEBEB"/>
<path d="M67.9454 26.4045C67.9454 26.4045 54.1475 25.5772 54.1475 36.3581C61.5035 36.3768 67.3245 31.9848 67.9454 26.4045Z" fill="#EBEBEB"/>
<path d="M53.7169 20.9486C53.7169 20.9486 42.4285 28.2583 54.3379 36.3642C59.8743 32.1339 59.3741 25.4961 53.7169 20.9486Z" fill="#E0E0E0"/>
<path d="M283.296 203.808C278.74 201.754 273.593 200.477 268.248 200.076C265.79 199.895 263.074 199.945 261.125 201.021C260.899 201.118 260.712 201.255 260.583 201.42C260.455 201.585 260.389 201.771 260.392 201.961C260.515 202.221 260.762 202.442 261.09 202.583C267.213 205.948 276.475 206.378 283.296 203.796" fill="#E0E0E0"/>
<path d="M282.909 203.497C279.424 201.653 276.171 199.59 273.19 197.332C270.196 195.059 268.093 192.253 267.093 189.201C266.834 188.275 266.756 187.217 267.576 186.483C275.337 190.838 281.374 196.492 282.909 203.497Z" fill="#E0E0E0"/>
<path d="M283.219 203.765C282.5 200.714 282.558 197.594 283.391 194.558C284.366 191.553 286.634 188.679 290.196 186.962C291.532 189.22 290.954 191.821 290.014 194.178C288.553 197.833 286.276 201.292 283.271 204.418" fill="#E0E0E0"/>
<path d="M290.808 213.6C286.203 214.004 282.184 215.759 278.735 218.005C275.279 220.279 272.872 223.262 271.836 226.552C276.363 226.353 280.201 224.064 282.978 221.476C285.755 218.888 287.695 216.064 290.739 213.65" fill="#E0E0E0"/>
<path d="M292.464 215.149C290.65 211.825 290.016 208.227 290.618 204.681C291.221 201.135 293.041 197.754 295.914 194.844C298.544 201.581 297.578 209.196 292.464 215.149Z" fill="#E0E0E0"/>
<path d="M302.493 223.772C298.279 223.582 294.081 224.291 290.422 225.811C286.763 227.331 283.805 229.595 281.917 232.319C281.658 232.686 281.434 233.153 281.779 233.482C281.956 233.607 282.173 233.698 282.411 233.748C282.648 233.797 282.899 233.805 283.141 233.769C287.194 233.582 290.791 231.821 293.757 229.818C296.724 227.815 299.311 225.495 302.588 223.765" fill="#E0E0E0"/>
<path d="M302.174 223.305C300.015 218.286 299.884 212.928 301.795 207.858C302.545 205.867 303.813 203.777 306.365 202.844C306.467 202.794 306.581 202.761 306.702 202.746C306.822 202.731 306.946 202.735 307.064 202.757C307.269 202.835 307.426 202.966 307.504 203.124C308.358 204.515 308.728 206.035 308.582 207.553C308.429 209.065 308.106 210.565 307.616 212.038C306.814 214.782 306.391 217.731 304.304 220.095C303.81 220.662 303.366 221.253 302.976 221.861C302.58 222.484 302.58 222.676 302.217 223.155" fill="#E0E0E0"/>
<path d="M328.736 226.16C326.77 220.754 328.857 214.21 333.574 209.78C333.928 209.457 334.385 209.109 334.954 209.158C335.816 209.214 336.049 210.054 336.006 210.682C335.652 216.237 333.132 221.606 328.736 226.173" fill="#E0E0E0"/>
<path d="M331.133 227.336C340.231 229.047 350.665 227.386 358.228 223.361C353.695 221.722 348.515 221.265 343.568 222.067C338.67 222.876 334.194 224.456 331.141 227.336" fill="#E0E0E0"/>
<path d="M333.15 223.74C338.247 217.749 348.009 213.843 357.745 213.488C356.624 216.343 353.364 218.558 349.699 219.902C346.034 221.246 341.938 221.824 337.893 222.39C336.324 222.608 334.168 222.851 333.15 223.74Z" fill="#E0E0E0"/>
<path d="M329.244 206.297C330.624 202.888 332.012 199.454 332.391 195.908C332.771 192.362 332.064 188.673 329.52 185.631C324.759 192.275 324.285 200.032 329.097 206.651" fill="#E0E0E0"/>
<path d="M345.267 200.455C350.829 193.158 362.178 187.335 373.664 186.514C369.232 194.477 357.15 200.623 345.267 200.455Z" fill="#E0E0E0"/>
<path d="M341.767 201.886C350.063 202.794 357.134 206.62 364.887 208.934C366.51 209.503 368.313 209.752 370.113 209.656C370.952 209.653 371.77 209.464 372.455 209.114C373.139 208.764 373.658 208.27 373.941 207.7C374.224 207.13 374.256 206.511 374.034 205.927C373.812 205.343 373.346 204.823 372.7 204.437C371.601 203.706 370.311 203.141 368.905 202.776C360.454 200.238 351.399 200.175 342.5 201.712" fill="#E0E0E0"/>
<path d="M336.963 206.085C338.843 206.471 339.481 207.174 340.973 208.088C346.046 211.198 352.046 213.421 358.505 214.583C359.178 214.701 360.049 214.751 360.385 214.315C360.721 213.88 360.307 213.469 359.928 213.133C357.112 210.749 353.456 208.957 349.347 207.945C345.293 206.863 341.792 205.55 336.963 205.83" fill="#E0E0E0"/>
<path d="M331.538 180.722C334.944 182.982 338.967 184.704 343.35 185.775C347.733 186.846 352.378 187.244 356.987 186.943C357.41 186.949 357.821 186.843 358.142 186.645C358.78 186.141 358.013 185.363 357.28 184.946C349.794 180.741 340.74 178.993 331.547 180.697" fill="#E0E0E0"/>
<path d="M337.963 179.03C342.467 176.638 347.692 175.048 353.21 174.391C358.729 173.733 364.384 174.027 369.715 175.248C365.714 178.091 360.169 179.602 354.581 180.038C349.002 180.407 343.378 180.065 337.963 179.03Z" fill="#E0E0E0"/>
<path d="M335.41 167.378C334.677 161.991 335.151 157.742 334.634 152.33C334.634 151.894 334.47 151.378 333.91 151.222C333.125 151.005 332.478 151.695 332.185 152.267C331.097 154.776 330.819 157.431 331.37 160.029C331.922 162.628 333.289 165.101 335.367 167.26" fill="#E0E0E0"/>
<path d="M334.875 167.969C339.937 165.711 343.732 162.768 347.241 159.303C349.682 156.89 351.743 154.003 351.191 151.042C347.742 150.992 344.499 152.354 342.266 154.239C340.137 156.191 338.59 158.438 337.721 160.84C336.729 163.21 336.039 165.642 334.875 167.969Z" fill="#E0E0E0"/>
<path d="M347.026 165.537C358.158 162.563 368.464 158.179 377.459 152.591C373.829 151.533 369.698 152.168 366.033 153.213C357.728 155.633 350.941 159.714 346.871 165.462" fill="#E0E0E0"/>
<path d="M338.29 170.918C343.913 171.36 349.622 171.652 355.192 170.98C360.763 170.308 365.851 168.753 370.965 167.198C371.421 167.097 371.807 166.874 372.043 166.576C372.123 166.405 372.128 166.22 372.059 166.047C371.989 165.873 371.849 165.719 371.655 165.605C371.263 165.379 370.802 165.223 370.31 165.151C364.748 164.025 358.737 164.529 353.261 165.885C348.043 167.162 343.026 168.83 338.29 170.862" fill="#E0E0E0"/>
<path d="M306.21 180.909C302.381 175.31 302.631 168.815 305.934 163.061C308.271 165.624 308.521 168.884 308.124 171.938C307.728 174.993 306.4 178.122 306.331 181.189" fill="#E0E0E0"/>
<path d="M290.894 175.335C286.096 175.29 281.337 175.968 276.922 177.325C272.508 178.682 268.534 180.689 265.256 183.217C270.033 183.758 274.949 182.868 279.295 181.351C283.642 179.833 287.505 177.674 291.368 175.54" fill="#E0E0E0"/>
<path d="M280.607 172.853C275.924 172.579 271.414 172.162 266.912 173.158C262.411 174.153 258.289 176.411 256.486 179.54C260.903 179.796 265.335 179.193 269.318 177.792C273.278 176.392 277.056 174.739 280.607 172.853Z" fill="#E0E0E0"/>
<path d="M295.845 172.965C291.636 170.974 287.307 168.952 282.409 168.125C277.511 167.297 271.819 167.907 268.396 170.576C272.371 172.255 277.183 172.442 281.788 172.442C286.393 172.442 292.033 172.398 296.371 173.506" fill="#E0E0E0"/>
<path d="M295.87 173.127C288.669 168.025 285.944 158.862 288.842 151.894C294.524 158.17 297.008 165.675 295.87 173.127Z" fill="#E0E0E0"/>
<path d="M315.67 158.675C317.032 156.398 317.981 154.009 319.206 151.689C320.315 149.337 322.019 147.153 324.233 145.25C326.488 143.338 329.693 142.141 333.159 141.916C332.049 145.429 329.937 148.737 326.957 151.629C323.977 154.521 320.195 156.933 315.851 158.712" fill="#E0E0E0"/>
<path d="M312.092 161.686C309.841 159.459 307.245 156.429 304.201 154.762C301.157 153.095 297.182 152.087 293.465 152.728C295.391 155.162 298.078 157.239 301.311 158.794C304.545 160.349 308.236 161.339 312.092 161.686Z" fill="#E0E0E0"/>
<path d="M312.807 158.856C311.332 156.156 309.849 153.425 309.254 150.557C308.659 147.689 309.021 144.622 311.056 142.121C315.006 147.508 316.282 153.319 313.005 158.918" fill="#E0E0E0"/>
<path d="M315.705 142.127C317.947 136.783 324.725 132.845 332.047 131.041C332.957 130.776 333.941 130.669 334.919 130.73C335.405 130.771 335.864 130.913 336.239 131.14C336.615 131.367 336.89 131.667 337.031 132.006C337.299 132.914 336.255 133.729 335.307 134.332C329.581 137.857 322.925 140.509 315.74 142.127" fill="#E0E0E0"/>
<path d="M315.791 137.754C316.075 134.314 316.368 130.817 317.921 127.551C319.473 124.285 322.474 121.225 326.829 119.8C327.571 123.278 325.441 126.736 322.871 129.754C320.301 132.771 317.214 135.57 315.67 138.911" fill="#E0E0E0"/>
<path d="M315.671 140.13C313.825 136.236 313.627 131.29 310.402 127.894C308.142 125.523 304.52 123.906 302.571 121.399C301.396 123.806 301.56 126.449 303.028 128.771C304.497 131.069 306.521 133.161 309.005 134.948C311.402 136.815 313.446 138.177 315.671 140.13Z" fill="#E0E0E0"/>
<path d="M315.705 254.802C315.567 254.802 315.438 228.823 315.429 196.791C315.421 164.759 315.524 138.768 315.671 138.768C315.817 138.768 315.938 164.74 315.947 196.791C315.955 228.841 315.852 254.802 315.705 254.802Z" fill="#E0E0E0"/>
<path d="M347.172 176.99C346.738 177.142 346.285 177.265 345.818 177.357L342.093 178.265C338.954 179.036 334.633 180.131 329.951 181.537C325.268 182.943 320.939 184.137 318.447 185.693C317.455 186.293 316.665 187.048 316.136 187.901C315.782 188.523 315.722 188.884 315.67 188.878C315.649 188.787 315.649 188.695 315.67 188.604C315.726 188.346 315.816 188.092 315.937 187.845C316.407 186.939 317.18 186.131 318.188 185.494C319.692 184.577 321.375 183.825 323.181 183.26C325.173 182.588 327.39 181.885 329.735 181.189C334.435 179.801 338.79 178.7 341.964 178.01C343.55 177.655 344.844 177.388 345.749 177.213C346.213 177.106 346.689 177.031 347.172 176.99Z" fill="#E0E0E0"/>
<path d="M357.487 158.712C357.487 158.712 357.375 158.824 357.107 159.005L355.952 159.789L351.64 162.613L337.281 171.839C331.676 175.434 326.838 178.875 323.483 181.463C321.802 182.757 320.474 183.827 319.568 184.573C319.154 184.921 318.809 185.195 318.525 185.432C318.24 185.668 318.154 185.73 318.137 185.718C318.226 185.601 318.33 185.491 318.447 185.388C318.663 185.176 318.982 184.865 319.413 184.48C320.275 183.702 321.56 182.613 323.207 181.282C327.541 177.867 332.124 174.621 336.936 171.559C342.559 167.963 347.682 164.716 351.398 162.414L355.822 159.677L357.038 158.949C357.175 158.858 357.325 158.779 357.487 158.712Z" fill="#E0E0E0"/>
<path d="M331.236 175.496C331.09 175.447 332.254 173.499 333.427 171.03C334.599 168.56 335.151 166.482 335.307 166.501C335.462 166.52 335.108 168.653 333.918 171.154C333.421 172.212 332.845 173.251 332.193 174.265C331.958 174.706 331.635 175.121 331.236 175.496Z" fill="#E0E0E0"/>
<path d="M315.739 191.205C315.417 190.987 315.128 190.745 314.876 190.483L312.66 188.436C310.806 186.701 308.236 184.312 305.356 181.693C302.476 179.074 299.828 176.716 297.914 175.03L295.663 173.021C295.367 172.784 295.107 172.525 294.887 172.249C295.228 172.452 295.54 172.679 295.818 172.927C296.396 173.375 297.215 174.041 298.207 174.868C300.199 176.529 302.898 178.85 305.778 181.475C308.659 184.1 311.194 186.514 312.979 188.287C313.842 189.177 314.575 189.898 315.058 190.408C315.316 190.659 315.544 190.925 315.739 191.205Z" fill="#E0E0E0"/>
<path d="M308.839 184.828C308.753 184.897 306.916 183.316 305.95 180.928C305.407 179.654 305.185 178.32 305.295 176.99H305.519C305.424 177.288 305.347 177.45 305.304 177.444C305.261 177.438 305.261 177.27 305.304 176.965H305.537C305.644 178.261 305.954 179.544 306.459 180.791C307.382 183.117 308.977 184.766 308.839 184.828Z" fill="#E0E0E0"/>
<path d="M299.976 176.747C299.355 176.404 298.677 176.12 297.958 175.901C296.142 175.509 294.231 175.399 292.352 175.578C290.45 175.683 288.564 175.904 286.712 176.237C285.954 176.412 285.179 176.545 284.393 176.635C285.085 176.339 285.835 176.119 286.618 175.982C288.47 175.567 290.383 175.306 292.318 175.204C294.266 175.017 296.247 175.171 298.096 175.652C298.881 175.846 299.547 176.234 299.976 176.747Z" fill="#E0E0E0"/>
<path d="M297.819 174.787C297.819 174.843 296.647 174.445 294.732 173.972C289.724 172.734 284.359 172.441 279.149 173.12C277.157 173.375 275.95 173.643 275.924 173.581C276.176 173.466 276.453 173.382 276.743 173.332C277.507 173.139 278.288 172.981 279.08 172.859C284.341 172.025 289.827 172.326 294.853 173.724C295.608 173.932 296.345 174.173 297.061 174.445C297.569 174.644 297.837 174.763 297.819 174.787Z" fill="#E0E0E0"/>
<path d="M315.67 166.501C315.532 166.501 314.523 164.013 313.419 160.852C312.315 157.692 311.522 155.135 311.694 155.111C311.867 155.086 312.841 157.599 313.945 160.759C315.049 163.919 315.808 166.476 315.67 166.501Z" fill="#E0E0E0"/>
<path d="M315.816 166.501C315.661 166.538 315.005 164.846 313.315 163.117C312.255 162.095 311.017 161.175 309.633 160.38C310.157 160.474 310.645 160.655 311.056 160.908C312.1 161.46 313.006 162.135 313.738 162.905C314.853 163.953 315.57 165.192 315.816 166.501Z" fill="#E0E0E0"/>
<path d="M315.705 240.972C315.653 240.972 315.541 240.35 315.135 239.243C314.542 237.69 313.736 236.183 312.729 234.745C310.246 231.081 305.718 226.428 299.966 221.774C297.112 219.423 294.352 217.208 292.007 215.087C289.9 213.218 287.994 211.236 286.306 209.158C285.177 207.756 284.217 206.287 283.435 204.766C283.167 204.219 282.978 203.802 282.866 203.522C282.791 203.361 282.745 203.194 282.728 203.024C282.779 203.024 283.038 203.647 283.633 204.679C284.485 206.17 285.488 207.613 286.634 208.997C288.353 211.041 290.276 212.994 292.386 214.838C294.74 216.935 297.509 219.143 300.363 221.495C306.132 226.166 310.651 230.87 313.074 234.602C314.058 236.065 314.818 237.6 315.342 239.181C315.486 239.609 315.593 240.043 315.661 240.481C315.702 240.643 315.717 240.808 315.705 240.972Z" fill="#E0E0E0"/>
<path d="M344.146 217.787C343.666 218.016 343.168 218.223 342.654 218.409C341.305 218.963 340.014 219.587 338.791 220.275C336.979 221.291 335.28 222.408 333.711 223.616C331.926 224.972 330.089 226.552 328.218 228.238C324.475 231.629 320.974 234.627 318.879 237.022C317.809 238.21 317.033 239.212 316.524 239.915C316.29 240.29 316.016 240.652 315.705 240.997C315.73 240.891 315.776 240.789 315.843 240.693C315.955 240.5 316.11 240.207 316.343 239.853C317.001 238.831 317.741 237.838 318.56 236.879C320.603 234.428 324.079 231.386 327.813 228.002C329.693 226.31 331.547 224.729 333.366 223.373C334.962 222.169 336.692 221.062 338.541 220.064C339.797 219.393 341.133 218.804 342.533 218.303C343.025 218.123 343.396 218.011 343.698 217.93C343.832 217.86 343.984 217.812 344.146 217.787Z" fill="#E0E0E0"/>
<path d="M344.698 225.302C343.661 225.469 342.609 225.58 341.55 225.631C339.021 225.821 336.522 226.174 334.082 226.689C331.67 227.257 329.408 228.113 327.39 229.221C325.846 230.086 325.122 230.795 325.053 230.751C325.161 230.557 325.319 230.38 325.518 230.229C326.008 229.777 326.557 229.36 327.157 228.984C329.152 227.786 331.447 226.876 333.918 226.303C336.392 225.774 338.94 225.449 341.515 225.333C342.573 225.252 343.638 225.242 344.698 225.302Z" fill="#E0E0E0"/>
<path d="M325.967 229.93C325.803 229.862 327.226 228.294 328.321 226.198C329.417 224.101 329.598 222.216 329.787 222.235C329.869 222.649 329.851 223.07 329.736 223.479C329.578 224.459 329.269 225.423 328.813 226.353C328.336 227.275 327.723 228.158 326.985 228.985C326.719 229.338 326.375 229.657 325.967 229.93Z" fill="#E0E0E0"/>
<path d="M353.355 197.606C353.194 197.681 353.024 197.746 352.847 197.799L351.363 198.284C350.716 198.483 349.932 198.738 349.043 199.074C348.155 199.41 347.12 199.746 346.034 200.219L344.309 200.922C343.714 201.171 343.119 201.463 342.498 201.743C341.23 202.303 339.963 202.987 338.609 203.678C332.808 206.802 327.747 210.584 323.621 214.875C322.707 215.877 321.801 216.816 321.077 217.75C320.706 218.21 320.318 218.645 319.999 219.081L319.076 220.325C318.464 221.121 318.033 221.88 317.601 222.533C317.17 223.187 316.834 223.778 316.584 224.238L315.963 225.32C315.9 225.451 315.816 225.577 315.713 225.694C315.739 225.557 315.788 225.423 315.86 225.296C316.006 225.003 316.179 224.636 316.394 224.182C316.667 223.595 316.981 223.017 317.334 222.453C317.739 221.787 318.153 221.016 318.748 220.207L319.611 218.925C319.921 218.484 320.301 218.042 320.672 217.569C321.379 216.624 322.276 215.703 323.19 214.664C327.298 210.318 332.401 206.508 338.281 203.398C339.661 202.701 340.946 202.023 342.231 201.475C342.869 201.195 343.464 200.909 344.068 200.667L345.792 199.976C346.888 199.522 347.948 199.192 348.854 198.881C349.623 198.605 350.412 198.358 351.217 198.141L352.743 197.724C352.938 197.664 353.144 197.624 353.355 197.606Z" fill="#E0E0E0"/>
<path d="M330.848 208.48C331.059 207.957 331.49 207.494 332.081 207.155C333.466 206.282 335.235 205.793 337.074 205.774C338.873 205.765 340.656 206.017 342.317 206.514C343.021 206.675 343.689 206.907 344.301 207.205C343.593 207.103 342.899 206.953 342.231 206.757C340.584 206.351 338.857 206.14 337.117 206.135C335.393 206.161 333.725 206.584 332.357 207.342C331.817 207.695 331.313 208.075 330.848 208.48Z" fill="#E0E0E0"/>
<path d="M327.485 210.987C327.339 210.931 328.606 209.588 328.9 207.665C329.193 205.743 328.425 204.225 328.581 204.194C328.736 204.163 328.926 204.53 329.167 205.164C329.781 206.837 329.495 208.615 328.365 210.141C327.925 210.714 327.572 211.012 327.485 210.987Z" fill="#E0E0E0"/>
<path d="M290.834 244.705C291.61 254.659 295.758 264.73 302.14 274.939H329.873C335.962 264.799 339.817 254.721 340.506 244.705H290.834Z" fill="#E0E0E0"/>
<path d="M336.014 260.736C336.014 260.842 326.881 260.929 315.61 260.929C304.339 260.929 295.215 260.842 295.215 260.736C295.215 260.631 304.347 260.55 315.61 260.55C326.872 260.55 336.014 260.637 336.014 260.736Z" fill="#FAFAFA"/>
<path d="M335.394 264.332C335.394 264.438 326.83 264.525 316.275 264.525C305.719 264.525 297.147 264.438 297.147 264.332C297.147 264.226 305.711 264.146 316.275 264.146C326.839 264.146 335.394 264.233 335.394 264.332Z" fill="#FAFAFA"/>
<path d="M302.562 251.193C302.907 254.261 302.907 257.345 302.562 260.413C302.416 260.413 302.304 258.347 302.304 255.803C302.304 253.259 302.442 251.193 302.562 251.193Z" fill="#FAFAFA"/>
<path d="M317.447 251.193C317.594 251.193 317.706 253.327 317.706 255.965C317.706 258.603 317.594 260.736 317.447 260.736C317.301 260.736 317.188 258.603 317.188 255.965C317.188 253.327 317.301 251.193 317.447 251.193Z" fill="#FAFAFA"/>
<path d="M331.399 251.113C331.546 251.113 331.658 253.29 331.658 255.978C331.658 258.665 331.546 260.849 331.399 260.849C331.253 260.849 331.141 258.671 331.141 255.978C331.141 253.284 331.253 251.113 331.399 251.113Z" fill="#FAFAFA"/>
<path d="M339.644 251.194C339.644 251.299 328.933 251.38 315.722 251.38C302.51 251.38 291.8 251.299 291.8 251.194C291.8 251.088 302.502 251.007 315.722 251.007C328.942 251.007 339.644 251.088 339.644 251.194Z" fill="#FAFAFA"/>
<path d="M324.742 152.156H10.4258V159.142H324.742V152.156Z" fill="#EBEBEB"/>
<path d="M37.6167 158.283L14.0654 274.908H19.1189L48.1635 159.142L37.6167 158.283Z" fill="#EBEBEB"/>
<path d="M302.546 157.543L327.391 274.908H322.346L291.99 158.613L302.546 157.543Z" fill="#EBEBEB"/>
<path d="M22.3619 124.018V139.745H18.7227V141.437H22.3619V151.963H90.4201V142.382H85.3839V140.292H90.4201V137.182H92.6623V135.763H89.9889V124.018H22.3619Z" fill="#F5F5F5"/>
<path d="M72.3359 124.043V151.782H90.4026V142.208H85.3663V140.298L90.4026 140.36V137.231H92.6879L92.6448 135.614L89.9886 135.57V123.999L72.3359 124.043Z" fill="#E0E0E0"/>
<path d="M73.6203 141.206C73.6203 141.306 61.3143 141.381 46.1279 141.381C30.9416 141.381 18.627 141.306 18.627 141.206C18.627 141.107 30.9416 141.032 46.1279 141.032C61.3143 141.032 73.6203 141.113 73.6203 141.206Z" fill="#E0E0E0"/>
<path d="M73.6203 139.608C73.6203 139.707 61.3143 139.782 46.1279 139.782C30.9416 139.782 18.627 139.707 18.627 139.608C18.627 139.508 30.9416 139.434 46.1279 139.434C61.3143 139.434 73.6203 139.514 73.6203 139.608Z" fill="#E0E0E0"/>
<path d="M77.1564 135.309C77.1564 135.408 64.8418 135.483 49.6641 135.483C34.4864 135.483 22.1631 135.408 22.1631 135.309C22.1631 135.209 34.4691 135.135 49.6641 135.135C64.859 135.135 77.1564 135.216 77.1564 135.309Z" fill="#E0E0E0"/>
<path d="M77.4836 147.036C77.4836 147.135 65.1775 147.216 49.9912 147.216C34.8049 147.216 22.4902 147.135 22.4902 147.036C22.4902 146.936 34.7963 146.861 49.9912 146.861C65.1862 146.861 77.4836 146.93 77.4836 147.036Z" fill="#E0E0E0"/>
<path d="M95.4473 113.467H83.5811V123.645H95.4473V113.467Z" fill="#F5F5F5"/>
<path d="M83.9864 112.802H30.3643V124.279H83.9864V112.802Z" fill="#E0E0E0"/>
<path d="M95.8005 113.772H82.5459V112.82H95.8005C95.9789 112.82 96.15 112.871 96.2762 112.962C96.4023 113.053 96.4732 113.177 96.4732 113.305C96.4665 113.431 96.3927 113.549 96.2672 113.636C96.1418 113.723 95.9745 113.772 95.8005 113.772Z" fill="#E0E0E0"/>
<path d="M95.8005 124.285H82.5459V123.315H95.8005C95.9789 123.315 96.15 123.366 96.2762 123.457C96.4023 123.548 96.4732 123.671 96.4732 123.8C96.4732 123.929 96.4023 124.052 96.2762 124.143C96.15 124.234 95.9789 124.285 95.8005 124.285Z" fill="#E0E0E0"/>
<path d="M79.7779 112.802H73.4395V124.279H79.7779V112.802Z" fill="#EBEBEB"/>
<path d="M41.8072 112.932H35.4688V124.41H41.8072V112.932Z" fill="#EBEBEB"/>
<path d="M95.4469 115.153C95.4469 115.153 92.8598 115.203 89.7121 115.203C86.5645 115.203 83.9688 115.203 83.9688 115.153C83.9688 115.103 86.5558 115.097 89.7121 115.097C92.8684 115.097 95.4469 115.122 95.4469 115.153Z" fill="#E0E0E0"/>
<path d="M95.4469 116.677C95.4469 116.677 92.8598 116.727 89.7121 116.727C86.5645 116.727 83.9688 116.727 83.9688 116.677C83.9688 116.627 86.5558 116.627 89.7121 116.627C92.8684 116.627 95.4469 116.646 95.4469 116.677Z" fill="#E0E0E0"/>
<path d="M95.4469 118.556C95.4469 118.556 92.8598 118.606 89.7121 118.606C86.5645 118.606 83.9688 118.606 83.9688 118.556C83.9688 118.506 86.5558 118.506 89.7121 118.506C92.8684 118.506 95.4469 118.525 95.4469 118.556Z" fill="#E0E0E0"/>
<path d="M95.4469 120.435C95.4469 120.435 92.8598 120.484 89.7121 120.484C86.5645 120.484 83.9688 120.484 83.9688 120.435C83.9688 120.385 86.5558 120.385 89.7121 120.385C92.8684 120.385 95.4469 120.403 95.4469 120.435Z" fill="#E0E0E0"/>
<path d="M95.4469 122.313C95.4469 122.313 92.8598 122.363 89.7121 122.363C86.5645 122.363 83.9688 122.363 83.9688 122.313C83.9688 122.264 86.5558 122.264 89.7121 122.264C92.8684 122.264 95.4469 122.282 95.4469 122.313Z" fill="#E0E0E0"/>
<path d="M70.0248 117.523H45.9043V119.589H70.0248V117.523Z" fill="#EBEBEB"/>
<path d="M72.7241 101.66L79.3988 112.969H75.1042L72.1377 106.929L72.7241 101.66Z" fill="#E0E0E0"/>
<path d="M52.2338 91.4323L49.6553 112.969H71.4646L73.862 91.4323H52.2338Z" fill="#EBEBEB"/>
<path d="M54.3649 93.137L52.1055 111.178L68.4819 111.333L70.6895 93.0312L54.3649 93.137Z" fill="#FAFAFA"/>
<path d="M57.8396 95.6379L56.5547 108.049H65.2905L66.8255 95.6379H57.8396Z" fill="#E0E0E0"/>
<path d="M308.462 11.3783L300.399 11.4098L300.617 40.3556L308.68 40.3241L308.462 11.3783Z" fill="#E0E0E0"/>
<path d="M251.419 11.4519L230.532 11.5334L230.652 27.5149L251.538 27.4334L251.419 11.4519Z" fill="#EBEBEB"/>
<path d="M272.2 11.377L251.313 11.4585L251.433 27.44L272.32 27.3584L272.2 11.377Z" fill="#F5F5F5"/>
<path d="M230.563 15.9594C244.438 16.0465 258.357 15.9594 272.233 15.8225C272.284 15.8152 272.329 15.7954 272.362 15.7665C272.395 15.7376 272.413 15.7013 272.413 15.6639C272.413 15.6265 272.395 15.5902 272.362 15.5613C272.329 15.5324 272.284 15.5126 272.233 15.5053C258.36 15.4472 244.473 15.5074 230.572 15.6857C230.521 15.6857 230.473 15.7001 230.437 15.7258C230.402 15.7514 230.382 15.7863 230.382 15.8225C230.382 15.8588 230.402 15.8937 230.437 15.9193C230.473 15.945 230.521 15.9594 230.572 15.9594H230.563Z" fill="#E0E0E0"/>
<path d="M255.46 27.1749L217.517 27.323L217.614 40.3433L255.558 40.1952L255.46 27.1749Z" fill="#EBEBEB"/>
<path d="M293.222 27.0215L255.278 27.1696L255.376 40.1899L293.32 40.0418L293.222 27.0215Z" fill="#F5F5F5"/>
<path d="M217.532 30.952C242.74 31.1573 268.033 30.952 293.24 30.6845C293.299 30.6845 293.356 30.6674 293.398 30.6371C293.441 30.6068 293.464 30.5656 293.464 30.5227C293.464 30.4798 293.441 30.4387 293.398 30.4084C293.356 30.378 293.299 30.361 293.24 30.361C268.033 30.2677 242.731 30.2739 217.532 30.6783C217.482 30.6783 217.434 30.6927 217.398 30.7183C217.363 30.744 217.343 30.7788 217.343 30.8151C217.343 30.8514 217.363 30.8862 217.398 30.9119C217.434 30.9376 217.482 30.952 217.532 30.952Z" fill="#E0E0E0"/>
<path d="M350.345 40.3519H203.346V45.0177H350.345V40.3519Z" fill="#E0E0E0"/>
<path d="M233.383 42.5978H227.415V58.5173H233.383V42.5978Z" fill="#E0E0E0"/>
<path d="M322.466 42.5978H316.498V58.5173H322.466V42.5978Z" fill="#E0E0E0"/>
<path d="M316.324 0.585228L308.261 0.616699L308.559 40.4304L316.622 40.3989L316.324 0.585228Z" fill="#EBEBEB"/>
<path d="M328.927 8.00126L316.396 8.05017L316.638 40.3117L329.169 40.2628L328.927 8.00126Z" fill="#F5F5F5"/>
<path d="M328.848 14.2239C326.765 14.3797 324.67 14.4317 322.578 14.3794C320.489 14.4318 318.397 14.3798 316.317 14.2239C320.489 14.0165 324.676 14.0165 328.848 14.2239Z" fill="#E0E0E0"/>
<path d="M328.848 12.8676C326.765 13.0234 324.67 13.0753 322.578 13.0231C320.489 13.0755 318.397 13.0235 316.317 12.8676C320.489 12.6602 324.676 12.6602 328.848 12.8676Z" fill="#E0E0E0"/>
<path d="M328.848 35.4187C324.676 35.6261 320.489 35.6261 316.317 35.4187C320.489 35.2113 324.676 35.2113 328.848 35.4187Z" fill="#E0E0E0"/>
<path d="M328.848 34.0625C324.676 34.2699 320.489 34.2699 316.317 34.0625C320.489 33.8551 324.676 33.8551 328.848 34.0625Z" fill="#E0E0E0"/>
<path d="M322.785 31.1075C322.664 31.1075 322.561 27.854 322.561 23.8352C322.561 19.8164 322.664 16.5691 322.785 16.5691C322.906 16.5691 323 19.8227 323 23.8352C323 27.8477 322.897 31.1075 322.785 31.1075Z" fill="#E0E0E0"/>
<path d="M342.619 15.9346H328.977V40.2897H342.619V15.9346Z" fill="#EBEBEB"/>
<path d="M314.498 7.39318C314.5 7.72441 314.365 8.04857 314.111 8.32458C313.857 8.6006 313.496 8.81605 313.072 8.94367C312.648 9.07128 312.181 9.10531 311.731 9.04144C311.28 8.97758 310.866 8.81869 310.541 8.5849C310.216 8.35112 309.994 8.05295 309.904 7.72817C309.813 7.40338 309.859 7.06659 310.034 6.76044C310.209 6.4543 310.507 6.19257 310.888 6.00842C311.27 5.82426 311.719 5.72595 312.178 5.72595C312.792 5.72595 313.381 5.9014 313.815 6.21389C314.25 6.52638 314.496 6.95043 314.498 7.39318Z" fill="#E0E0E0"/>
<path d="M312.893 11.9967H311.462V35.68H312.893V11.9967Z" fill="#E0E0E0"/>
<path d="M361.937 274.908C361.937 274.995 280.874 275.07 180.977 275.07C81.08 275.07 0 274.995 0 274.908C0 274.821 81.011 274.746 180.977 274.746C280.943 274.746 361.937 274.815 361.937 274.908Z" fill="#263238"/>
<path d="M179.493 196.101L215.049 274.908H208.572L166.92 196.101H179.493Z" fill="#E0E0E0"/>
<path d="M179.494 196.1H178.632H176.217L166.886 196.138L166.972 196.045C174.113 209.463 189.506 238.484 207.34 272.077C207.823 272.998 208.306 273.944 208.789 274.821L208.582 274.721H215.049L214.834 274.933C204.908 252.842 196.051 233.153 189.678 218.981C186.505 211.883 183.952 206.172 182.193 202.222C181.331 200.25 180.641 198.72 180.175 197.674L179.658 196.486C179.546 196.219 179.494 196.076 179.494 196.076C179.494 196.076 179.563 196.2 179.684 196.461L180.227 197.625C180.701 198.664 181.4 200.175 182.297 202.129C184.09 206.067 186.677 211.759 189.903 218.826C196.327 233.016 205.253 252.724 215.256 274.815L215.351 275.026H208.452L208.392 274.92C207.918 274.012 207.426 273.098 206.943 272.177C189.221 238.534 173.914 209.482 166.852 196.082V195.989H166.99L176.372 196.026H178.761C179.244 196.088 179.494 196.1 179.494 196.1Z" fill="#263238"/>
<path d="M109.521 196.101L73.9658 274.908H80.4336L122.095 196.101H109.521Z" fill="#E0E0E0"/>
<path d="M109.521 196.101C109.521 196.101 109.788 196.101 110.323 196.101H112.712L122.094 196.063H122.232L122.181 196.157C115.126 209.557 99.8193 238.609 82.0976 272.252L80.6402 274.995L80.5884 275.101H73.6895L73.7843 274.889L99.1466 218.9L106.753 202.203C107.615 200.25 108.348 198.738 108.822 197.699L109.366 196.536C109.486 196.275 109.555 196.15 109.555 196.15C109.555 196.15 109.504 196.293 109.392 196.561L108.874 197.749C108.408 198.794 107.727 200.325 106.856 202.297C105.088 206.247 102.544 211.958 99.3708 219.056C92.9893 233.227 84.1414 252.917 74.2155 275.008L73.9999 274.796H80.4677L80.2607 274.896L81.7095 272.152C99.5433 238.559 114.937 209.513 122.034 196.125L122.129 196.219L112.789 196.181H110.383L109.521 196.101Z" fill="#263238"/>
<path d="M167.835 197.83C167.64 197.949 167.432 198.057 167.214 198.153L165.386 199.024L158.651 202.209C152.968 204.909 145.129 208.654 136.514 212.822L114.454 223.554L107.762 226.795L105.943 227.628C105.737 227.738 105.518 227.834 105.287 227.915C105.477 227.792 105.679 227.68 105.891 227.579L107.667 226.664L114.282 223.342C119.878 220.555 127.648 216.729 136.272 212.561C144.896 208.393 152.752 204.673 158.487 202.023C161.35 200.704 163.661 199.64 165.299 198.912L167.171 198.091C167.383 197.992 167.605 197.905 167.835 197.83Z" fill="#263238"/>
<path d="M99.6217 112.086C99.6217 112.086 88.4799 112.913 86.8587 117.753C85.2374 122.593 79.9597 182.452 86.8587 190.931C93.7576 199.41 182.582 198.228 188.748 197.065C194.914 195.901 197.82 193.015 197.19 189.488C196.561 185.96 136.074 181.587 136.074 181.587L139.765 119.116C139.765 119.116 118.016 111.215 99.6217 112.086Z" fill="#263238"/>
<path d="M197.242 190.999H196.975H196.181L193.137 191.055C190.489 191.105 186.661 191.13 181.926 191.124C172.44 191.124 159.375 190.887 144.965 190.141C137.764 189.761 130.908 189.282 124.691 188.772C118.473 188.262 112.885 187.702 108.211 187.174C105.865 186.925 103.761 186.657 101.907 186.433C100.053 186.209 98.4574 186.004 97.1552 185.811L94.1628 185.394L93.3866 185.282L93.1279 185.233C93.2167 185.224 93.3065 185.224 93.3953 185.233L94.18 185.313L97.1897 185.668C98.4919 185.83 100.087 186.023 101.95 186.222C103.813 186.421 105.917 186.682 108.254 186.912C112.937 187.416 118.525 187.932 124.734 188.443C130.943 188.953 137.799 189.407 144.999 189.786C159.401 190.533 172.466 190.788 181.926 190.863C186.652 190.9 190.481 190.906 193.137 190.9H196.983L197.242 190.999Z" fill="#455A64"/>
<path d="M184.202 228.798C184.133 228.873 170.059 221.737 152.777 212.872C135.496 204.007 121.534 196.748 121.603 196.698C121.672 196.648 135.746 203.759 153.036 212.63C170.327 221.501 184.271 228.723 184.202 228.798Z" fill="#263238"/>
<path d="M107.495 58.343L100.381 49.3039C104.775 44.1572 106.341 38.011 104.773 32.0733C103.204 26.1357 98.6129 20.8361 91.9025 17.2163C85.1921 13.5965 76.8474 11.9183 68.5088 12.5115C60.1701 13.1047 52.4406 15.9265 46.8396 20.4221C41.2386 24.9178 38.1712 30.7622 38.2404 36.8065C38.3096 42.8508 41.5103 48.6579 47.2133 53.0862C52.9164 57.5146 60.7094 60.2439 69.0605 60.7378C77.4116 61.2316 85.7167 59.4543 92.3434 55.755L107.495 58.343Z" fill="white"/>
<path d="M107.495 58.343L92.3 55.8546H92.093L92.2224 55.7302L92.4121 55.867C87.7409 58.4998 82.1851 60.1914 76.3116 60.7692C74.5527 60.9495 72.7749 61.0161 70.9994 60.9682C70.0853 60.9309 69.154 60.9122 68.214 60.8563L65.3768 60.5514C56.9222 59.3548 49.4169 55.8802 44.3867 50.8342C41.5932 48.051 39.6557 44.8696 38.7037 41.5028C37.7376 37.9317 37.873 34.2509 39.1004 30.7218C40.3707 27.0385 42.8391 23.6264 46.3012 20.7682C49.816 17.8345 54.2507 15.5482 59.2367 14.0993C64.0192 12.737 69.1649 12.1672 74.2937 12.4321C79.1371 12.6731 83.8478 13.6798 88.0916 15.3809C95.7187 18.4244 101.436 23.4636 104.063 29.4589C105.098 32.0181 105.589 34.6756 105.52 37.3409C105.337 41.5924 103.603 45.7339 100.492 49.3474V49.2479L107.495 58.3368C107.029 57.7644 104.839 55.0334 100.268 49.3412V49.2977V49.2479C103.312 45.6513 104.992 41.5409 105.141 37.3285C105.197 34.6971 104.697 32.0749 103.657 29.5523C101.061 23.6256 95.4171 18.6412 87.8846 15.6235C83.6974 13.9522 79.0513 12.9667 74.2764 12.7369C69.2262 12.4783 64.16 13.0417 59.4523 14.3855C54.5457 15.814 50.1821 18.0661 46.7237 20.9549C43.3133 23.7696 40.8831 27.1308 39.635 30.7591C38.418 34.2321 38.2796 37.8561 39.2297 41.3721C40.1517 44.703 42.0512 47.8529 44.8006 50.6103C49.7518 55.6004 57.1529 59.0418 65.4975 60.2342L68.3002 60.5452C69.2316 60.6012 70.1457 60.6199 71.0512 60.6634C72.8057 60.7143 74.5631 60.6539 76.303 60.483C82.1224 59.929 87.6368 58.279 92.2913 55.6991L93.1537 55.2325L92.5069 55.8546L92.4293 55.7053L107.495 58.343Z" fill="#263238"/>
<path d="M66.0747 33.3969H68.1961L72.8184 28.7436V25.6891C72.8184 25.6891 76.0954 25.546 75.716 29.5399C75.3366 33.5338 75.716 32.5198 75.716 32.5198C75.716 32.5198 82.6753 32.5198 83.2531 32.9801C83.6757 33.2912 83.8654 38.2804 83.9344 40.9803C83.9826 41.6328 83.7257 42.2781 83.205 42.8127C82.6844 43.3474 81.9299 43.7405 81.0627 43.929C80.8184 43.9782 80.566 44.0033 80.3124 44.0037C78.5877 44.0037 69.7139 42.9834 69.7139 42.9834H66.0488L66.0747 33.3969Z" fill="#292F79"/>
<path d="M60.0049 32.5571L61.3157 43.0146H64.9463V32.7686L60.0049 32.5571Z" fill="#292F79"/>
<path d="M241.654 165.076C241.654 165.076 261.609 165.076 262.428 178.489C263.247 191.901 204.339 262.659 204.339 262.659L185.686 256.27L225.682 187.609L138.894 181.45L141.351 165.699L241.654 165.076Z" fill="#FFBE9D"/>
<path d="M208.279 258.578L207.702 259.529C207.702 259.529 225.984 273.091 224.345 276.214L180.27 261.906L187.47 251.517C192.653 255.84 199.362 258.316 208.279 258.578Z" fill="#292F79"/>
<g opacity="0.6">
<path d="M189.825 256.357C189.343 256.313 188.855 256.399 188.455 256.597C188.054 256.795 187.768 257.093 187.652 257.433C187.572 257.779 187.68 258.135 187.952 258.425C188.225 258.716 188.642 258.92 189.118 258.995C189.628 259.04 190.144 258.947 190.566 258.735C190.987 258.522 191.286 258.205 191.403 257.844C191.437 257.477 191.271 257.115 190.941 256.835C190.611 256.555 190.142 256.379 189.635 256.344" fill="white"/>
</g>
<g opacity="0.6">
<path d="M180.27 261.912L181.994 259.424L223.604 274.049C223.604 274.049 225.182 275.294 224.337 276.227L180.27 261.912Z" fill="white"/>
</g>
<path d="M207.797 259.667C207.693 259.816 206.572 259.542 205.209 259.698C203.847 259.853 202.864 260.32 202.7 260.195C202.536 260.071 203.424 259.275 205.089 259.107C206.753 258.939 207.934 259.536 207.797 259.667Z" fill="#263238"/>
<path d="M211.565 262.547C211.522 262.708 210.418 262.671 209.28 263.094C208.142 263.517 207.495 264.139 207.288 264.065C207.081 263.99 207.486 263.063 208.918 262.559C210.349 262.055 211.652 262.397 211.565 262.547Z" fill="#263238"/>
<path d="M211.703 267.387C211.488 267.387 211.703 266.485 212.747 265.813C213.79 265.141 215.049 265.135 215.058 265.29C215.067 265.446 214.196 265.701 213.333 266.261C212.471 266.82 211.928 267.443 211.703 267.387Z" fill="#263238"/>
<path d="M203.899 114.506L207.444 122.326L188.118 123.414L185.867 119.228L203.899 114.506Z" fill="#FFBE9D"/>
<path d="M258.771 124.764C259.142 125.299 260.108 125.387 260.85 125.666C261.541 125.952 262.106 126.371 262.483 126.877C262.86 127.383 263.032 127.955 262.98 128.528C262.856 129.674 262.33 130.779 261.453 131.738C261.184 132.128 260.791 132.467 260.306 132.727C260.061 132.85 259.769 132.916 259.47 132.916C259.171 132.916 258.879 132.85 258.633 132.727C258.064 132.385 258.133 131.751 258.254 131.222C258.711 129.237 258.116 126.73 258.763 124.771" fill="#FFBE9D"/>
<path d="M130.243 26.7154C130.08 25.843 130.375 24.958 131.071 24.2349C131.767 23.5117 132.813 23.0029 134.003 22.8086L155.338 13.0168C163.47 11.698 173.715 21.496 175.173 27.4059C176.646 33.9016 177.223 40.4865 176.898 47.0642C176.311 57.1796 167.118 58.262 167.118 58.262L174.017 91.8989L140.773 77.1116L130.243 26.7154Z" fill="#FFBE9D"/>
<path d="M170.74 35.798C170.797 36.1288 170.673 36.4626 170.395 36.7286C170.116 36.9945 169.705 37.1717 169.248 37.2226C168.799 37.2826 168.335 37.2114 167.958 37.0248C167.582 36.8382 167.323 36.5513 167.239 36.2272C167.182 35.8964 167.306 35.5627 167.585 35.2967C167.863 35.0307 168.274 34.8535 168.731 34.8026C169.18 34.7426 169.644 34.8138 170.021 35.0004C170.398 35.187 170.657 35.4739 170.74 35.798Z" fill="#263238"/>
<path d="M173.483 32.1651C173.31 32.3019 171.896 32.2833 170.111 32.7872C168.326 33.2911 167.144 33.9629 166.92 33.9256C166.696 33.8883 166.92 33.7079 167.463 33.3968C168.213 32.9554 169.062 32.6102 169.973 32.3766C170.843 32.1351 171.766 32.0107 172.698 32.0096C173.319 31.9971 173.569 32.1029 173.483 32.1651Z" fill="#263238"/>
<path d="M153.079 36.4138C153.134 36.7453 153.008 37.0791 152.728 37.3448C152.448 37.6106 152.036 37.7876 151.579 37.8384C151.131 37.8966 150.669 37.8246 150.294 37.6381C149.919 37.4517 149.662 37.1659 149.578 36.8431C149.519 36.512 149.642 36.1774 149.921 35.911C150.2 35.6447 150.612 35.4678 151.07 35.4185C151.519 35.3585 151.983 35.4296 152.36 35.6162C152.737 35.8029 152.995 36.0897 153.079 36.4138Z" fill="#263238"/>
<path d="M154.933 34.7716C154.675 34.8463 153.347 34.274 151.286 34.0562C149.225 33.8385 147.612 34.0562 147.414 33.9567C147.215 33.8572 147.612 33.7514 148.276 33.6332C149.31 33.485 150.373 33.4703 151.415 33.5897C152.424 33.6894 153.399 33.9258 154.287 34.2864C154.899 34.5415 155.097 34.7405 154.933 34.7716Z" fill="#263238"/>
<path d="M163.35 43.232C164.313 42.9178 165.327 42.6941 166.369 42.5664C166.843 42.4917 167.292 42.386 167.335 42.1371C167.319 41.7726 167.148 41.4204 166.843 41.1293C166.268 40.2999 165.647 39.4518 164.98 38.585C162.393 34.9581 160.427 31.9596 160.669 31.885C160.91 31.8103 163.152 34.6906 165.756 38.3175L167.559 40.8805C167.933 41.2781 168.101 41.7584 168.033 42.2367C167.982 42.3658 167.891 42.485 167.767 42.5852C167.643 42.6854 167.489 42.764 167.317 42.8152C167.057 42.8889 166.784 42.939 166.507 42.9645C165.474 43.1483 164.414 43.2382 163.35 43.232Z" fill="#263238"/>
<path d="M167.11 58.2871C160.668 58.9741 154.089 58.3269 148.138 56.4208C148.138 56.4208 153.803 63.4132 167.429 61.3229L167.11 58.2871Z" fill="#EB996E"/>
<path d="M163.565 46.5852C163.102 46.1495 162.509 45.7942 161.83 45.5455C161.151 45.2968 160.403 45.161 159.642 45.1482C159.201 45.1548 158.775 45.2577 158.417 45.4432C158.06 45.6287 157.789 45.8881 157.641 46.1871C157.492 46.5733 157.475 46.9797 157.59 47.3718C157.706 47.7639 157.951 48.1301 158.305 48.4391C158.653 48.7661 159.125 49.0127 159.664 49.1486C160.204 49.2846 160.786 49.3039 161.34 49.2043C162.24 48.9366 163.007 48.479 163.539 47.8916C163.733 47.7421 163.872 47.5605 163.945 47.3629C163.976 47.2382 163.97 47.1101 163.925 46.9875C163.88 46.8649 163.799 46.751 163.686 46.6537" fill="#EB996E"/>
<path d="M157.909 44.6506C158.219 44.607 158.46 46.0939 160.392 47.0021C162.324 47.9104 164.497 47.562 164.549 47.7673C164.549 47.8606 164.109 48.097 163.178 48.1966C161.973 48.3097 160.752 48.1138 159.728 47.6429C158.745 47.187 158.046 46.4731 157.779 45.6522C157.598 45.0114 157.771 44.6506 157.909 44.6506Z" fill="#263238"/>
<path d="M155.537 28.6565C155.356 29.0298 153.441 28.8742 151.225 29.0982C149.009 29.3222 147.18 29.7763 146.87 29.4466C146.732 29.2848 147.042 28.9302 147.732 28.557C148.697 28.0976 149.794 27.8028 150.94 27.695C152.086 27.5872 153.251 27.6692 154.347 27.9349C155.192 28.2148 155.614 28.4761 155.537 28.6565Z" fill="#263238"/>
<path d="M173.586 29.098C173.215 29.4401 171.542 29.2535 169.585 29.3966C167.627 29.5397 166.006 29.9005 165.575 29.6019C165.376 29.4588 165.575 29.1229 166.273 28.7745C167.223 28.3355 168.305 28.0689 169.429 27.9974C170.552 27.9259 171.683 28.0517 172.724 28.3639C173.465 28.6314 173.741 28.93 173.586 29.098Z" fill="#263238"/>
<path d="M120.886 52.5699C121.231 48.0597 122.231 33.6208 126.267 25.745C130.303 17.8693 135.986 14.342 141.833 12.681C144.041 12.0003 146.456 11.7423 148.843 11.932C151.23 12.1216 153.509 12.7524 155.459 13.7634C158.46 15.2938 160.202 20.3328 160.202 20.3328C160.202 20.3328 146.016 23.8663 142.092 30.2863C137.547 37.6271 136.737 41.198 136.737 41.198L135.512 45.111C135.512 45.111 138.177 62.1191 139.375 65.6402L120.145 79.0526C120.774 74.6233 120.541 57.0739 120.886 52.5699Z" fill="#263238"/>
<path d="M160.624 20.3576C160.624 20.3576 168.843 19.0201 172.991 25.5459C174.871 28.5008 176.734 37.4466 176.734 37.4466C176.734 37.4466 177.432 30.137 176.345 26.1618C175.259 22.1865 171.68 17.3342 166.972 14.8769C162.263 12.4196 158.693 11.4927 151.328 12.4258C153.546 12.8258 155.559 13.674 157.132 14.8707C158.244 15.81 158.796 16.6437 160.624 20.3576Z" fill="#263238"/>
<path d="M136.893 41.6831C136.393 39.4933 132.84 38.2988 130.373 39.6239C129.019 40.3456 128.105 41.652 128.605 43.9786C129.951 50.1996 138.29 47.9227 138.264 47.7485C138.238 47.5743 137.479 44.2399 136.893 41.6831Z" fill="#FFBE9D"/>
<path d="M135.133 45.6895C135.133 45.6895 135.004 45.7828 134.771 45.8948C134.435 46.042 134.035 46.0931 133.65 46.0379C132.693 45.901 131.71 44.943 131.425 43.8356C131.287 43.3069 131.317 42.7625 131.511 42.2431C131.547 42.0399 131.651 41.8462 131.815 41.6791C131.979 41.5119 132.197 41.3766 132.451 41.285C132.617 41.2348 132.802 41.2271 132.975 41.2634C133.147 41.2996 133.297 41.3775 133.4 41.4841C133.555 41.6458 133.521 41.7703 133.572 41.7765C133.624 41.7827 133.736 41.6521 133.572 41.4032C133.492 41.2552 133.343 41.132 133.15 41.0549C132.885 40.9536 132.575 40.9312 132.287 40.9926C131.945 41.0833 131.64 41.2354 131.402 41.4346C131.163 41.6337 130.999 41.8735 130.925 42.1311C130.677 42.707 130.63 43.318 130.787 43.9103C131.106 45.1545 132.244 46.2245 133.547 46.3427C133.787 46.3647 134.031 46.3476 134.26 46.2927C134.49 46.2378 134.7 46.1465 134.875 46.0254C135.151 45.8388 135.168 45.6957 135.133 45.6895Z" fill="#EB996E"/>
<path d="M145.223 11.9966C145.223 12.0464 146.413 11.922 148.31 11.9469C149.42 11.9626 150.52 12.1032 151.57 12.3637C152.845 12.7038 154.016 13.2193 155.019 13.8816C156.875 15.0781 158.322 16.5687 159.245 18.2363C159.952 19.4805 160.107 20.3639 160.211 20.3514C160.198 20.152 160.158 19.954 160.09 19.7604C159.402 17.4297 157.698 15.3192 155.226 13.7385C154.192 13.0473 152.975 12.5141 151.647 12.1708C150.569 11.9106 149.438 11.7823 148.301 11.7913C147.54 11.7911 146.78 11.8264 146.025 11.8971C145.754 11.9142 145.486 11.9475 145.223 11.9966Z" fill="#455A64"/>
<path d="M129.623 46.8403C129.626 46.8051 129.626 46.7698 129.623 46.7346L129.502 46.4546C129.442 46.324 129.382 46.1685 129.304 45.9943L129.071 45.3722C128.601 44.0122 128.404 42.6107 128.485 41.2104C128.594 39.1331 129.302 37.095 130.563 35.2258C132.175 32.9627 134.474 30.9913 137.29 29.4589C138.734 28.6545 140.246 27.9149 141.817 27.2442C143.335 26.5848 144.861 26.0374 146.276 25.4277C148.749 24.3392 151.101 23.1142 153.312 21.7636C155.201 20.6127 156.658 19.6235 157.624 18.9268C158.116 18.5784 158.487 18.3047 158.737 18.1118L159.021 17.8941C159.082 17.8443 159.116 17.8195 159.108 17.8132L159.004 17.8754L158.694 18.0807L157.555 18.8832C156.546 19.5613 155.072 20.5318 153.166 21.6578C150.947 22.9861 148.595 24.1942 146.129 25.2722C144.732 25.8943 143.188 26.4106 141.662 27.0763C140.076 27.7466 138.552 28.4906 137.1 29.3034C134.237 30.8505 131.901 32.8483 130.27 35.1449C129.005 37.0402 128.311 39.1075 128.235 41.2104C128.175 42.6225 128.405 44.0332 128.916 45.3971L129.175 46.0192C129.27 46.1934 129.347 46.3427 129.408 46.4733L129.563 46.7533C129.597 46.8092 129.615 46.8403 129.623 46.8403Z" fill="#455A64"/>
<path d="M127.251 44.6506C127.251 44.6506 127.251 44.6132 127.251 44.551L127.2 44.2524C127.2 43.9911 127.062 43.6303 126.993 43.114C126.789 41.7128 126.758 40.3014 126.898 38.8962C127.108 36.815 127.688 34.7619 128.622 32.7871C129.79 30.3752 131.494 28.1165 133.667 26.0996C135.906 24.1063 138.518 22.3476 141.429 20.874C144.016 19.4805 146.603 18.3856 148.664 17.4027C150.725 16.4197 152.441 15.667 153.588 15.0947C154.166 14.8209 154.597 14.5908 154.89 14.4352L155.227 14.2611L155.339 14.1926C155.339 14.1926 155.287 14.1926 155.209 14.2424L154.856 14.3979L153.519 15.02C152.363 15.5612 150.656 16.3264 148.543 17.2596C146.43 18.1927 143.912 19.3125 141.256 20.706C138.339 22.1813 135.726 23.9469 133.495 25.9503C131.278 27.9865 129.544 30.2736 128.364 32.7187C127.418 34.7127 126.838 36.7874 126.639 38.8899C126.519 40.3014 126.585 41.7178 126.837 43.1202C126.924 43.6179 127.044 43.9974 127.105 44.2586C127.105 44.3768 127.165 44.4764 127.191 44.551C127.217 44.6257 127.243 44.6506 127.251 44.6506Z" fill="#455A64"/>
<path d="M173.293 68.6075C173.293 68.6075 184.409 71.8673 186.539 76.0416C188.669 80.2159 204.83 114.686 204.83 114.686L186.073 119.875L177.519 91.507L173.293 68.6075Z" fill="#292F79"/>
<path d="M115.826 166.495C115.826 166.495 230.521 162.694 237.722 164.062C244.922 165.431 249.226 168.05 250.657 174.277C252.089 180.504 274.2 263.007 274.2 263.007L254.089 267.274C254.089 267.274 225.873 220.804 224.674 213.028C223.475 205.251 219.5 189.313 219.5 189.313C219.5 189.313 175.898 189.829 143.792 189.313C111.686 188.797 115.998 167.359 115.998 167.359L115.826 166.495Z" fill="#FFBE9D"/>
<path d="M253.838 267.648L253.691 267.399C252.536 265.496 225.44 220.798 224.25 213.059C223.146 205.923 219.671 191.721 219.153 189.624C214.842 189.674 173.991 190.11 143.8 189.624C133.822 189.463 126.311 187.279 121.456 183.142C114.108 176.878 115.419 168.106 115.583 167.366L115.315 166.202H115.798C120.49 166.047 230.657 162.414 237.832 163.782C245.887 165.319 249.724 168.349 251.087 174.24C252.501 180.386 274.371 262.142 274.63 262.97L274.699 263.244L253.838 267.648ZM219.869 188.996L219.938 189.257C219.981 189.413 223.922 205.295 225.112 212.99C226.242 220.337 252.096 263.2 254.338 266.895L273.716 262.789C272.301 257.508 251.622 180.299 250.242 174.327C248.948 168.728 245.292 165.829 237.617 164.373C230.821 163.073 124.465 166.532 116.333 166.8L116.462 167.366V167.409C116.462 167.503 114.738 176.455 122.137 182.75C126.828 186.744 134.124 188.847 143.834 189.009C175.561 189.519 219.084 189.009 219.524 189.009L219.869 188.996Z" fill="#EB996E"/>
<path d="M123.569 121.872L126.458 134.762C126.458 134.762 113.91 151.913 112.496 166.657C111.823 173.661 117.394 188.007 117.394 188.007C117.394 188.007 161.582 191.509 185.418 191.061L210.849 190.259L215.333 161.599L186.789 158.625L187.22 119.57C187.22 119.57 192.394 109.287 192.791 106.245C193.705 99.8245 193.326 93.3298 184.435 85.0061L173.293 68.6076L169.576 67.3634L171.344 87.227L139.316 65.2732L123.094 69.4724L118.498 85.1181L123.569 121.872Z" fill="#292F79"/>
<g opacity="0.3">
<path d="M179.087 163.372C177.009 163.633 162.012 163.789 159.934 164.05C159.58 164.128 159.208 164.153 158.841 164.124C158.473 164.096 158.117 164.013 157.795 163.882C157.536 163.705 157.356 163.475 157.279 163.224C157.202 162.972 157.232 162.709 157.364 162.47C157.639 161.988 158.071 161.561 158.623 161.225C162.254 158.737 166.971 157.3 171.559 155.894C173.025 155.452 174.612 154.998 176.147 155.272C176.899 155.451 177.58 155.761 178.13 156.172C178.68 156.584 179.082 157.087 179.303 157.636C179.74 158.733 179.921 159.874 179.838 161.014" fill="black"/>
</g>
<g opacity="0.3">
<path d="M124.751 130.861C130.106 129.959 133.469 126.151 135.643 122.506C137.816 118.86 139.61 114.835 143.87 112.322C146.991 110.456 151.174 109.635 153.873 107.47C155.156 106.409 156.007 105.113 156.331 103.725C156.655 102.337 156.44 100.912 155.71 99.6065C154.934 98.2752 153.373 97.0186 151.398 96.9439C149.07 96.8568 147.259 98.3125 145.836 99.65C139.328 105.801 133.191 112.146 127.424 118.686C124.328 122.201 121.241 126.469 123.397 130.332" fill="black"/>
</g>
<path d="M124.784 71.5251C124.784 71.5251 115.721 73.603 112.444 77.7026C109.167 81.8022 103.734 101.709 102.423 107.072C101.112 112.434 94.7738 134.5 102.423 137.971C110.072 141.443 120.127 136.105 122.749 132.926C125.371 129.747 136.073 113.218 136.073 113.218L126.457 107.389C126.457 107.389 128.182 91.6252 127.552 88.3094C126.923 84.9936 124.784 71.5251 124.784 71.5251Z" fill="#FFBE9D"/>
<path d="M96.3604 112.453L117.394 113.442L127 105.305L129.656 92.4899L128.949 67.973C128.949 67.973 110.176 71.2764 106.114 81.5721C103.104 89.1804 96.3604 112.453 96.3604 112.453Z" fill="#292F79"/>
<path d="M133.581 83.457C132.374 83.3388 130.83 84.3653 131.857 86.8412C132.719 88.9066 134.34 90.9159 134.219 92.0668C134.099 93.2177 133.478 95.6128 133.478 96.857C133.403 98.0734 133.239 99.2861 132.986 100.49L118.671 112.932L131.063 120.82L140.868 109.71C140.868 109.71 143.826 110.064 145.542 108.646L148.129 106.512C148.129 106.512 154.77 104.739 153.416 102.157C153.416 102.157 155.382 100.807 153.597 98.6424C153.597 98.6424 154.528 96.3904 153.174 95.0653C153.174 95.0653 153.054 92.0482 151.941 91.5132C150.829 90.9782 139.325 90.8911 139.325 90.8911C138.698 89.5116 137.976 88.1558 137.16 86.8288C135.901 85.3295 135.263 83.6187 133.581 83.457Z" fill="#FFBE9D"/>
<path d="M138.479 95.6936C138.479 95.7247 138.177 95.6065 137.91 95.3141C137.561 94.9201 137.409 94.4524 137.478 93.9878C137.547 93.5231 137.833 93.0892 138.289 92.7573C138.634 92.5147 138.927 92.44 138.953 92.4712C138.44 92.9191 138.088 93.451 137.927 94.0202C137.928 94.6014 138.117 95.1744 138.479 95.6936Z" fill="#EB996E"/>
<path d="M152.691 94.8413C150.957 95.206 149.173 95.4334 147.37 95.5194C145.583 95.7069 143.772 95.7507 141.972 95.65C143.744 95.4274 145.532 95.2758 147.327 95.1959C149.104 95.0038 150.895 94.8854 152.691 94.8413Z" fill="#EB996E"/>
<path d="M153.709 98.3998C152.28 98.8185 150.77 99.0786 149.233 99.1712C147.717 99.3736 146.168 99.4113 144.637 99.2831C144.637 99.1898 146.672 99.0965 149.173 98.8477C151.674 98.5988 153.683 98.3127 153.709 98.3998Z" fill="#EB996E"/>
<path d="M153.459 102.051C151.227 102.545 148.882 102.712 146.56 102.543C147.694 102.364 148.848 102.258 150.009 102.226C151.15 102.095 152.304 102.037 153.459 102.051Z" fill="#EB996E"/>
<path d="M142.592 103.172C142.592 103.209 142.351 103.172 142.058 103.053C141.671 102.863 141.4 102.574 141.299 102.245C141.188 101.919 141.25 101.575 141.471 101.28C141.644 101.063 141.833 100.976 141.877 101C141.92 101.025 141.523 101.542 141.73 102.17C141.937 102.798 142.653 103.091 142.592 103.172Z" fill="#EB996E"/>
<path d="M139.763 100.21C139.763 100.241 139.479 100.135 139.212 99.8678C138.868 99.5144 138.671 99.0982 138.642 98.6672C138.607 98.2351 138.738 97.8044 139.022 97.423C139.255 97.1368 139.479 97.0124 139.522 97.0373C139.258 97.5518 139.113 98.0939 139.091 98.6423C139.201 99.1869 139.428 99.7158 139.763 100.21Z" fill="#EB996E"/>
<path d="M149.923 105.977C149.297 106.216 148.611 106.36 147.905 106.4C147.222 106.542 146.505 106.578 145.801 106.506C146.425 106.264 147.112 106.12 147.819 106.083C148.501 105.937 149.219 105.901 149.923 105.977Z" fill="#EB996E"/>
<path d="M144.378 90.947C144.378 91.0403 142.653 91.0403 140.471 91.1958C138.289 91.3514 136.608 91.594 136.573 91.5069C137.796 91.1334 139.102 90.9226 140.428 90.8848C141.739 90.7367 143.077 90.7578 144.378 90.947Z" fill="#EB996E"/>
<path d="M182.244 120.851H253.528C254.786 120.851 255.992 121.212 256.882 121.853C257.771 122.495 258.271 123.365 258.271 124.273V160.722H177.519V124.267C177.521 123.362 178.019 122.496 178.905 121.856C179.79 121.216 180.991 120.855 182.244 120.851Z" fill="#E0E0E0"/>
<path d="M258.271 163.372H163.41C163.41 162.676 163.794 162.008 164.476 161.515C165.159 161.023 166.084 160.747 167.049 160.747H258.271V163.372Z" fill="#E0E0E0"/>
<path d="M255.288 123.415H179.969V160.747H255.288V123.415Z" fill="white"/>
<path d="M255.278 160.722C255.278 160.722 255.278 160.485 255.278 160.037C255.278 159.59 255.278 158.918 255.278 158.059C255.278 156.324 255.278 153.785 255.226 150.538C255.226 144.043 255.175 134.731 255.132 123.39L255.313 123.52H180.002L180.226 123.359C180.226 136.69 180.226 149.35 180.226 160.684L180.028 160.535L234.279 160.61L249.802 160.653H253.933H254.994H255.364H255.019H253.976H249.888L234.443 160.691L180.054 160.765H179.847V160.722C179.847 149.381 179.847 136.721 179.847 123.396V123.234H180.071H255.382H255.563V123.396C255.563 134.768 255.494 144.112 255.468 150.625C255.468 153.86 255.468 156.386 255.468 158.09C255.468 158.943 255.468 159.596 255.468 160.044C255.468 160.492 255.278 160.722 255.278 160.722Z" fill="#263238"/>
<path d="M257.874 160.722C257.874 160.815 237.514 160.883 212.401 160.883C187.289 160.883 166.92 160.815 166.92 160.722C166.92 160.628 187.28 160.56 212.401 160.56C237.522 160.56 257.874 160.659 257.874 160.722Z" fill="#263238"/>
<path d="M217.62 156.361C228.55 156.361 237.411 149.969 237.411 142.084C237.411 134.199 228.55 127.806 217.62 127.806C206.689 127.806 197.828 134.199 197.828 142.084C197.828 149.969 206.689 156.361 217.62 156.361Z" fill="#292F79"/>
<path d="M205.321 142.432L209.512 139.57L215.299 143.415L226.691 135.682L230.83 138.506L215.239 149.182L205.321 142.432Z" fill="white"/>
<path d="M133.003 100.49C133.098 100.546 127.156 105.722 119.731 112.042C112.306 118.363 106.209 123.439 106.114 123.396C106.02 123.352 111.961 118.17 119.386 111.843C126.811 105.517 132.908 100.434 133.003 100.49Z" fill="#EB996E"/>
<path d="M131.977 92.4713C131.783 94.2761 131.44 96.0709 130.95 97.8462C130.611 99.641 130.121 101.419 129.484 103.171C129.678 101.365 130.021 99.5677 130.511 97.7903C130.856 95.9982 131.345 94.2223 131.977 92.4713Z" fill="#263238"/>
<path d="M187.221 119.57C187.251 119.443 187.298 119.318 187.359 119.197L187.824 118.152C188.238 117.249 188.85 115.943 189.549 114.319C190.383 112.422 191.08 110.496 191.636 108.546C192.331 106.166 192.64 103.736 192.559 101.305C192.247 96.8783 190.524 92.563 187.522 88.6952C186.631 87.5174 185.652 86.3752 184.59 85.2736C184.228 84.8817 183.918 84.5893 183.728 84.384C183.617 84.2818 183.522 84.1713 183.443 84.0543C183.575 84.1403 183.694 84.2363 183.797 84.3405C184.021 84.5396 184.357 84.8195 184.746 85.2052C185.866 86.2835 186.892 87.4117 187.816 88.5832C189.188 90.3273 190.318 92.1652 191.187 94.0701C192.269 96.4035 192.893 98.8346 193.042 101.293C193.128 103.75 192.804 106.207 192.076 108.609C191.495 110.563 190.764 112.492 189.885 114.388C189.144 116.005 188.488 117.305 188.023 118.195C187.798 118.61 187.617 118.952 187.479 119.222C187.413 119.345 187.326 119.462 187.221 119.57Z" fill="#263238"/>
<path d="M168.895 100.198C168.93 100.488 168.93 100.779 168.895 101.069C168.893 101.41 168.859 101.751 168.791 102.089C168.729 102.54 168.634 102.989 168.507 103.433C168.368 103.971 168.184 104.503 167.955 105.025C167.712 105.631 167.424 106.227 167.092 106.811C166.296 108.127 165.308 109.378 164.143 110.543C162.949 111.706 161.581 112.77 160.064 113.716C159.399 114.126 158.702 114.508 157.977 114.861C157.357 115.179 156.708 115.467 156.037 115.725C155.48 115.958 154.904 116.165 154.312 116.347C153.888 116.496 153.45 116.623 153.001 116.727C152.628 116.838 152.241 116.923 151.846 116.982C151.802 116.914 153.458 116.546 155.838 115.545C156.489 115.275 157.12 114.98 157.727 114.662C158.4 114.338 159.046 113.927 159.753 113.511C162.725 111.625 165.081 109.288 166.652 106.668C166.981 106.098 167.269 105.517 167.515 104.926C167.753 104.411 167.952 103.888 168.11 103.358C168.826 101.442 168.808 100.198 168.895 100.198Z" fill="#263238"/>
<path d="M192.602 105.853C192.553 105.818 192.512 105.778 192.481 105.734L192.179 105.355C191.895 105.013 191.507 104.546 191.015 103.968C190.524 103.389 189.756 102.68 188.954 101.871C188.152 101.062 187.134 100.179 186.057 99.19C181.624 95.2832 175.079 90.1509 167.576 84.6702C160.073 79.1895 153.028 74.4118 147.862 70.984L144.344 68.7134C143.309 68.054 142.412 67.4692 141.662 67.0213L139.937 65.9699L139.497 65.69C139.44 65.6609 139.391 65.6252 139.351 65.5842C139.412 65.6061 139.47 65.6333 139.523 65.6651C139.652 65.7335 139.808 65.8144 139.989 65.9202L141.765 66.9217L144.499 68.5765C145.56 69.2359 146.75 69.9887 148.061 70.8161C153.295 74.1754 160.358 78.9469 167.895 84.4214C175.432 89.8958 181.926 95.0717 186.298 99.022C187.367 100.024 188.333 100.926 189.161 101.734L191.162 103.874C191.619 104.496 192.024 104.944 192.257 105.299L192.533 105.672C192.59 105.793 192.613 105.853 192.602 105.853Z" fill="#263238"/>
<path d="M175.854 134.631C175.695 134.671 175.53 134.694 175.362 134.699L173.956 134.842C172.732 134.96 170.947 135.097 168.782 135.24C164.376 135.527 158.261 135.757 151.535 135.701C144.808 135.645 138.668 135.29 134.287 134.929C132.088 134.749 130.312 134.575 129.113 134.432L127.708 134.27C127.543 134.257 127.381 134.23 127.225 134.189C127.391 134.174 127.559 134.174 127.725 134.189L129.139 134.295C130.364 134.401 132.149 134.537 134.313 134.687C138.703 134.992 144.8 135.309 151.561 135.365C158.322 135.421 164.401 135.222 168.808 134.998C171.007 134.886 172.792 134.786 173.982 134.705L175.397 134.625C175.549 134.615 175.702 134.617 175.854 134.631Z" fill="#263238"/>
<path d="M213.203 120.808C213.203 120.808 227.329 116.833 228.665 116.515C230.002 116.198 242.351 115.501 242.351 115.501L258.271 119.626C258.271 119.626 258.417 121.984 254.7 121.666C251.424 121.267 248.192 120.693 245.033 119.949L242.8 120.908L213.203 120.808Z" fill="#FFBE9D"/>
<path d="M257.503 122.319C257.874 122.861 258.84 122.942 259.581 123.228C260.267 123.517 260.829 123.937 261.205 124.442C261.581 124.947 261.756 125.517 261.711 126.089C261.587 127.233 261.062 128.336 260.185 129.293C259.916 129.68 259.526 130.016 259.047 130.276C258.801 130.399 258.509 130.465 258.21 130.465C257.911 130.465 257.619 130.399 257.374 130.276C257.138 130.069 256.98 129.822 256.913 129.559C256.847 129.295 256.875 129.024 256.994 128.771C257.451 126.786 256.856 124.273 257.503 122.313" fill="#FFBE9D"/>
<path d="M273.509 259.927L273.992 260.898C273.992 260.898 300.208 261.638 302.002 264.711L256.4 276.27L251.683 265.166C259.573 265.713 266.791 264.17 273.509 259.927Z" fill="#292F79"/>
<g opacity="0.6">
<path d="M258.012 267.492C257.619 267.701 257.347 268.006 257.246 268.351C257.146 268.695 257.225 269.054 257.469 269.359C257.743 269.655 258.166 269.862 258.649 269.938C259.132 270.013 259.636 269.95 260.056 269.763C260.472 269.543 260.759 269.219 260.863 268.855C260.967 268.49 260.879 268.111 260.616 267.791C260.287 267.511 259.821 267.333 259.315 267.295C258.809 267.257 258.302 267.361 257.9 267.586" fill="white"/>
</g>
<g opacity="0.6">
<path d="M256.399 276.27L255.27 273.601L299.388 263.499C299.388 263.499 301.725 263.623 301.975 264.743L256.399 276.27Z" fill="white"/>
</g>
<path d="M274.199 260.954C274.268 261.116 273.19 261.47 272.344 262.267C271.499 263.063 271.249 263.884 271.016 263.872C270.784 263.859 270.654 262.845 271.698 261.9C272.741 260.954 274.173 260.792 274.199 260.954Z" fill="#263238"/>
<path d="M279.675 261.166C279.804 261.309 278.968 261.825 278.545 262.696C278.123 263.567 278.252 264.345 278.028 264.394C277.803 264.444 277.217 263.567 277.778 262.491C278.338 261.415 279.597 261.016 279.675 261.166Z" fill="#263238"/>
<path d="M284.4 264.612C284.219 264.699 283.538 263.99 283.659 262.951C283.78 261.912 284.676 261.315 284.832 261.421C284.987 261.526 284.582 262.167 284.478 263.007C284.375 263.847 284.616 264.537 284.4 264.612Z" fill="#263238"/>
</svg>
