<svg width="13" height="13" viewBox="0 0 13 13" fill="none" xmlns="http://www.w3.org/2000/svg">
<path d="M1.42263 11.5753H2.41847L8.55355 5.43151L7.55771 4.43425L1.42263 10.5781V11.5753ZM11.5944 4.39863L8.57133 1.40685L9.56717 0.409589C9.83984 0.13653 10.1749 0 10.5723 0C10.9692 0 11.304 0.13653 11.5766 0.409589L12.5725 1.40685C12.8451 1.67991 12.9874 2.00948 12.9993 2.39556C13.0111 2.78117 12.8807 3.1105 12.608 3.38356L11.5944 4.39863ZM10.563 5.44932L3.02308 13H0V9.9726L7.53993 2.42192L10.563 5.44932ZM8.05563 4.93288L7.55771 4.43425L8.55355 5.43151L8.05563 4.93288Z" fill="#403E3E"/>
</svg>
