<svg width="24" height="29" viewBox="0 0 24 29" fill="none" xmlns="http://www.w3.org/2000/svg">
<path d="M22.4842 11.9029C22.4842 19.9825 11.9996 26.9078 11.9996 26.9078C11.9996 26.9078 1.51492 19.9825 1.51492 11.9029C1.51492 9.14785 2.61955 6.50562 4.5858 4.55749C6.55205 2.60936 9.21886 1.51492 11.9996 1.51492C14.7803 1.51492 17.4471 2.60936 19.4133 4.55749C21.3796 6.50562 22.4842 9.14785 22.4842 11.9029Z" stroke="white" stroke-width="3" stroke-linecap="round" stroke-linejoin="round"/>
<path d="M11.9996 15.3656C13.9297 15.3656 15.4944 13.8153 15.4944 11.9029C15.4944 9.99054 13.9297 8.44025 11.9996 8.44025C10.0694 8.44025 8.50468 9.99054 8.50468 11.9029C8.50468 13.8153 10.0694 15.3656 11.9996 15.3656Z" stroke="white" stroke-width="3" stroke-linecap="round" stroke-linejoin="round"/>
</svg>
